<svg xmlns="http://www.w3.org/2000/svg" xmlns:xlink="http://www.w3.org/1999/xlink" width="3000" zoomAndPan="magnify" viewBox="0 0 2250 2250.000011" height="3000" preserveAspectRatio="xMidYMid meet" version="1.0"><metadata/><defs><g/><clipPath id="d09625256a"><path d="M 0.5 0 L 2249.5 0 L 2249.5 2249 L 0.5 2249 Z M 0.5 0 " clip-rule="nonzero"/></clipPath><clipPath id="abd4af6398"><rect x="0" width="1528" y="0" height="2249"/></clipPath></defs><g clip-path="url(#d09625256a)"><path fill="#ffffff" d="M 0.5 0 L 2249.5 0 L 2249.5 2249 L 0.5 2249 Z M 0.5 0 " fill-opacity="1" fill-rule="nonzero"/><path fill="#ffffff" d="M 0.5 0 L 2249.5 0 L 2249.5 2249 L 0.5 2249 Z M 0.5 0 " fill-opacity="1" fill-rule="nonzero"/></g><g transform="matrix(1, 0, 0, 1, 362, -0.00000000000012564)"><g clip-path="url(#abd4af6398)"><g fill="#000000" fill-opacity="1"><g transform="translate(0.134901, 1816.748026)"><g><path d="M 720 -1434.015625 C 851.632812 -1434.015625 962.992188 -1412.40625 1054.078125 -1369.1875 C 1145.160156 -1325.976562 1218.957031 -1268.804688 1275.46875 -1197.671875 C 1331.976562 -1126.535156 1372.863281 -1045.425781 1398.125 -954.34375 C 1423.382812 -863.269531 1436.015625 -769.863281 1436.015625 -674.125 C 1436.015625 -570.414062 1422.382812 -472.351562 1395.125 -379.9375 C 1367.875 -287.53125 1324.992188 -206.753906 1266.484375 -137.609375 C 1207.984375 -68.472656 1132.523438 -13.960938 1040.109375 25.921875 C 947.703125 65.816406 836.347656 85.765625 706.046875 85.765625 L 159.5625 85.765625 L 159.5625 -1434.015625 Z M 428.8125 -151.578125 L 690.09375 -151.578125 C 840.34375 -151.578125 957.015625 -196.453125 1040.109375 -286.203125 C 1123.210938 -375.953125 1164.765625 -505.925781 1164.765625 -676.125 C 1164.765625 -742.601562 1156.453125 -807.085938 1139.828125 -869.578125 C 1123.210938 -932.078125 1095.957031 -987.59375 1058.0625 -1036.125 C 1020.164062 -1084.65625 970.96875 -1123.546875 910.46875 -1152.796875 C 849.976562 -1182.054688 775.851562 -1196.6875 688.09375 -1196.6875 L 428.8125 -1196.6875 Z M 428.8125 -151.578125 "/></g></g></g></g></g></svg>