<svg xmlns="http://www.w3.org/2000/svg" width="969" height="433" viewBox="634 908 969 433" preserveAspectRatio="xMidYMid meet"><defs><clipPath id="wordmark-crop"><rect x="0" width="969" y="0" height="433"/></clipPath></defs><g transform="matrix(1, 0, 0, 1, 634, 908)"><g clip-path="url(#wordmark-crop)"><g fill="#ffffff" fill-opacity="1"><g transform="translate(0.614268, 331.506916)"><path d="M 119.609375 -238.234375 C 141.484375 -238.234375 159.984375 -234.644531 175.109375 -227.46875 C 190.242188 -220.289062 202.503906 -210.789062 211.890625 -198.96875 C 221.273438 -187.15625 228.066406 -173.679688 232.265625 -158.546875 C 236.460938 -143.410156 238.5625 -127.894531 238.5625 -112 C 238.5625 -94.769531 236.296875 -78.476562 231.765625 -63.125 C 227.242188 -47.769531 220.125 -34.347656 210.40625 -22.859375 C 200.6875 -11.378906 188.148438 -2.324219 172.796875 4.296875 C 157.441406 10.929688 138.941406 14.25 117.296875 14.25 L 26.5 14.25 L 26.5 -238.234375 Z M 71.234375 -25.1875 L 114.640625 -25.1875 C 139.609375 -25.1875 158.992188 -32.640625 172.796875 -47.546875 C 186.597656 -62.453125 193.5 -84.046875 193.5 -112.328125 C 193.5 -123.367188 192.117188 -134.078125 189.359375 -144.453125 C 186.597656 -154.835938 182.066406 -164.0625 175.765625 -172.125 C 169.472656 -180.195312 161.300781 -186.660156 151.25 -191.515625 C 141.207031 -196.378906 128.894531 -198.8125 114.3125 -198.8125 L 71.234375 -198.8125 Z M 71.234375 -25.1875 L 114.640625 -25.1875 Z M 71.234375 -25.1875 "/></g></g><g fill="#ffffff" fill-opacity="1"><g transform="translate(205.053009, 331.506916)"><path d="M 218.359375 -238.234375 L 218.359375 -198.8125 L 71.234375 -198.8125 L 71.234375 -134.53125 L 203.78125 -134.53125 L 203.78125 -94.765625 L 71.234375 -94.765625 L 71.234375 -25.1875 L 219.6875 -25.1875 L 219.6875 14.25 L 26.5 14.25 L 26.5 -238.234375 Z M 218.359375 -238.234375 "/></g></g><g fill="#ffffff" fill-opacity="1"><g transform="translate(393.587131, 331.506916)"><path d="M 71.234375 -238.234375 L 71.234375 -25.1875 L 203.78125 -25.1875 L 203.78125 14.25 L 26.5 14.25 L 26.5 -238.234375 Z M 71.234375 -238.234375 "/></g></g><g fill="#ffffff" fill-opacity="1"><g transform="translate(555.28219, 331.506916)"><path d="M 218.359375 -238.234375 L 218.359375 -198.8125 L 71.234375 -198.8125 L 71.234375 -134.53125 L 203.78125 -134.53125 L 203.78125 -94.765625 L 71.234375 -94.765625 L 71.234375 -25.1875 L 219.6875 -25.1875 L 219.6875 14.25 L 26.5 14.25 L 26.5 -238.234375 Z M 218.359375 -238.234375 "/></g></g><g fill="#ffffff" fill-opacity="1"><g transform="translate(743.816312, 331.506916)"><path d="M 218.359375 -238.234375 L 218.359375 -198.8125 L 71.234375 -198.8125 L 71.234375 -134.53125 L 203.78125 -134.53125 L 203.78125 -94.765625 L 71.234375 -94.765625 L 71.234375 -25.1875 L 219.6875 -25.1875 L 219.6875 14.25 L 26.5 14.25 L 26.5 -238.234375 Z M 218.359375 -238.234375 "/></g></g></g></g></svg>
