<svg xmlns="http://www.w3.org/2000/svg" xmlns:xlink="http://www.w3.org/1999/xlink" viewBox="260 900 1035 335" preserveAspectRatio="xMidYMid meet" version="1.0"><metadata/><defs><g/></defs><g fill="#000000" fill-opacity="1"><g transform="translate(282.074853, 1185.483575)"><g><path d="M 64.765625 -118.96875 C 64.765625 -105.832031 66.347656 -93.28125 69.515625 -81.3125 C 72.679688 -69.34375 77.488281 -58.898438 83.9375 -49.984375 C 90.394531 -41.066406 98.429688 -33.96875 108.046875 -28.6875 C 117.671875 -23.40625 128.9375 -20.765625 141.84375 -20.765625 C 154.988281 -20.765625 166.429688 -23.34375 176.171875 -28.5 C 185.910156 -33.664062 194.003906 -40.765625 200.453125 -49.796875 C 206.910156 -58.835938 211.722656 -69.28125 214.890625 -81.125 C 218.054688 -92.976562 219.640625 -105.59375 219.640625 -118.96875 C 219.640625 -132.113281 217.992188 -144.609375 214.703125 -156.453125 C 211.421875 -168.304688 206.492188 -178.75 199.921875 -187.78125 C 193.359375 -196.8125 185.265625 -203.96875 175.640625 -209.25 C 166.015625 -214.53125 154.75 -217.171875 141.84375 -217.171875 C 128.9375 -217.171875 117.671875 -214.53125 108.046875 -209.25 C 98.429688 -203.96875 90.394531 -196.867188 83.9375 -187.953125 C 77.488281 -179.035156 72.679688 -168.648438 69.515625 -156.796875 C 66.347656 -144.953125 64.765625 -132.34375 64.765625 -118.96875 Z M 17.25 -118.96875 C 17.25 -137.039062 19.648438 -154.523438 24.453125 -171.421875 C 29.265625 -188.316406 36.773438 -203.273438 46.984375 -216.296875 C 57.191406 -229.316406 70.097656 -239.753906 85.703125 -247.609375 C 101.304688 -255.472656 120.019531 -259.40625 141.84375 -259.40625 C 163.664062 -259.40625 182.4375 -255.472656 198.15625 -247.609375 C 213.882812 -239.753906 226.851562 -229.316406 237.0625 -216.296875 C 247.269531 -203.273438 254.773438 -188.316406 259.578125 -171.421875 C 264.390625 -154.523438 266.796875 -137.039062 266.796875 -118.96875 C 266.796875 -100.90625 264.445312 -83.425781 259.75 -66.53125 C 255.0625 -49.632812 247.671875 -34.671875 237.578125 -21.640625 C 227.492188 -8.617188 214.53125 1.757812 198.6875 9.5 C 182.851562 17.25 163.90625 21.125 141.84375 21.125 C 120.019531 21.125 101.25 17.191406 85.53125 9.328125 C 69.8125 1.460938 56.90625 -9.035156 46.8125 -22.171875 C 36.71875 -35.316406 29.265625 -50.273438 24.453125 -67.046875 C 19.648438 -83.828125 17.25 -101.132812 17.25 -118.96875 Z M 17.25 -118.96875 "/></g></g></g><g fill="#000000" fill-opacity="1"><g transform="translate(515.438747, 1185.483575)"><g><path d="M 68.640625 -181.96875 L 68.640625 -146.78125 C 72.160156 -152.40625 76.617188 -157.679688 82.015625 -162.609375 C 87.410156 -167.546875 93.332031 -171.769531 99.78125 -175.28125 C 106.238281 -178.800781 113.046875 -181.617188 120.203125 -183.734375 C 127.359375 -185.847656 134.335938 -186.90625 141.140625 -186.90625 L 141.140625 -148.890625 C 135.742188 -148.890625 129.878906 -148.242188 123.546875 -146.953125 C 117.210938 -145.660156 110.757812 -143.546875 104.1875 -140.609375 C 97.613281 -137.679688 91.273438 -133.925781 85.171875 -129.34375 C 79.078125 -124.769531 73.566406 -119.203125 68.640625 -112.640625 L 68.640625 15.140625 L 22.171875 15.140625 L 22.171875 -181.96875 Z M 68.640625 -181.96875 "/></g></g></g><g fill="#000000" fill-opacity="1"><g transform="translate(608.009418, 1185.483575)"><g/></g></g><g fill="#000000" fill-opacity="1"><g transform="translate(682.276944, 1185.483575)"><g><path d="M 109.109375 -253.078125 L 161.90625 -253.078125 L 267.15625 15.140625 L 217.171875 15.140625 L 192.890625 -47.875 L 76.03125 -47.875 L 51.390625 15.140625 L 1.765625 15.140625 Z M 92.578125 -90.109375 L 176.703125 -90.109375 L 135.515625 -198.875 L 135.15625 -198.875 Z M 92.578125 -90.109375 "/></g></g></g><g fill="#000000" fill-opacity="1"><g transform="translate(900.15357, 1185.483575)"><g><path d="M 54.5625 -40.125 C 59.71875 -30.269531 66.285156 -23.460938 74.265625 -19.703125 C 82.242188 -15.953125 91.394531 -14.078125 101.71875 -14.078125 C 112.28125 -14.078125 120.785156 -16.421875 127.234375 -21.109375 C 133.691406 -25.804688 136.921875 -31.441406 136.921875 -38.015625 C 136.921875 -41.765625 135.742188 -45.109375 133.390625 -48.046875 C 131.046875 -50.984375 127.757812 -53.566406 123.53125 -55.796875 C 119.3125 -58.023438 114.445312 -60.132812 108.9375 -62.125 C 103.425781 -64.113281 97.5 -66.164062 91.15625 -68.28125 C 66.050781 -75.5625 47.515625 -83.894531 35.546875 -93.28125 C 23.578125 -102.664062 17.59375 -114.984375 17.59375 -130.234375 C 17.59375 -138.210938 19.53125 -145.722656 23.40625 -152.765625 C 27.28125 -159.804688 32.851562 -165.90625 40.125 -171.0625 C 47.394531 -176.226562 56.015625 -180.273438 65.984375 -183.203125 C 75.960938 -186.140625 87.171875 -187.609375 99.609375 -187.609375 C 120.492188 -187.609375 137.679688 -183.441406 151.171875 -175.109375 C 164.671875 -166.773438 175.054688 -154.398438 182.328125 -137.984375 L 138.6875 -130.59375 C 134.695312 -138.09375 129.472656 -143.484375 123.015625 -146.765625 C 116.566406 -150.054688 108.765625 -151.703125 99.609375 -151.703125 C 88.578125 -151.703125 79.894531 -149.414062 73.5625 -144.84375 C 67.226562 -140.269531 64.0625 -134.929688 64.0625 -128.828125 C 64.0625 -125.066406 65.289062 -121.78125 67.75 -118.96875 C 70.21875 -116.15625 73.445312 -113.691406 77.4375 -111.578125 C 81.425781 -109.460938 85.765625 -107.582031 90.453125 -105.9375 C 95.148438 -104.300781 99.847656 -102.78125 104.546875 -101.375 C 131.992188 -94.5625 152.347656 -86.460938 165.609375 -77.078125 C 178.867188 -67.691406 185.5 -54.671875 185.5 -38.015625 C 185.5 -28.859375 183.441406 -20.582031 179.328125 -13.1875 C 175.222656 -5.800781 169.472656 0.410156 162.078125 5.453125 C 154.691406 10.492188 145.773438 14.363281 135.328125 17.0625 C 124.890625 19.769531 113.21875 21.125 100.3125 21.125 C 91.863281 21.125 83.238281 20.179688 74.4375 18.296875 C 65.644531 16.421875 57.257812 13.429688 49.28125 9.328125 C 41.300781 5.222656 33.96875 -0.113281 27.28125 -6.6875 C 20.59375 -13.257812 15.132812 -21.351562 10.90625 -30.96875 Z M 54.5625 -40.125 "/></g></g></g><g fill="#000000" fill-opacity="1"><g transform="translate(1049.393538, 1185.483575)"><g><path d="M 68.984375 -253.078125 L 68.984375 -103.484375 L 148.1875 -181.96875 L 204.5 -181.96875 L 120.734375 -98.90625 L 210.84375 15.140625 L 156.28125 15.140625 L 89.75 -67.9375 L 68.984375 -47.515625 L 68.984375 15.140625 L 22.171875 15.140625 L 22.171875 -253.078125 Z M 68.984375 -253.078125 "/></g></g></g><g fill="#000000" fill-opacity="1"><g transform="translate(318.06328, 1374.228225)"><g><path d="M 28.84375 -66.90625 L 42.8125 -66.90625 L 70.640625 4 L 57.421875 4 L 51 -12.65625 L 20.09375 -12.65625 L 13.59375 4 L 0.46875 4 Z M 24.46875 -23.828125 L 46.71875 -23.828125 L 35.828125 -52.578125 L 35.734375 -52.578125 Z M 24.46875 -23.828125 "/></g></g></g><g fill="#000000" fill-opacity="1"><g transform="translate(375.295654, 1374.228225)"><g><path d="M 33.59375 -66.90625 C 39.738281 -66.90625 44.9375 -65.894531 49.1875 -63.875 C 53.4375 -61.863281 56.878906 -59.195312 59.515625 -55.875 C 62.148438 -52.5625 64.054688 -48.78125 65.234375 -44.53125 C 66.410156 -40.28125 67 -35.921875 67 -31.453125 C 67 -26.617188 66.363281 -22.046875 65.09375 -17.734375 C 63.820312 -13.421875 61.820312 -9.648438 59.09375 -6.421875 C 56.363281 -3.191406 52.84375 -0.648438 48.53125 1.203125 C 44.21875 3.066406 39.019531 4 32.9375 4 L 7.4375 4 L 7.4375 -66.90625 Z M 20.015625 -7.078125 L 32.203125 -7.078125 C 39.210938 -7.078125 44.65625 -9.171875 48.53125 -13.359375 C 52.40625 -17.546875 54.34375 -23.609375 54.34375 -31.546875 C 54.34375 -34.648438 53.953125 -37.660156 53.171875 -40.578125 C 52.398438 -43.492188 51.128906 -46.082031 49.359375 -48.34375 C 47.597656 -50.613281 45.304688 -52.429688 42.484375 -53.796875 C 39.660156 -55.160156 36.203125 -55.84375 32.109375 -55.84375 L 20.015625 -55.84375 Z M 20.015625 -7.078125 "/></g></g></g><g fill="#000000" fill-opacity="1"><g transform="translate(432.707986, 1374.228225)"><g><path d="M 13.953125 -66.90625 L 33.6875 -11.453125 L 33.875 -11.453125 L 53.515625 -66.90625 L 67.09375 -66.90625 L 40.671875 4 L 26.796875 4 L 0.46875 -66.90625 Z M 13.953125 -66.90625 "/></g></g></g><g fill="#000000" fill-opacity="1"><g transform="translate(486.49127, 1374.228225)"><g><path d="M 20.09375 -66.90625 L 20.09375 4 L 7.4375 4 L 7.4375 -66.90625 Z M 20.09375 -66.90625 "/></g></g></g><g fill="#000000" fill-opacity="1"><g transform="translate(500.168982, 1374.228225)"><g><path d="M 4.5625 -31.546875 C 4.5625 -36.390625 5.164062 -41.039062 6.375 -45.5 C 7.582031 -49.96875 9.488281 -53.90625 12.09375 -57.3125 C 14.695312 -60.726562 18.0625 -63.460938 22.1875 -65.515625 C 26.320312 -67.566406 31.269531 -68.59375 37.03125 -68.59375 C 41.132812 -68.59375 44.828125 -68.046875 48.109375 -66.953125 C 51.398438 -65.867188 54.269531 -64.410156 56.71875 -62.578125 C 59.164062 -60.753906 61.210938 -58.644531 62.859375 -56.25 C 64.503906 -53.863281 65.757812 -51.335938 66.625 -48.671875 L 53.890625 -46.71875 C 52.148438 -50.25 49.914062 -52.914062 47.1875 -54.71875 C 44.457031 -56.519531 41.070312 -57.421875 37.03125 -57.421875 C 30.894531 -57.421875 26.039062 -55.1875 22.46875 -50.71875 C 18.90625 -46.25 17.125 -39.859375 17.125 -31.546875 C 17.125 -27.578125 17.585938 -23.992188 18.515625 -20.796875 C 19.453125 -17.597656 20.785156 -14.867188 22.515625 -12.609375 C 24.253906 -10.347656 26.347656 -8.59375 28.796875 -7.34375 C 31.253906 -6.101562 34 -5.484375 37.03125 -5.484375 C 41.3125 -5.484375 44.863281 -6.445312 47.6875 -8.375 C 50.507812 -10.300781 52.695312 -13.0625 54.25 -16.65625 L 66.8125 -14.796875 C 65.820312 -11.878906 64.472656 -9.179688 62.765625 -6.703125 C 61.066406 -4.222656 58.988281 -2.082031 56.53125 -0.28125 C 54.082031 1.519531 51.242188 2.945312 48.015625 4 C 44.796875 5.050781 41.132812 5.578125 37.03125 5.578125 C 31.382812 5.578125 26.515625 4.582031 22.421875 2.59375 C 18.328125 0.613281 14.960938 -2.078125 12.328125 -5.484375 C 9.691406 -8.898438 7.738281 -12.859375 6.46875 -17.359375 C 5.195312 -21.859375 4.5625 -26.585938 4.5625 -31.546875 Z M 4.5625 -31.546875 "/></g></g></g><g fill="#000000" fill-opacity="1"><g transform="translate(556.836898, 1374.228225)"><g><path d="M 61.328125 -66.90625 L 61.328125 -55.84375 L 20.015625 -55.84375 L 20.015625 -37.78125 L 57.234375 -37.78125 L 57.234375 -26.609375 L 20.015625 -26.609375 L 20.015625 -7.078125 L 61.703125 -7.078125 L 61.703125 4 L 7.4375 4 L 7.4375 -66.90625 Z M 61.328125 -66.90625 "/></g></g></g><g fill="#000000" fill-opacity="1"><g transform="translate(609.789086, 1374.228225)"><g/></g></g><g fill="#000000" fill-opacity="1"><g transform="translate(629.057861, 1374.228225)"><g><path d="M 60.765625 -66.90625 L 60.765625 -55.84375 L 20.015625 -55.84375 L 20.015625 -36.109375 L 56.765625 -36.109375 L 56.765625 -24.9375 L 20.015625 -24.9375 L 20.015625 4 L 7.4375 4 L 7.4375 -66.90625 Z M 60.765625 -66.90625 "/></g></g></g><g fill="#000000" fill-opacity="1"><g transform="translate(680.421784, 1374.228225)"><g><path d="M 20.09375 -66.90625 L 20.09375 4 L 7.4375 4 L 7.4375 -66.90625 Z M 20.09375 -66.90625 "/></g></g></g><g fill="#000000" fill-opacity="1"><g transform="translate(694.099496, 1374.228225)"><g><path d="M 36.671875 -66.90625 C 41.015625 -66.90625 44.75 -66.394531 47.875 -65.375 C 51.007812 -64.351562 53.582031 -62.941406 55.59375 -61.140625 C 57.613281 -59.335938 59.101562 -57.195312 60.0625 -54.71875 C 61.03125 -52.238281 61.515625 -49.570312 61.515625 -46.71875 C 61.515625 -45.414062 61.296875 -43.972656 60.859375 -42.390625 C 60.429688 -40.804688 59.75 -39.238281 58.8125 -37.6875 C 57.882812 -36.132812 56.707031 -34.675781 55.28125 -33.3125 C 53.851562 -31.945312 52.175781 -30.832031 50.25 -29.96875 L 50.25 -29.875 C 53.164062 -28.695312 55.492188 -26.878906 57.234375 -24.421875 C 58.972656 -21.972656 59.992188 -18.765625 60.296875 -14.796875 C 60.609375 -11.203125 61.148438 -7.820312 61.921875 -4.65625 C 62.703125 -1.488281 63.617188 1.394531 64.671875 4 L 51.46875 4 C 50.59375 2.195312 49.90625 -0.0351562 49.40625 -2.703125 C 48.914062 -5.367188 48.484375 -8.90625 48.109375 -13.3125 C 47.859375 -16.414062 46.785156 -19.019531 44.890625 -21.125 C 43.003906 -23.238281 40.203125 -24.296875 36.484375 -24.296875 L 21.40625 -24.296875 L 21.40625 4 L 8.84375 4 L 8.84375 -66.90625 Z M 21.40625 -35.453125 L 35.640625 -35.453125 C 39.921875 -35.453125 43.191406 -36.441406 45.453125 -38.421875 C 47.722656 -40.410156 48.859375 -42.894531 48.859375 -45.875 C 48.859375 -48.914062 47.753906 -51.335938 45.546875 -53.140625 C 43.347656 -54.941406 39.921875 -55.84375 35.265625 -55.84375 L 21.40625 -55.84375 Z M 21.40625 -35.453125 "/></g></g></g><g fill="#000000" fill-opacity="1"><g transform="translate(748.161938, 1374.228225)"><g><path d="M 17.40625 -16.75 C 19.257812 -12.65625 21.582031 -9.753906 24.375 -8.046875 C 27.164062 -6.335938 30.425781 -5.484375 34.15625 -5.484375 C 36.257812 -5.484375 38.117188 -5.75 39.734375 -6.28125 C 41.347656 -6.8125 42.679688 -7.507812 43.734375 -8.375 C 44.796875 -9.238281 45.585938 -10.179688 46.109375 -11.203125 C 46.640625 -12.234375 46.90625 -13.273438 46.90625 -14.328125 C 46.90625 -15.816406 46.390625 -17.164062 45.359375 -18.375 C 44.335938 -19.582031 43.050781 -20.664062 41.5 -21.625 C 39.945312 -22.59375 38.269531 -23.445312 36.46875 -24.1875 C 34.675781 -24.9375 33.003906 -25.59375 31.453125 -26.15625 C 22.765625 -29.007812 16.265625 -32.078125 11.953125 -35.359375 C 7.640625 -38.648438 5.484375 -42.773438 5.484375 -47.734375 C 5.484375 -50.960938 6.226562 -53.878906 7.71875 -56.484375 C 9.207031 -59.085938 11.207031 -61.273438 13.71875 -63.046875 C 16.238281 -64.816406 19.125 -66.179688 22.375 -67.140625 C 25.632812 -68.109375 29.003906 -68.59375 32.484375 -68.59375 C 39.242188 -68.59375 45.039062 -67.070312 49.875 -64.03125 C 54.71875 -60.988281 58.164062 -56.550781 60.21875 -50.71875 L 46.4375 -48.859375 C 45.007812 -51.835938 43.070312 -54.007812 40.625 -55.375 C 38.175781 -56.738281 35.273438 -57.421875 31.921875 -57.421875 C 30.117188 -57.421875 28.457031 -57.203125 26.9375 -56.765625 C 25.414062 -56.328125 24.113281 -55.707031 23.03125 -54.90625 C 21.945312 -54.101562 21.09375 -53.171875 20.46875 -52.109375 C 19.851562 -51.054688 19.546875 -49.941406 19.546875 -48.765625 C 19.546875 -46.160156 20.863281 -44.097656 23.5 -42.578125 C 26.132812 -41.054688 29.84375 -39.488281 34.625 -37.875 C 43 -35.019531 49.476562 -31.820312 54.0625 -28.28125 C 58.65625 -24.75 60.953125 -20.503906 60.953125 -15.546875 C 60.953125 -12.628906 60.347656 -9.894531 59.140625 -7.34375 C 57.929688 -4.800781 56.175781 -2.566406 53.875 -0.640625 C 51.582031 1.273438 48.726562 2.789062 45.3125 3.90625 C 41.90625 5.019531 38.03125 5.578125 33.6875 5.578125 C 26.363281 5.578125 20.128906 3.867188 14.984375 0.453125 C 9.835938 -2.953125 5.957031 -8.035156 3.34375 -14.796875 Z M 17.40625 -16.75 "/></g></g></g><g fill="#000000" fill-opacity="1"><g transform="translate(799.991131, 1374.228225)"><g><path d="M 57.609375 -66.90625 L 57.609375 -55.84375 L 35.265625 -55.84375 L 35.265625 4 L 22.703125 4 L 22.703125 -55.84375 L 0.46875 -55.84375 L 0.46875 -66.90625 Z M 57.609375 -66.90625 "/></g></g></g><g fill="#000000" fill-opacity="1"><g transform="translate(844.283082, 1374.228225)"><g><path d="M 20.65625 -11.625 L 20.65625 4 L 6.421875 4 L 6.421875 -11.625 Z M 20.65625 -11.625 "/></g></g></g></svg>