<svg xmlns="http://www.w3.org/2000/svg" xmlns:xlink="http://www.w3.org/1999/xlink" width="3000" zoomAndPan="magnify" viewBox="0 0 2250 2250.000011" height="3000" preserveAspectRatio="xMidYMid meet" version="1.0"><metadata/><defs><filter x="0%" y="0%" width="100%" height="100%" id="b6a4be6053"><feColorMatrix values="0 0 0 0 1 0 0 0 0 1 0 0 0 0 1 0 0 0 1 0" color-interpolation-filters="sRGB"/></filter><g/><mask id="1bfa1b2047"><g filter="url(#b6a4be6053)"><rect x="-225" width="2700" fill="#000000" y="-225.000001" height="2700.000013" fill-opacity="0.42"/></g></mask><clipPath id="a3c54091e4"><rect x="0" width="440" y="0" height="195"/></clipPath></defs><g mask="url(#1bfa1b2047)"><g transform="matrix(1, 0, 0, 1, 902, 1027)"><g clip-path="url(#a3c54091e4)"><g fill="#ffffff" fill-opacity="1"><g transform="translate(0.61089, 149.602122)"><g><path d="M 53.953125 -107.46875 C 63.816406 -107.46875 72.160156 -105.847656 78.984375 -102.609375 C 85.816406 -99.367188 91.347656 -95.082031 95.578125 -89.75 C 99.816406 -84.425781 102.882812 -78.347656 104.78125 -71.515625 C 106.675781 -64.691406 107.625 -57.691406 107.625 -50.515625 C 107.625 -42.742188 106.597656 -35.394531 104.546875 -28.46875 C 102.503906 -21.539062 99.289062 -15.488281 94.90625 -10.3125 C 90.53125 -5.132812 84.878906 -1.050781 77.953125 1.9375 C 71.023438 4.925781 62.675781 6.421875 52.90625 6.421875 L 11.953125 6.421875 L 11.953125 -107.46875 Z M 32.140625 -11.359375 L 51.71875 -11.359375 C 62.976562 -11.359375 71.722656 -14.71875 77.953125 -21.4375 C 84.179688 -28.164062 87.296875 -37.910156 87.296875 -50.671875 C 87.296875 -55.648438 86.671875 -60.476562 85.421875 -65.15625 C 84.171875 -69.84375 82.125 -74.003906 79.28125 -77.640625 C 76.445312 -81.285156 72.765625 -84.203125 68.234375 -86.390625 C 63.703125 -88.585938 58.144531 -89.6875 51.5625 -89.6875 L 32.140625 -89.6875 Z M 32.140625 -11.359375 "/></g></g></g><g fill="#ffffff" fill-opacity="1"><g transform="translate(93.419286, 149.602122)"><g><path d="M 98.5 -107.46875 L 98.5 -89.6875 L 32.140625 -89.6875 L 32.140625 -60.6875 L 91.921875 -60.6875 L 91.921875 -42.75 L 32.140625 -42.75 L 32.140625 -11.359375 L 99.09375 -11.359375 L 99.09375 6.421875 L 11.953125 6.421875 L 11.953125 -107.46875 Z M 98.5 -107.46875 "/></g></g></g><g fill="#ffffff" fill-opacity="1"><g transform="translate(179.053937, 149.602122)"><g><path d="M 32.140625 -107.46875 L 32.140625 -11.359375 L 91.921875 -11.359375 L 91.921875 6.421875 L 11.953125 6.421875 L 11.953125 -107.46875 Z M 32.140625 -107.46875 "/></g></g></g><g fill="#ffffff" fill-opacity="1"><g transform="translate(252.582893, 149.602122)"><g><path d="M 98.5 -107.46875 L 98.5 -89.6875 L 32.140625 -89.6875 L 32.140625 -60.6875 L 91.921875 -60.6875 L 91.921875 -42.75 L 32.140625 -42.75 L 32.140625 -11.359375 L 99.09375 -11.359375 L 99.09375 6.421875 L 11.953125 6.421875 L 11.953125 -107.46875 Z M 98.5 -107.46875 "/></g></g></g><g fill="#ffffff" fill-opacity="1"><g transform="translate(338.217544, 149.602122)"><g><path d="M 98.5 -107.46875 L 98.5 -89.6875 L 32.140625 -89.6875 L 32.140625 -60.6875 L 91.921875 -60.6875 L 91.921875 -42.75 L 32.140625 -42.75 L 32.140625 -11.359375 L 99.09375 -11.359375 L 99.09375 6.421875 L 11.953125 6.421875 L 11.953125 -107.46875 Z M 98.5 -107.46875 "/></g></g></g></g></g></g></svg>