<svg xmlns="http://www.w3.org/2000/svg" xmlns:xlink="http://www.w3.org/1999/xlink" zoomAndPan="magnify" viewBox="342 950 1557 349" preserveAspectRatio="xMidYMid meet" version="1.0"><metadata/><defs><g/><clipPath id="625c66d1e9"><rect x="0" width="1557" y="0" height="349"/></clipPath></defs><g transform="matrix(1, 0, 0, 1, 342, 950)"><g clip-path="url(#625c66d1e9)"><g fill="#000000" fill-opacity="1"><g transform="translate(0.37878, 267.448491)"><g><path d="M 96.671875 -192.546875 C 114.347656 -192.546875 129.300781 -189.644531 141.53125 -183.84375 C 153.757812 -178.039062 163.664062 -170.363281 171.25 -160.8125 C 178.84375 -151.257812 184.332031 -140.367188 187.71875 -128.140625 C 191.113281 -115.910156 192.8125 -103.367188 192.8125 -90.515625 C 192.8125 -76.585938 190.976562 -63.421875 187.3125 -51.015625 C 183.65625 -38.609375 177.898438 -27.757812 170.046875 -18.46875 C 162.191406 -9.1875 152.0625 -1.867188 139.65625 3.484375 C 127.25 8.835938 112.296875 11.515625 94.796875 11.515625 L 21.421875 11.515625 L 21.421875 -192.546875 Z M 57.578125 -20.359375 L 92.65625 -20.359375 C 112.832031 -20.359375 128.5 -26.378906 139.65625 -38.421875 C 150.8125 -50.472656 156.390625 -67.925781 156.390625 -90.78125 C 156.390625 -99.707031 155.273438 -108.363281 153.046875 -116.75 C 150.816406 -125.144531 147.15625 -132.597656 142.0625 -139.109375 C 136.976562 -145.628906 130.375 -150.851562 122.25 -154.78125 C 114.125 -158.707031 104.171875 -160.671875 92.390625 -160.671875 L 57.578125 -160.671875 Z M 57.578125 -20.359375 "/></g></g></g><g fill="#000000" fill-opacity="1"><g transform="translate(166.677052, 267.448491)"><g><path d="M 49.28125 -90.515625 C 49.28125 -80.515625 50.484375 -70.960938 52.890625 -61.859375 C 55.296875 -52.753906 58.953125 -44.804688 63.859375 -38.015625 C 68.773438 -31.234375 74.890625 -25.832031 82.203125 -21.8125 C 89.523438 -17.800781 98.097656 -15.796875 107.921875 -15.796875 C 117.921875 -15.796875 126.625 -17.757812 134.03125 -21.6875 C 141.4375 -25.613281 147.59375 -31.015625 152.5 -37.890625 C 157.414062 -44.765625 161.078125 -52.707031 163.484375 -61.71875 C 165.898438 -70.738281 167.109375 -80.335938 167.109375 -90.515625 C 167.109375 -100.515625 165.859375 -110.019531 163.359375 -119.03125 C 160.859375 -128.050781 157.109375 -136 152.109375 -142.875 C 147.109375 -149.75 140.945312 -155.191406 133.625 -159.203125 C 126.3125 -163.222656 117.742188 -165.234375 107.921875 -165.234375 C 98.097656 -165.234375 89.523438 -163.222656 82.203125 -159.203125 C 74.890625 -155.191406 68.773438 -149.789062 63.859375 -143 C 58.953125 -136.21875 55.296875 -128.316406 52.890625 -119.296875 C 50.484375 -110.285156 49.28125 -100.691406 49.28125 -90.515625 Z M 13.125 -90.515625 C 13.125 -104.265625 14.953125 -117.566406 18.609375 -130.421875 C 22.273438 -143.273438 27.988281 -154.65625 35.75 -164.5625 C 43.519531 -174.46875 53.335938 -182.410156 65.203125 -188.390625 C 77.078125 -194.367188 91.316406 -197.359375 107.921875 -197.359375 C 124.523438 -197.359375 138.804688 -194.367188 150.765625 -188.390625 C 162.734375 -182.410156 172.597656 -174.46875 180.359375 -164.5625 C 188.128906 -154.65625 193.84375 -143.273438 197.5 -130.421875 C 201.15625 -117.566406 202.984375 -104.265625 202.984375 -90.515625 C 202.984375 -76.765625 201.195312 -63.460938 197.625 -50.609375 C 194.0625 -37.753906 188.441406 -26.375 180.765625 -16.46875 C 173.085938 -6.5625 163.222656 1.332031 151.171875 7.21875 C 139.117188 13.113281 124.703125 16.0625 107.921875 16.0625 C 91.316406 16.0625 77.03125 13.070312 65.0625 7.09375 C 53.101562 1.113281 43.285156 -6.875 35.609375 -16.875 C 27.941406 -26.875 22.273438 -38.253906 18.609375 -51.015625 C 14.953125 -63.773438 13.125 -76.941406 13.125 -90.515625 Z M 13.125 -90.515625 "/></g></g></g><g fill="#000000" fill-opacity="1"><g transform="translate(344.22265, 267.448491)"><g><path d="M 13.125 -90.78125 C 13.125 -104.707031 14.863281 -118.097656 18.34375 -130.953125 C 21.820312 -143.804688 27.3125 -155.140625 34.8125 -164.953125 C 42.3125 -174.773438 51.992188 -182.628906 63.859375 -188.515625 C 75.734375 -194.410156 89.972656 -197.359375 106.578125 -197.359375 C 118.359375 -197.359375 128.976562 -195.796875 138.4375 -192.671875 C 147.90625 -189.554688 156.164062 -185.363281 163.21875 -180.09375 C 170.269531 -174.820312 176.160156 -168.75 180.890625 -161.875 C 185.628906 -155.007812 189.25 -147.738281 191.75 -140.0625 L 155.046875 -134.4375 C 150.054688 -144.613281 143.628906 -152.289062 135.765625 -157.46875 C 127.910156 -162.644531 118.179688 -165.234375 106.578125 -165.234375 C 88.910156 -165.234375 74.941406 -158.804688 64.671875 -145.953125 C 54.410156 -133.097656 49.28125 -114.707031 49.28125 -90.78125 C 49.28125 -79.351562 50.617188 -69.039062 53.296875 -59.84375 C 55.972656 -50.65625 59.8125 -42.800781 64.8125 -36.28125 C 69.8125 -29.769531 75.835938 -24.726562 82.890625 -21.15625 C 89.941406 -17.582031 97.835938 -15.796875 106.578125 -15.796875 C 118.898438 -15.796875 129.125 -18.5625 137.25 -24.09375 C 145.375 -29.632812 151.664062 -37.582031 156.125 -47.9375 L 192.28125 -42.578125 C 189.425781 -34.191406 185.539062 -26.425781 180.625 -19.28125 C 175.71875 -12.132812 169.738281 -5.972656 162.6875 -0.796875 C 155.632812 4.378906 147.460938 8.484375 138.171875 11.515625 C 128.890625 14.546875 118.359375 16.0625 106.578125 16.0625 C 90.335938 16.0625 76.320312 13.203125 64.53125 7.484375 C 52.75 1.773438 43.066406 -5.984375 35.484375 -15.796875 C 27.898438 -25.617188 22.273438 -37 18.609375 -49.9375 C 14.953125 -62.882812 13.125 -76.5 13.125 -90.78125 Z M 13.125 -90.78125 "/></g></g></g><g fill="#000000" fill-opacity="1"><g transform="translate(508.378575, 267.448491)"><g><path d="M 57.046875 -192.546875 L 57.046875 -70.15625 C 57.046875 -62.476562 57.9375 -55.335938 59.71875 -48.734375 C 61.5 -42.128906 64.351562 -36.375 68.28125 -31.46875 C 72.21875 -26.5625 77.175781 -22.722656 83.15625 -19.953125 C 89.132812 -17.179688 96.40625 -15.796875 104.96875 -15.796875 C 121.570312 -15.796875 133.710938 -20.613281 141.390625 -30.25 C 149.066406 -39.894531 152.90625 -53.195312 152.90625 -70.15625 L 152.90625 -192.546875 L 189.0625 -192.546875 L 189.0625 -69.625 C 189.0625 -54.988281 187.007812 -42.269531 182.90625 -31.46875 C 178.800781 -20.664062 173.039062 -11.78125 165.625 -4.8125 C 158.21875 2.144531 149.378906 7.363281 139.109375 10.84375 C 128.847656 14.320312 117.46875 16.0625 104.96875 16.0625 C 92.476562 16.0625 81.054688 14.320312 70.703125 10.84375 C 60.347656 7.363281 51.507812 2.097656 44.1875 -4.953125 C 36.863281 -12.003906 31.148438 -20.929688 27.046875 -31.734375 C 22.941406 -42.535156 20.890625 -55.164062 20.890625 -69.625 L 20.890625 -192.546875 Z M 57.046875 -192.546875 "/></g></g></g><g fill="#000000" fill-opacity="1"><g transform="translate(679.76494, 267.448491)"><g><path d="M 72.03125 -192.546875 L 137.109375 -35.890625 L 137.375 -35.890625 L 201.65625 -192.546875 L 252.265625 -192.546875 L 252.265625 11.515625 L 216.109375 11.515625 L 216.109375 -134.703125 L 215.578125 -134.703125 L 155.046875 11.515625 L 119.703125 11.515625 L 58.109375 -134.703125 L 57.578125 -134.703125 L 57.578125 11.515625 L 21.421875 11.515625 L 21.421875 -192.546875 Z M 72.03125 -192.546875 "/></g></g></g><g fill="#000000" fill-opacity="1"><g transform="translate(914.886089, 267.448491)"><g><path d="M 176.484375 -192.546875 L 176.484375 -160.671875 L 57.578125 -160.671875 L 57.578125 -108.71875 L 164.6875 -108.71875 L 164.6875 -76.59375 L 57.578125 -76.59375 L 57.578125 -20.359375 L 177.546875 -20.359375 L 177.546875 11.515625 L 21.421875 11.515625 L 21.421875 -192.546875 Z M 176.484375 -192.546875 "/></g></g></g><g fill="#000000" fill-opacity="1"><g transform="translate(1068.330274, 267.448491)"><g><path d="M 59.453125 -192.546875 L 160.40625 -45.53125 L 160.953125 -45.53125 L 160.953125 -192.546875 L 197.09375 -192.546875 L 197.09375 11.515625 L 159.078125 11.515625 L 58.109375 -135.5 L 57.84375 -135.765625 L 57.84375 11.515625 L 21.421875 11.515625 L 21.421875 -192.546875 Z M 59.453125 -192.546875 "/></g></g></g><g fill="#000000" fill-opacity="1"><g transform="translate(1248.286064, 267.448491)"><g><path d="M 165.765625 -192.546875 L 165.765625 -160.671875 L 101.5 -160.671875 L 101.5 11.515625 L 65.34375 11.515625 L 65.34375 -160.671875 L 1.34375 -160.671875 L 1.34375 -192.546875 Z M 165.765625 -192.546875 "/></g></g></g><g fill="#000000" fill-opacity="1"><g transform="translate(1376.825372, 267.448491)"><g><path d="M 50.078125 -48.203125 C 55.429688 -36.421875 62.125 -28.070312 70.15625 -23.15625 C 78.195312 -18.25 87.570312 -15.796875 98.28125 -15.796875 C 104.351562 -15.796875 109.707031 -16.554688 114.34375 -18.078125 C 118.988281 -19.597656 122.828125 -21.601562 125.859375 -24.09375 C 128.898438 -26.59375 131.175781 -29.316406 132.6875 -32.265625 C 134.207031 -35.210938 134.96875 -38.203125 134.96875 -41.234375 C 134.96875 -45.523438 133.492188 -49.410156 130.546875 -52.890625 C 127.597656 -56.367188 123.894531 -59.488281 119.4375 -62.25 C 114.976562 -65.019531 110.15625 -67.476562 104.96875 -69.625 C 99.789062 -71.769531 94.972656 -73.644531 90.515625 -75.25 C 65.523438 -83.457031 46.820312 -92.289062 34.40625 -101.75 C 22 -111.21875 15.796875 -123.09375 15.796875 -137.375 C 15.796875 -146.664062 17.9375 -155.054688 22.21875 -162.546875 C 26.507812 -170.046875 32.269531 -176.335938 39.5 -181.421875 C 46.726562 -186.515625 55.03125 -190.441406 64.40625 -193.203125 C 73.78125 -195.972656 83.46875 -197.359375 93.46875 -197.359375 C 112.925781 -197.359375 129.613281 -192.984375 143.53125 -184.234375 C 157.457031 -175.492188 167.367188 -162.734375 173.265625 -145.953125 L 133.625 -140.59375 C 129.519531 -149.164062 123.941406 -155.414062 116.890625 -159.34375 C 109.835938 -163.269531 101.492188 -165.234375 91.859375 -165.234375 C 86.679688 -165.234375 81.90625 -164.609375 77.53125 -163.359375 C 73.15625 -162.109375 69.40625 -160.320312 66.28125 -158 C 63.15625 -155.675781 60.695312 -152.992188 58.90625 -149.953125 C 57.125 -146.921875 56.234375 -143.710938 56.234375 -140.328125 C 56.234375 -132.828125 60.023438 -126.890625 67.609375 -122.515625 C 75.203125 -118.140625 85.875 -113.632812 99.625 -109 C 123.71875 -100.78125 142.367188 -91.582031 155.578125 -81.40625 C 168.796875 -71.226562 175.40625 -59 175.40625 -44.71875 C 175.40625 -36.332031 173.664062 -28.476562 170.1875 -21.15625 C 166.707031 -13.832031 161.660156 -7.40625 155.046875 -1.875 C 148.441406 3.652344 140.226562 8.023438 130.40625 11.234375 C 120.59375 14.453125 109.4375 16.0625 96.9375 16.0625 C 75.875 16.0625 57.929688 11.148438 43.109375 1.328125 C 28.296875 -8.484375 17.140625 -23.117188 9.640625 -42.578125 Z M 50.078125 -48.203125 "/></g></g></g></g></g></svg>