<svg xmlns="http://www.w3.org/2000/svg" xmlns:xlink="http://www.w3.org/1999/xlink" viewBox="205 900 1525 330" preserveAspectRatio="xMidYMid meet" version="1.0"><metadata/><defs><g/></defs><g fill="#000000" fill-opacity="1"><g transform="translate(225.24074, 1185.483575)"><g><path d="M 109.109375 -253.078125 L 161.90625 -253.078125 L 267.15625 15.140625 L 217.171875 15.140625 L 192.890625 -47.875 L 76.03125 -47.875 L 51.390625 15.140625 L 1.765625 15.140625 Z M 92.578125 -90.109375 L 176.703125 -90.109375 L 135.515625 -198.875 L 135.15625 -198.875 Z M 92.578125 -90.109375 "/></g></g></g><g fill="#000000" fill-opacity="1"><g transform="translate(443.117365, 1185.483575)"><g><path d="M 138.6875 -253.078125 C 155.113281 -253.078125 169.25 -251.140625 181.09375 -247.265625 C 192.945312 -243.398438 202.6875 -238.0625 210.3125 -231.25 C 217.9375 -224.445312 223.566406 -216.351562 227.203125 -206.96875 C 230.835938 -197.582031 232.65625 -187.492188 232.65625 -176.703125 C 232.65625 -171.765625 231.832031 -166.304688 230.1875 -160.328125 C 228.550781 -154.347656 225.972656 -148.421875 222.453125 -142.546875 C 218.929688 -136.679688 214.472656 -131.164062 209.078125 -126 C 203.679688 -120.84375 197.347656 -116.625 190.078125 -113.34375 L 190.078125 -112.984375 C 201.097656 -108.523438 209.894531 -101.660156 216.46875 -92.390625 C 223.039062 -83.128906 226.910156 -70.988281 228.078125 -55.96875 C 229.253906 -42.351562 231.304688 -29.5625 234.234375 -17.59375 C 237.171875 -5.625 240.632812 5.285156 244.625 15.140625 L 194.640625 15.140625 C 191.359375 8.328125 188.78125 -0.117188 186.90625 -10.203125 C 185.03125 -20.296875 183.382812 -33.671875 181.96875 -50.328125 C 181.03125 -62.066406 176.984375 -71.925781 169.828125 -79.90625 C 162.671875 -87.882812 152.054688 -91.875 137.984375 -91.875 L 80.953125 -91.875 L 80.953125 15.140625 L 33.4375 15.140625 L 33.4375 -253.078125 Z M 80.953125 -134.109375 L 134.8125 -134.109375 C 151 -134.109375 163.375 -137.863281 171.9375 -145.375 C 180.507812 -152.882812 184.796875 -162.269531 184.796875 -173.53125 C 184.796875 -185.03125 180.628906 -194.179688 172.296875 -200.984375 C 163.960938 -207.785156 151 -211.1875 133.40625 -211.1875 L 80.953125 -211.1875 Z M 80.953125 -134.109375 "/></g></g></g><g fill="#000000" fill-opacity="1"><g transform="translate(649.026497, 1185.483575)"><g><path d="M 217.875 -253.078125 L 217.875 -211.1875 L 133.40625 -211.1875 L 133.40625 15.140625 L 85.890625 15.140625 L 85.890625 -211.1875 L 1.765625 -211.1875 L 1.765625 -253.078125 Z M 217.875 -253.078125 "/></g></g></g><g fill="#000000" fill-opacity="1"><g transform="translate(817.977477, 1185.483575)"><g><path d="M 76.03125 -253.078125 L 76.03125 15.140625 L 28.15625 15.140625 L 28.15625 -253.078125 Z M 76.03125 -253.078125 "/></g></g></g><g fill="#000000" fill-opacity="1"><g transform="translate(871.126079, 1185.483575)"><g><path d="M 17.25 -119.328125 C 17.25 -137.628906 19.535156 -155.226562 24.109375 -172.125 C 28.679688 -189.019531 35.894531 -203.921875 45.75 -216.828125 C 55.613281 -229.734375 68.347656 -240.054688 83.953125 -247.796875 C 99.554688 -255.535156 118.269531 -259.40625 140.09375 -259.40625 C 155.582031 -259.40625 169.539062 -257.351562 181.96875 -253.25 C 194.40625 -249.144531 205.257812 -243.628906 214.53125 -236.703125 C 223.800781 -229.785156 231.546875 -221.804688 237.765625 -212.765625 C 243.984375 -203.734375 248.734375 -194.175781 252.015625 -184.09375 L 203.796875 -176.703125 C 197.222656 -190.078125 188.773438 -200.164062 178.453125 -206.96875 C 168.128906 -213.769531 155.34375 -217.171875 140.09375 -217.171875 C 116.863281 -217.171875 98.5 -208.722656 85 -191.828125 C 71.507812 -174.929688 64.765625 -150.765625 64.765625 -119.328125 C 64.765625 -104.304688 66.523438 -90.753906 70.046875 -78.671875 C 73.566406 -66.585938 78.609375 -56.257812 85.171875 -47.6875 C 91.742188 -39.125 99.664062 -32.492188 108.9375 -27.796875 C 118.207031 -23.109375 128.59375 -20.765625 140.09375 -20.765625 C 156.28125 -20.765625 169.710938 -24.398438 180.390625 -31.671875 C 191.066406 -38.953125 199.335938 -49.394531 205.203125 -63 L 252.71875 -55.96875 C 248.96875 -44.9375 243.863281 -34.726562 237.40625 -25.34375 C 230.957031 -15.957031 223.097656 -7.859375 213.828125 -1.046875 C 204.554688 5.753906 193.820312 11.148438 181.625 15.140625 C 169.425781 19.128906 155.582031 21.125 140.09375 21.125 C 118.738281 21.125 100.316406 17.367188 84.828125 9.859375 C 69.335938 2.347656 56.601562 -7.859375 46.625 -20.765625 C 36.65625 -33.671875 29.265625 -48.628906 24.453125 -65.640625 C 19.648438 -82.648438 17.25 -100.546875 17.25 -119.328125 Z M 17.25 -119.328125 "/></g></g></g><g fill="#000000" fill-opacity="1"><g transform="translate(1086.890833, 1185.483575)"><g><path d="M 109.109375 -253.078125 L 161.90625 -253.078125 L 267.15625 15.140625 L 217.171875 15.140625 L 192.890625 -47.875 L 76.03125 -47.875 L 51.390625 15.140625 L 1.765625 15.140625 Z M 92.578125 -90.109375 L 176.703125 -90.109375 L 135.515625 -198.875 L 135.15625 -198.875 Z M 92.578125 -90.109375 "/></g></g></g><g fill="#000000" fill-opacity="1"><g transform="translate(1304.767414, 1185.483575)"><g><path d="M 75.671875 -253.078125 L 75.671875 -26.75 L 216.46875 -26.75 L 216.46875 15.140625 L 28.15625 15.140625 L 28.15625 -253.078125 Z M 75.671875 -253.078125 "/></g></g></g><g fill="#000000" fill-opacity="1"><g transform="translate(1477.942181, 1185.483575)"><g><path d="M 65.828125 -63.359375 C 72.859375 -47.867188 81.65625 -36.894531 92.21875 -30.4375 C 102.78125 -23.988281 115.097656 -20.765625 129.171875 -20.765625 C 137.148438 -20.765625 144.191406 -21.757812 150.296875 -23.75 C 156.398438 -25.75 161.445312 -28.390625 165.4375 -31.671875 C 169.425781 -34.960938 172.414062 -38.539062 174.40625 -42.40625 C 176.40625 -46.28125 177.40625 -50.210938 177.40625 -54.203125 C 177.40625 -59.835938 175.46875 -64.941406 171.59375 -69.515625 C 167.71875 -74.085938 162.847656 -78.191406 156.984375 -81.828125 C 151.117188 -85.472656 144.78125 -88.703125 137.96875 -91.515625 C 131.164062 -94.328125 124.832031 -96.789062 118.96875 -98.90625 C 86.113281 -109.695312 61.53125 -121.3125 45.21875 -133.75 C 28.914062 -146.1875 20.765625 -161.789062 20.765625 -180.5625 C 20.765625 -192.769531 23.578125 -203.800781 29.203125 -213.65625 C 34.835938 -223.507812 42.40625 -231.78125 51.90625 -238.46875 C 61.414062 -245.15625 72.328125 -250.316406 84.640625 -253.953125 C 96.960938 -257.585938 109.695312 -259.40625 122.84375 -259.40625 C 148.414062 -259.40625 170.351562 -253.65625 188.65625 -242.15625 C 206.96875 -230.664062 219.992188 -213.890625 227.734375 -191.828125 L 175.640625 -184.796875 C 170.242188 -196.054688 162.910156 -204.265625 153.640625 -209.421875 C 144.367188 -214.585938 133.398438 -217.171875 120.734375 -217.171875 C 113.921875 -217.171875 107.640625 -216.347656 101.890625 -214.703125 C 96.148438 -213.066406 91.222656 -210.722656 87.109375 -207.671875 C 83.003906 -204.617188 79.78125 -201.097656 77.4375 -197.109375 C 75.09375 -193.117188 73.921875 -188.894531 73.921875 -184.4375 C 73.921875 -174.582031 78.90625 -166.78125 88.875 -161.03125 C 98.84375 -155.28125 112.863281 -149.351562 130.9375 -143.25 C 162.613281 -132.457031 187.132812 -120.375 204.5 -107 C 221.863281 -93.625 230.546875 -77.550781 230.546875 -58.78125 C 230.546875 -47.75 228.257812 -37.421875 223.6875 -27.796875 C 219.113281 -18.179688 212.484375 -9.734375 203.796875 -2.453125 C 195.117188 4.816406 184.328125 10.5625 171.421875 14.78125 C 158.515625 19.007812 143.847656 21.125 127.421875 21.125 C 99.734375 21.125 76.148438 14.671875 56.671875 1.765625 C 37.191406 -11.140625 22.523438 -30.382812 12.671875 -55.96875 Z M 65.828125 -63.359375 "/></g></g></g></svg>