<svg xmlns="http://www.w3.org/2000/svg" xmlns:xlink="http://www.w3.org/1999/xlink" viewBox="260 900 1030 330" preserveAspectRatio="xMidYMid meet" version="1.0"><metadata/><defs><g/></defs><g fill="#000000" fill-opacity="1"><g transform="translate(258.846896, 1185.483575)"><g><path d="M 75.671875 -253.078125 L 75.671875 -142.90625 L 205.90625 -142.90625 L 205.90625 -253.078125 L 253.421875 -253.078125 L 253.421875 15.140625 L 205.90625 15.140625 L 205.90625 -100.671875 L 75.671875 -100.671875 L 75.671875 15.140625 L 28.15625 15.140625 L 28.15625 -253.078125 Z M 75.671875 -253.078125 "/></g></g></g><g fill="#000000" fill-opacity="1"><g transform="translate(489.74692, 1185.483575)"><g><path d="M 64.765625 -118.96875 C 64.765625 -105.832031 66.347656 -93.28125 69.515625 -81.3125 C 72.679688 -69.34375 77.488281 -58.898438 83.9375 -49.984375 C 90.394531 -41.066406 98.429688 -33.96875 108.046875 -28.6875 C 117.671875 -23.40625 128.9375 -20.765625 141.84375 -20.765625 C 154.988281 -20.765625 166.429688 -23.34375 176.171875 -28.5 C 185.910156 -33.664062 194.003906 -40.765625 200.453125 -49.796875 C 206.910156 -58.835938 211.722656 -69.28125 214.890625 -81.125 C 218.054688 -92.976562 219.640625 -105.59375 219.640625 -118.96875 C 219.640625 -132.113281 217.992188 -144.609375 214.703125 -156.453125 C 211.421875 -168.304688 206.492188 -178.75 199.921875 -187.78125 C 193.359375 -196.8125 185.265625 -203.96875 175.640625 -209.25 C 166.015625 -214.53125 154.75 -217.171875 141.84375 -217.171875 C 128.9375 -217.171875 117.671875 -214.53125 108.046875 -209.25 C 98.429688 -203.96875 90.394531 -196.867188 83.9375 -187.953125 C 77.488281 -179.035156 72.679688 -168.648438 69.515625 -156.796875 C 66.347656 -144.953125 64.765625 -132.34375 64.765625 -118.96875 Z M 17.25 -118.96875 C 17.25 -137.039062 19.648438 -154.523438 24.453125 -171.421875 C 29.265625 -188.316406 36.773438 -203.273438 46.984375 -216.296875 C 57.191406 -229.316406 70.097656 -239.753906 85.703125 -247.609375 C 101.304688 -255.472656 120.019531 -259.40625 141.84375 -259.40625 C 163.664062 -259.40625 182.4375 -255.472656 198.15625 -247.609375 C 213.882812 -239.753906 226.851562 -229.316406 237.0625 -216.296875 C 247.269531 -203.273438 254.773438 -188.316406 259.578125 -171.421875 C 264.390625 -154.523438 266.796875 -137.039062 266.796875 -118.96875 C 266.796875 -100.90625 264.445312 -83.425781 259.75 -66.53125 C 255.0625 -49.632812 247.671875 -34.671875 237.578125 -21.640625 C 227.492188 -8.617188 214.53125 1.757812 198.6875 9.5 C 182.851562 17.25 163.90625 21.125 141.84375 21.125 C 120.019531 21.125 101.25 17.191406 85.53125 9.328125 C 69.8125 1.460938 56.90625 -9.035156 46.8125 -22.171875 C 36.71875 -35.316406 29.265625 -50.273438 24.453125 -67.046875 C 19.648438 -83.828125 17.25 -101.132812 17.25 -118.96875 Z M 17.25 -118.96875 "/></g></g></g><g fill="#000000" fill-opacity="1"><g transform="translate(723.110815, 1185.483575)"><g><path d="M 94.6875 -253.078125 L 180.21875 -47.171875 L 180.5625 -47.171875 L 265.046875 -253.078125 L 331.5625 -253.078125 L 331.5625 15.140625 L 284.046875 15.140625 L 284.046875 -177.046875 L 283.34375 -177.046875 L 203.796875 15.140625 L 157.34375 15.140625 L 76.375 -177.046875 L 75.671875 -177.046875 L 75.671875 15.140625 L 28.15625 15.140625 L 28.15625 -253.078125 Z M 94.6875 -253.078125 "/></g></g></g><g fill="#000000" fill-opacity="1"><g transform="translate(1032.15097, 1185.483575)"><g><path d="M 231.953125 -253.078125 L 231.953125 -211.1875 L 75.671875 -211.1875 L 75.671875 -142.90625 L 216.46875 -142.90625 L 216.46875 -100.671875 L 75.671875 -100.671875 L 75.671875 -26.75 L 233.359375 -26.75 L 233.359375 15.140625 L 28.15625 15.140625 L 28.15625 -253.078125 Z M 231.953125 -253.078125 "/></g></g></g></svg>