<svg xmlns="http://www.w3.org/2000/svg" xmlns:xlink="http://www.w3.org/1999/xlink" viewBox="470 960 1295 330" preserveAspectRatio="xMidYMid meet" version="1.0"><metadata/><defs><g/></defs><g fill="#000000" fill-opacity="1"><g transform="translate(491.778503, 1247.818476)"><g><path d="M 76.03125 -253.078125 L 76.03125 15.140625 L 28.15625 15.140625 L 28.15625 -253.078125 Z M 76.03125 -253.078125 "/></g></g></g><g fill="#000000" fill-opacity="1"><g transform="translate(544.927117, 1247.818476)"><g><path d="M 94.6875 -253.078125 L 180.21875 -47.171875 L 180.5625 -47.171875 L 265.046875 -253.078125 L 331.5625 -253.078125 L 331.5625 15.140625 L 284.046875 15.140625 L 284.046875 -177.046875 L 283.34375 -177.046875 L 203.796875 15.140625 L 157.34375 15.140625 L 76.375 -177.046875 L 75.671875 -177.046875 L 75.671875 15.140625 L 28.15625 15.140625 L 28.15625 -253.078125 Z M 94.6875 -253.078125 "/></g></g></g><g fill="#000000" fill-opacity="1"><g transform="translate(853.967272, 1247.818476)"><g><path d="M 109.109375 -253.078125 L 161.90625 -253.078125 L 267.15625 15.140625 L 217.171875 15.140625 L 192.890625 -47.875 L 76.03125 -47.875 L 51.390625 15.140625 L 1.765625 15.140625 Z M 92.578125 -90.109375 L 176.703125 -90.109375 L 135.515625 -198.875 L 135.15625 -198.875 Z M 92.578125 -90.109375 "/></g></g></g><g fill="#000000" fill-opacity="1"><g transform="translate(1071.843897, 1247.818476)"><g><path d="M 19.359375 -119.328125 C 19.359375 -139.503906 22.234375 -158.15625 27.984375 -175.28125 C 33.734375 -192.414062 42.003906 -207.203125 52.796875 -219.640625 C 63.585938 -232.078125 76.726562 -241.8125 92.21875 -248.84375 C 107.707031 -255.882812 125.191406 -259.40625 144.671875 -259.40625 C 161.085938 -259.40625 175.335938 -257.410156 187.421875 -253.421875 C 199.515625 -249.429688 209.898438 -243.972656 218.578125 -237.046875 C 227.265625 -230.128906 234.597656 -222.210938 240.578125 -213.296875 C 246.566406 -204.378906 251.671875 -194.992188 255.890625 -185.140625 L 206.609375 -178.109375 C 200.046875 -191.484375 191.660156 -201.335938 181.453125 -207.671875 C 171.242188 -214.003906 158.984375 -217.171875 144.671875 -217.171875 C 133.171875 -217.171875 122.664062 -214.820312 113.15625 -210.125 C 103.65625 -205.4375 95.503906 -198.8125 88.703125 -190.25 C 81.898438 -181.6875 76.617188 -171.421875 72.859375 -159.453125 C 69.109375 -147.484375 67.234375 -134.109375 67.234375 -119.328125 C 67.234375 -104.304688 69.109375 -90.753906 72.859375 -78.671875 C 76.617188 -66.585938 81.84375 -56.257812 88.53125 -47.6875 C 95.21875 -39.125 103.132812 -32.492188 112.28125 -27.796875 C 121.4375 -23.109375 131.523438 -20.765625 142.546875 -20.765625 C 151.941406 -20.765625 160.625 -22.289062 168.59375 -25.34375 C 176.570312 -28.394531 183.613281 -32.441406 189.71875 -37.484375 C 195.820312 -42.523438 200.925781 -48.507812 205.03125 -55.4375 C 209.132812 -62.363281 212.007812 -69.695312 213.65625 -77.4375 L 213.65625 -93.984375 L 146.078125 -93.984375 L 146.078125 -135.859375 L 261.171875 -135.859375 L 261.171875 15.140625 L 219.28125 15.140625 L 219.28125 -24.984375 C 211.769531 -10.910156 200.972656 0.289062 186.890625 8.625 C 172.816406 16.957031 155.925781 21.125 136.21875 21.125 C 120.726562 21.125 105.882812 17.953125 91.6875 11.609375 C 77.488281 5.273438 65.050781 -3.875 54.375 -15.84375 C 43.695312 -27.8125 35.191406 -42.476562 28.859375 -59.84375 C 22.523438 -77.207031 19.359375 -97.035156 19.359375 -119.328125 Z M 19.359375 -119.328125 "/></g></g></g><g fill="#000000" fill-opacity="1"><g transform="translate(1308.375576, 1247.818476)"><g><path d="M 231.953125 -253.078125 L 231.953125 -211.1875 L 75.671875 -211.1875 L 75.671875 -142.90625 L 216.46875 -142.90625 L 216.46875 -100.671875 L 75.671875 -100.671875 L 75.671875 -26.75 L 233.359375 -26.75 L 233.359375 15.140625 L 28.15625 15.140625 L 28.15625 -253.078125 Z M 231.953125 -253.078125 "/></g></g></g><g fill="#000000" fill-opacity="1"><g transform="translate(1510.060928, 1247.818476)"><g><path d="M 65.828125 -63.359375 C 72.859375 -47.867188 81.65625 -36.894531 92.21875 -30.4375 C 102.78125 -23.988281 115.097656 -20.765625 129.171875 -20.765625 C 137.148438 -20.765625 144.191406 -21.757812 150.296875 -23.75 C 156.398438 -25.75 161.445312 -28.390625 165.4375 -31.671875 C 169.425781 -34.960938 172.414062 -38.539062 174.40625 -42.40625 C 176.40625 -46.28125 177.40625 -50.210938 177.40625 -54.203125 C 177.40625 -59.835938 175.46875 -64.941406 171.59375 -69.515625 C 167.71875 -74.085938 162.847656 -78.191406 156.984375 -81.828125 C 151.117188 -85.472656 144.78125 -88.703125 137.96875 -91.515625 C 131.164062 -94.328125 124.832031 -96.789062 118.96875 -98.90625 C 86.113281 -109.695312 61.53125 -121.3125 45.21875 -133.75 C 28.914062 -146.1875 20.765625 -161.789062 20.765625 -180.5625 C 20.765625 -192.769531 23.578125 -203.800781 29.203125 -213.65625 C 34.835938 -223.507812 42.40625 -231.78125 51.90625 -238.46875 C 61.414062 -245.15625 72.328125 -250.316406 84.640625 -253.953125 C 96.960938 -257.585938 109.695312 -259.40625 122.84375 -259.40625 C 148.414062 -259.40625 170.351562 -253.65625 188.65625 -242.15625 C 206.96875 -230.664062 219.992188 -213.890625 227.734375 -191.828125 L 175.640625 -184.796875 C 170.242188 -196.054688 162.910156 -204.265625 153.640625 -209.421875 C 144.367188 -214.585938 133.398438 -217.171875 120.734375 -217.171875 C 113.921875 -217.171875 107.640625 -216.347656 101.890625 -214.703125 C 96.148438 -213.066406 91.222656 -210.722656 87.109375 -207.671875 C 83.003906 -204.617188 79.78125 -201.097656 77.4375 -197.109375 C 75.09375 -193.117188 73.921875 -188.894531 73.921875 -184.4375 C 73.921875 -174.582031 78.90625 -166.78125 88.875 -161.03125 C 98.84375 -155.28125 112.863281 -149.351562 130.9375 -143.25 C 162.613281 -132.457031 187.132812 -120.375 204.5 -107 C 221.863281 -93.625 230.546875 -77.550781 230.546875 -58.78125 C 230.546875 -47.75 228.257812 -37.421875 223.6875 -27.796875 C 219.113281 -18.179688 212.484375 -9.734375 203.796875 -2.453125 C 195.117188 4.816406 184.328125 10.5625 171.421875 14.78125 C 158.515625 19.007812 143.847656 21.125 127.421875 21.125 C 99.734375 21.125 76.148438 14.671875 56.671875 1.765625 C 37.191406 -11.140625 22.523438 -30.382812 12.671875 -55.96875 Z M 65.828125 -63.359375 "/></g></g></g></svg>