<svg xmlns="http://www.w3.org/2000/svg" xmlns:xlink="http://www.w3.org/1999/xlink" viewBox="785 960 670 330" preserveAspectRatio="xMidYMid meet" version="1.0"><metadata/><defs><g/></defs><g fill="#000000" fill-opacity="1"><g transform="translate(804.330982, 1247.818476)"><g><path d="M 75.671875 -253.078125 L 75.671875 -26.75 L 216.46875 -26.75 L 216.46875 15.140625 L 28.15625 15.140625 L 28.15625 -253.078125 Z M 75.671875 -253.078125 "/></g></g></g><g fill="#000000" fill-opacity="1"><g transform="translate(977.505756, 1247.818476)"><g><path d="M 109.109375 -253.078125 L 161.90625 -253.078125 L 267.15625 15.140625 L 217.171875 15.140625 L 192.890625 -47.875 L 76.03125 -47.875 L 51.390625 15.140625 L 1.765625 15.140625 Z M 92.578125 -90.109375 L 176.703125 -90.109375 L 135.515625 -198.875 L 135.15625 -198.875 Z M 92.578125 -90.109375 "/></g></g></g><g fill="#000000" fill-opacity="1"><g transform="translate(1195.382427, 1247.818476)"><g><path d="M 126.359375 -253.078125 C 144.898438 -253.078125 160.5625 -251.492188 173.34375 -248.328125 C 186.132812 -245.160156 196.460938 -240.523438 204.328125 -234.421875 C 212.191406 -228.316406 217.878906 -220.921875 221.390625 -212.234375 C 224.910156 -203.554688 226.671875 -193.585938 226.671875 -182.328125 C 226.671875 -167.078125 222.625 -154.347656 214.53125 -144.140625 C 206.4375 -133.929688 196.054688 -126.476562 183.390625 -121.78125 C 200.984375 -117.789062 214.0625 -110.28125 222.625 -99.25 C 231.195312 -88.226562 235.484375 -75.5625 235.484375 -61.25 C 235.484375 -34.96875 227.328125 -15.664062 211.015625 -3.34375 C 194.703125 8.976562 169.769531 15.140625 136.21875 15.140625 L 28.15625 15.140625 L 28.15625 -253.078125 Z M 76.03125 -26.75 L 126.359375 -26.75 C 147.015625 -26.75 162.382812 -29.625 172.46875 -35.375 C 182.5625 -41.125 187.609375 -50.566406 187.609375 -63.703125 C 187.609375 -70.984375 186.140625 -76.96875 183.203125 -81.65625 C 180.273438 -86.351562 176.050781 -89.988281 170.53125 -92.5625 C 165.019531 -95.144531 158.507812 -96.960938 151 -98.015625 C 143.488281 -99.078125 135.160156 -99.609375 126.015625 -99.609375 L 76.03125 -99.609375 Z M 76.03125 -141.84375 L 121.78125 -141.84375 C 138.675781 -141.84375 152.460938 -144.660156 163.140625 -150.296875 C 173.816406 -155.929688 179.15625 -164.734375 179.15625 -176.703125 C 179.15625 -189.128906 174.34375 -197.984375 164.71875 -203.265625 C 155.101562 -208.546875 140.675781 -211.1875 121.4375 -211.1875 L 76.03125 -211.1875 Z M 76.03125 -141.84375 "/></g></g></g></svg>