<svg xmlns="http://www.w3.org/2000/svg" xmlns:xlink="http://www.w3.org/1999/xlink" viewBox="260 900 1025 330" preserveAspectRatio="xMidYMid meet" version="1.0"><metadata/><defs><g/></defs><g fill="#000000" fill-opacity="1"><g transform="translate(282.074853, 1185.483575)"><g><path d="M 64.765625 -118.96875 C 64.765625 -105.832031 66.347656 -93.28125 69.515625 -81.3125 C 72.679688 -69.34375 77.488281 -58.898438 83.9375 -49.984375 C 90.394531 -41.066406 98.429688 -33.96875 108.046875 -28.6875 C 117.671875 -23.40625 128.9375 -20.765625 141.84375 -20.765625 C 154.988281 -20.765625 166.429688 -23.34375 176.171875 -28.5 C 185.910156 -33.664062 194.003906 -40.765625 200.453125 -49.796875 C 206.910156 -58.835938 211.722656 -69.28125 214.890625 -81.125 C 218.054688 -92.976562 219.640625 -105.59375 219.640625 -118.96875 C 219.640625 -132.113281 217.992188 -144.609375 214.703125 -156.453125 C 211.421875 -168.304688 206.492188 -178.75 199.921875 -187.78125 C 193.359375 -196.8125 185.265625 -203.96875 175.640625 -209.25 C 166.015625 -214.53125 154.75 -217.171875 141.84375 -217.171875 C 128.9375 -217.171875 117.671875 -214.53125 108.046875 -209.25 C 98.429688 -203.96875 90.394531 -196.867188 83.9375 -187.953125 C 77.488281 -179.035156 72.679688 -168.648438 69.515625 -156.796875 C 66.347656 -144.953125 64.765625 -132.34375 64.765625 -118.96875 Z M 17.25 -118.96875 C 17.25 -137.039062 19.648438 -154.523438 24.453125 -171.421875 C 29.265625 -188.316406 36.773438 -203.273438 46.984375 -216.296875 C 57.191406 -229.316406 70.097656 -239.753906 85.703125 -247.609375 C 101.304688 -255.472656 120.019531 -259.40625 141.84375 -259.40625 C 163.664062 -259.40625 182.4375 -255.472656 198.15625 -247.609375 C 213.882812 -239.753906 226.851562 -229.316406 237.0625 -216.296875 C 247.269531 -203.273438 254.773438 -188.316406 259.578125 -171.421875 C 264.390625 -154.523438 266.796875 -137.039062 266.796875 -118.96875 C 266.796875 -100.90625 264.445312 -83.425781 259.75 -66.53125 C 255.0625 -49.632812 247.671875 -34.671875 237.578125 -21.640625 C 227.492188 -8.617188 214.53125 1.757812 198.6875 9.5 C 182.851562 17.25 163.90625 21.125 141.84375 21.125 C 120.019531 21.125 101.25 17.191406 85.53125 9.328125 C 69.8125 1.460938 56.90625 -9.035156 46.8125 -22.171875 C 36.71875 -35.316406 29.265625 -50.273438 24.453125 -67.046875 C 19.648438 -83.828125 17.25 -101.132812 17.25 -118.96875 Z M 17.25 -118.96875 "/></g></g></g><g fill="#000000" fill-opacity="1"><g transform="translate(515.438747, 1185.483575)"><g><path d="M 68.640625 -181.96875 L 68.640625 -146.78125 C 72.160156 -152.40625 76.617188 -157.679688 82.015625 -162.609375 C 87.410156 -167.546875 93.332031 -171.769531 99.78125 -175.28125 C 106.238281 -178.800781 113.046875 -181.617188 120.203125 -183.734375 C 127.359375 -185.847656 134.335938 -186.90625 141.140625 -186.90625 L 141.140625 -148.890625 C 135.742188 -148.890625 129.878906 -148.242188 123.546875 -146.953125 C 117.210938 -145.660156 110.757812 -143.546875 104.1875 -140.609375 C 97.613281 -137.679688 91.273438 -133.925781 85.171875 -129.34375 C 79.078125 -124.769531 73.566406 -119.203125 68.640625 -112.640625 L 68.640625 15.140625 L 22.171875 15.140625 L 22.171875 -181.96875 Z M 68.640625 -181.96875 "/></g></g></g><g fill="#000000" fill-opacity="1"><g transform="translate(608.009418, 1185.483575)"><g/></g></g><g fill="#000000" fill-opacity="1"><g transform="translate(682.276944, 1185.483575)"><g><path d="M 109.109375 -253.078125 L 161.90625 -253.078125 L 267.15625 15.140625 L 217.171875 15.140625 L 192.890625 -47.875 L 76.03125 -47.875 L 51.390625 15.140625 L 1.765625 15.140625 Z M 92.578125 -90.109375 L 176.703125 -90.109375 L 135.515625 -198.875 L 135.15625 -198.875 Z M 92.578125 -90.109375 "/></g></g></g><g fill="#000000" fill-opacity="1"><g transform="translate(900.15357, 1185.483575)"><g><path d="M 54.5625 -40.125 C 59.71875 -30.269531 66.285156 -23.460938 74.265625 -19.703125 C 82.242188 -15.953125 91.394531 -14.078125 101.71875 -14.078125 C 112.28125 -14.078125 120.785156 -16.421875 127.234375 -21.109375 C 133.691406 -25.804688 136.921875 -31.441406 136.921875 -38.015625 C 136.921875 -41.765625 135.742188 -45.109375 133.390625 -48.046875 C 131.046875 -50.984375 127.757812 -53.566406 123.53125 -55.796875 C 119.3125 -58.023438 114.445312 -60.132812 108.9375 -62.125 C 103.425781 -64.113281 97.5 -66.164062 91.15625 -68.28125 C 66.050781 -75.5625 47.515625 -83.894531 35.546875 -93.28125 C 23.578125 -102.664062 17.59375 -114.984375 17.59375 -130.234375 C 17.59375 -138.210938 19.53125 -145.722656 23.40625 -152.765625 C 27.28125 -159.804688 32.851562 -165.90625 40.125 -171.0625 C 47.394531 -176.226562 56.015625 -180.273438 65.984375 -183.203125 C 75.960938 -186.140625 87.171875 -187.609375 99.609375 -187.609375 C 120.492188 -187.609375 137.679688 -183.441406 151.171875 -175.109375 C 164.671875 -166.773438 175.054688 -154.398438 182.328125 -137.984375 L 138.6875 -130.59375 C 134.695312 -138.09375 129.472656 -143.484375 123.015625 -146.765625 C 116.566406 -150.054688 108.765625 -151.703125 99.609375 -151.703125 C 88.578125 -151.703125 79.894531 -149.414062 73.5625 -144.84375 C 67.226562 -140.269531 64.0625 -134.929688 64.0625 -128.828125 C 64.0625 -125.066406 65.289062 -121.78125 67.75 -118.96875 C 70.21875 -116.15625 73.445312 -113.691406 77.4375 -111.578125 C 81.425781 -109.460938 85.765625 -107.582031 90.453125 -105.9375 C 95.148438 -104.300781 99.847656 -102.78125 104.546875 -101.375 C 131.992188 -94.5625 152.347656 -86.460938 165.609375 -77.078125 C 178.867188 -67.691406 185.5 -54.671875 185.5 -38.015625 C 185.5 -28.859375 183.441406 -20.582031 179.328125 -13.1875 C 175.222656 -5.800781 169.472656 0.410156 162.078125 5.453125 C 154.691406 10.492188 145.773438 14.363281 135.328125 17.0625 C 124.890625 19.769531 113.21875 21.125 100.3125 21.125 C 91.863281 21.125 83.238281 20.179688 74.4375 18.296875 C 65.644531 16.421875 57.257812 13.429688 49.28125 9.328125 C 41.300781 5.222656 33.96875 -0.113281 27.28125 -6.6875 C 20.59375 -13.257812 15.132812 -21.351562 10.90625 -30.96875 Z M 54.5625 -40.125 "/></g></g></g><g fill="#000000" fill-opacity="1"><g transform="translate(1049.393538, 1185.483575)"><g><path d="M 68.984375 -253.078125 L 68.984375 -103.484375 L 148.1875 -181.96875 L 204.5 -181.96875 L 120.734375 -98.90625 L 210.84375 15.140625 L 156.28125 15.140625 L 89.75 -67.9375 L 68.984375 -47.515625 L 68.984375 15.140625 L 22.171875 15.140625 L 22.171875 -253.078125 Z M 68.984375 -253.078125 "/></g></g></g></svg>