<svg xmlns="http://www.w3.org/2000/svg" xmlns:xlink="http://www.w3.org/1999/xlink" zoomAndPan="magnify" viewBox="328 1416 1660 90" preserveAspectRatio="xMinYMid meet" version="1.0"><metadata/><defs><g/></defs><g fill="#000000" fill-opacity="1"><g transform="translate(305.787223, 967.61834)"><g><path d="M 127.0625 -253.078125 C 150.289062 -253.078125 169.941406 -249.265625 186.015625 -241.640625 C 202.097656 -234.015625 215.125 -223.921875 225.09375 -211.359375 C 235.0625 -198.804688 242.273438 -184.492188 246.734375 -168.421875 C 251.191406 -152.347656 253.421875 -135.863281 253.421875 -118.96875 C 253.421875 -100.664062 251.015625 -83.359375 246.203125 -67.046875 C 241.398438 -50.742188 233.832031 -36.488281 223.5 -24.28125 C 213.175781 -12.082031 199.859375 -2.460938 183.546875 4.578125 C 167.242188 11.617188 147.597656 15.140625 124.609375 15.140625 L 28.15625 15.140625 L 28.15625 -253.078125 Z M 75.671875 -26.75 L 121.78125 -26.75 C 148.300781 -26.75 168.894531 -34.664062 183.5625 -50.5 C 198.226562 -66.34375 205.5625 -89.285156 205.5625 -119.328125 C 205.5625 -131.054688 204.09375 -142.4375 201.15625 -153.46875 C 198.226562 -164.5 193.421875 -174.296875 186.734375 -182.859375 C 180.046875 -191.421875 171.363281 -198.28125 160.6875 -203.4375 C 150.007812 -208.601562 136.925781 -211.1875 121.4375 -211.1875 L 75.671875 -211.1875 Z M 75.671875 -26.75 "/></g></g></g><g fill="#000000" fill-opacity="1"><g transform="translate(524.367755, 967.61834)"><g><path d="M 231.953125 -253.078125 L 231.953125 -211.1875 L 75.671875 -211.1875 L 75.671875 -142.90625 L 216.46875 -142.90625 L 216.46875 -100.671875 L 75.671875 -100.671875 L 75.671875 -26.75 L 233.359375 -26.75 L 233.359375 15.140625 L 28.15625 15.140625 L 28.15625 -253.078125 Z M 231.953125 -253.078125 "/></g></g></g><g fill="#000000" fill-opacity="1"><g transform="translate(726.053152, 967.61834)"><g><path d="M 75.671875 -253.078125 L 75.671875 -26.75 L 216.46875 -26.75 L 216.46875 15.140625 L 28.15625 15.140625 L 28.15625 -253.078125 Z M 75.671875 -253.078125 "/></g></g></g><g fill="#000000" fill-opacity="1"><g transform="translate(899.227919, 967.61834)"><g><path d="M 231.953125 -253.078125 L 231.953125 -211.1875 L 75.671875 -211.1875 L 75.671875 -142.90625 L 216.46875 -142.90625 L 216.46875 -100.671875 L 75.671875 -100.671875 L 75.671875 -26.75 L 233.359375 -26.75 L 233.359375 15.140625 L 28.15625 15.140625 L 28.15625 -253.078125 Z M 231.953125 -253.078125 "/></g></g></g><g fill="#000000" fill-opacity="1"><g transform="translate(1100.913362, 967.61834)"><g><path d="M 231.953125 -253.078125 L 231.953125 -211.1875 L 75.671875 -211.1875 L 75.671875 -142.90625 L 216.46875 -142.90625 L 216.46875 -100.671875 L 75.671875 -100.671875 L 75.671875 -26.75 L 233.359375 -26.75 L 233.359375 15.140625 L 28.15625 15.140625 L 28.15625 -253.078125 Z M 231.953125 -253.078125 "/></g></g></g><g fill="#000000" fill-opacity="1"><g transform="translate(314.094292, 1196.304181)"><g><path d="M 59.203125 -117.90625 C 70.023438 -117.90625 79.179688 -116.128906 86.671875 -112.578125 C 94.160156 -109.023438 100.226562 -104.320312 104.875 -98.46875 C 109.519531 -92.625 112.878906 -85.957031 114.953125 -78.46875 C 117.023438 -70.976562 118.0625 -63.296875 118.0625 -55.421875 C 118.0625 -46.898438 116.941406 -38.835938 114.703125 -31.234375 C 112.460938 -23.640625 108.9375 -17 104.125 -11.3125 C 99.320312 -5.625 93.117188 -1.144531 85.515625 2.125 C 77.921875 5.40625 68.765625 7.046875 58.046875 7.046875 L 13.125 7.046875 L 13.125 -117.90625 Z M 35.25 -12.46875 L 56.734375 -12.46875 C 69.085938 -12.46875 78.679688 -16.15625 85.515625 -23.53125 C 92.347656 -30.90625 95.765625 -41.59375 95.765625 -55.59375 C 95.765625 -61.0625 95.082031 -66.363281 93.71875 -71.5 C 92.351562 -76.632812 90.109375 -81.195312 86.984375 -85.1875 C 83.867188 -89.175781 79.820312 -92.375 74.84375 -94.78125 C 69.875 -97.1875 63.785156 -98.390625 56.578125 -98.390625 L 35.25 -98.390625 Z M 35.25 -12.46875 "/></g></g></g><g fill="#000000" fill-opacity="1"><g transform="translate(415.930982, 1196.304181)"><g><path d="M 30.171875 -55.421875 C 30.171875 -49.304688 30.90625 -43.457031 32.375 -37.875 C 33.851562 -32.300781 36.097656 -27.4375 39.109375 -23.28125 C 42.117188 -19.125 45.863281 -15.816406 50.34375 -13.359375 C 54.820312 -10.898438 60.066406 -9.671875 66.078125 -9.671875 C 72.203125 -9.671875 77.53125 -10.875 82.0625 -13.28125 C 86.601562 -15.6875 90.378906 -18.992188 93.390625 -23.203125 C 96.398438 -27.410156 98.640625 -32.273438 100.109375 -37.796875 C 101.585938 -43.316406 102.328125 -49.191406 102.328125 -55.421875 C 102.328125 -61.546875 101.5625 -67.367188 100.03125 -72.890625 C 98.5 -78.410156 96.203125 -83.273438 93.140625 -87.484375 C 90.078125 -91.691406 86.304688 -95.023438 81.828125 -97.484375 C 77.347656 -99.941406 72.097656 -101.171875 66.078125 -101.171875 C 60.066406 -101.171875 54.820312 -99.941406 50.34375 -97.484375 C 45.863281 -95.023438 42.117188 -91.71875 39.109375 -87.5625 C 36.097656 -83.414062 33.851562 -78.582031 32.375 -73.0625 C 30.90625 -67.539062 30.171875 -61.660156 30.171875 -55.421875 Z M 8.03125 -55.421875 C 8.03125 -63.835938 9.148438 -71.984375 11.390625 -79.859375 C 13.640625 -87.734375 17.140625 -94.703125 21.890625 -100.765625 C 26.648438 -106.835938 32.660156 -111.703125 39.921875 -115.359375 C 47.191406 -119.023438 55.910156 -120.859375 66.078125 -120.859375 C 76.253906 -120.859375 85.003906 -119.023438 92.328125 -115.359375 C 99.648438 -111.703125 105.6875 -106.835938 110.4375 -100.765625 C 115.195312 -94.703125 118.695312 -87.734375 120.9375 -79.859375 C 123.175781 -71.984375 124.296875 -63.835938 124.296875 -55.421875 C 124.296875 -47.003906 123.203125 -38.859375 121.015625 -30.984375 C 118.828125 -23.117188 115.382812 -16.148438 110.6875 -10.078125 C 105.988281 -4.015625 99.945312 0.816406 92.5625 4.421875 C 85.1875 8.035156 76.359375 9.84375 66.078125 9.84375 C 55.910156 9.84375 47.164062 8.007812 39.84375 4.34375 C 32.519531 0.6875 26.507812 -4.203125 21.8125 -10.328125 C 17.113281 -16.453125 13.640625 -23.421875 11.390625 -31.234375 C 9.148438 -39.054688 8.03125 -47.117188 8.03125 -55.421875 Z M 8.03125 -55.421875 "/></g></g></g><g fill="#000000" fill-opacity="1"><g transform="translate(524.655236, 1196.304181)"><g><path d="M 8.03125 -55.59375 C 8.03125 -64.113281 9.097656 -72.3125 11.234375 -80.1875 C 13.367188 -88.0625 16.726562 -95.003906 21.3125 -101.015625 C 25.90625 -107.023438 31.835938 -111.832031 39.109375 -115.4375 C 46.378906 -119.050781 55.097656 -120.859375 65.265625 -120.859375 C 72.484375 -120.859375 78.988281 -119.898438 84.78125 -117.984375 C 90.570312 -116.066406 95.625 -113.492188 99.9375 -110.265625 C 104.257812 -107.046875 107.867188 -103.332031 110.765625 -99.125 C 113.660156 -94.914062 115.875 -90.460938 117.40625 -85.765625 L 94.953125 -82.3125 C 91.890625 -88.550781 87.953125 -93.253906 83.140625 -96.421875 C 78.328125 -99.585938 72.367188 -101.171875 65.265625 -101.171875 C 54.441406 -101.171875 45.882812 -97.234375 39.59375 -89.359375 C 33.3125 -81.492188 30.171875 -70.238281 30.171875 -55.59375 C 30.171875 -48.59375 30.988281 -42.273438 32.625 -36.640625 C 34.269531 -31.015625 36.625 -26.207031 39.6875 -22.21875 C 42.75 -18.226562 46.4375 -15.140625 50.75 -12.953125 C 55.070312 -10.765625 59.910156 -9.671875 65.265625 -9.671875 C 72.804688 -9.671875 79.0625 -11.363281 84.03125 -14.75 C 89.007812 -18.144531 92.867188 -23.015625 95.609375 -29.359375 L 117.734375 -26.078125 C 115.984375 -20.929688 113.601562 -16.171875 110.59375 -11.796875 C 107.59375 -7.429688 103.929688 -3.660156 99.609375 -0.484375 C 95.296875 2.679688 90.296875 5.191406 84.609375 7.046875 C 78.929688 8.910156 72.484375 9.84375 65.265625 9.84375 C 55.316406 9.84375 46.734375 8.09375 39.515625 4.59375 C 32.304688 1.09375 26.378906 -3.660156 21.734375 -9.671875 C 17.085938 -15.679688 13.640625 -22.648438 11.390625 -30.578125 C 9.148438 -38.503906 8.03125 -46.84375 8.03125 -55.59375 Z M 8.03125 -55.59375 "/></g></g></g><g fill="#000000" fill-opacity="1"><g transform="translate(625.18002, 1196.304181)"><g><path d="M 34.921875 -117.90625 L 34.921875 -42.96875 C 34.921875 -38.257812 35.46875 -33.882812 36.5625 -29.84375 C 37.65625 -25.800781 39.40625 -22.273438 41.8125 -19.265625 C 44.21875 -16.265625 47.25 -13.914062 50.90625 -12.21875 C 54.570312 -10.519531 59.03125 -9.671875 64.28125 -9.671875 C 74.445312 -9.671875 81.878906 -12.625 86.578125 -18.53125 C 91.285156 -24.4375 93.640625 -32.582031 93.640625 -42.96875 L 93.640625 -117.90625 L 115.765625 -117.90625 L 115.765625 -42.640625 C 115.765625 -33.671875 114.507812 -25.878906 112 -19.265625 C 109.488281 -12.648438 105.960938 -7.210938 101.421875 -2.953125 C 96.890625 1.304688 91.476562 4.503906 85.1875 6.640625 C 78.90625 8.773438 71.9375 9.84375 64.28125 9.84375 C 56.625 9.84375 49.625 8.773438 43.28125 6.640625 C 36.945312 4.503906 31.535156 1.277344 27.046875 -3.03125 C 22.566406 -7.351562 19.070312 -12.820312 16.5625 -19.4375 C 14.050781 -26.050781 12.796875 -33.785156 12.796875 -42.640625 L 12.796875 -117.90625 Z M 34.921875 -117.90625 "/></g></g></g><g fill="#000000" fill-opacity="1"><g transform="translate(730.1325, 1196.304181)"><g><path d="M 44.109375 -117.90625 L 83.953125 -21.96875 L 84.125 -21.96875 L 123.484375 -117.90625 L 154.46875 -117.90625 L 154.46875 7.046875 L 132.328125 7.046875 L 132.328125 -82.484375 L 132 -82.484375 L 94.953125 7.046875 L 73.296875 7.046875 L 35.578125 -82.484375 L 35.25 -82.484375 L 35.25 7.046875 L 13.125 7.046875 L 13.125 -117.90625 Z M 44.109375 -117.90625 "/></g></g></g><g fill="#000000" fill-opacity="1"><g transform="translate(874.114508, 1196.304181)"><g><path d="M 108.0625 -117.90625 L 108.0625 -98.390625 L 35.25 -98.390625 L 35.25 -66.578125 L 100.84375 -66.578125 L 100.84375 -46.90625 L 35.25 -46.90625 L 35.25 -12.46875 L 108.71875 -12.46875 L 108.71875 7.046875 L 13.125 7.046875 L 13.125 -117.90625 Z M 108.0625 -117.90625 "/></g></g></g><g fill="#000000" fill-opacity="1"><g transform="translate(968.079731, 1196.304181)"><g><path d="M 36.40625 -117.90625 L 98.234375 -27.875 L 98.546875 -27.875 L 98.546875 -117.90625 L 120.6875 -117.90625 L 120.6875 7.046875 L 97.40625 7.046875 L 35.578125 -82.96875 L 35.421875 -83.140625 L 35.421875 7.046875 L 13.125 7.046875 L 13.125 -117.90625 Z M 36.40625 -117.90625 "/></g></g></g><g fill="#000000" fill-opacity="1"><g transform="translate(1078.279879, 1196.304181)"><g><path d="M 101.5 -117.90625 L 101.5 -98.390625 L 62.15625 -98.390625 L 62.15625 7.046875 L 40.015625 7.046875 L 40.015625 -98.390625 L 0.8125 -98.390625 L 0.8125 -117.90625 Z M 101.5 -117.90625 "/></g></g></g><g fill="#000000" fill-opacity="1"><g transform="translate(1156.994022, 1196.304181)"><g><path d="M 30.671875 -29.515625 C 33.941406 -22.296875 38.035156 -17.179688 42.953125 -14.171875 C 47.878906 -11.171875 53.625 -9.671875 60.1875 -9.671875 C 63.894531 -9.671875 67.171875 -10.132812 70.015625 -11.0625 C 72.859375 -12 75.207031 -13.226562 77.0625 -14.75 C 78.925781 -16.28125 80.320312 -17.945312 81.25 -19.75 C 82.175781 -21.5625 82.640625 -23.394531 82.640625 -25.25 C 82.640625 -27.875 81.738281 -30.25 79.9375 -32.375 C 78.132812 -34.507812 75.863281 -36.425781 73.125 -38.125 C 70.394531 -39.820312 67.445312 -41.328125 64.28125 -42.640625 C 61.113281 -43.953125 58.160156 -45.097656 55.421875 -46.078125 C 40.117188 -51.109375 28.664062 -56.519531 21.0625 -62.3125 C 13.46875 -68.101562 9.671875 -75.375 9.671875 -84.125 C 9.671875 -89.8125 10.984375 -94.945312 13.609375 -99.53125 C 16.234375 -104.125 19.757812 -107.976562 24.1875 -111.09375 C 28.613281 -114.207031 33.695312 -116.613281 39.4375 -118.3125 C 45.175781 -120.007812 51.109375 -120.859375 57.234375 -120.859375 C 69.148438 -120.859375 79.367188 -118.175781 87.890625 -112.8125 C 96.421875 -107.457031 102.488281 -99.644531 106.09375 -89.375 L 81.828125 -86.09375 C 79.316406 -91.34375 75.898438 -95.164062 71.578125 -97.5625 C 67.265625 -99.96875 62.15625 -101.171875 56.25 -101.171875 C 53.070312 -101.171875 50.144531 -100.785156 47.46875 -100.015625 C 44.789062 -99.253906 42.492188 -98.164062 40.578125 -96.75 C 38.671875 -95.332031 37.171875 -93.691406 36.078125 -91.828125 C 34.984375 -89.972656 34.4375 -88.003906 34.4375 -85.921875 C 34.4375 -81.335938 36.757812 -77.703125 41.40625 -75.015625 C 46.050781 -72.335938 52.582031 -69.578125 61 -66.734375 C 75.757812 -61.710938 87.179688 -56.082031 95.265625 -49.84375 C 103.359375 -43.613281 107.40625 -36.128906 107.40625 -27.390625 C 107.40625 -22.242188 106.335938 -17.429688 104.203125 -12.953125 C 102.078125 -8.472656 98.988281 -4.535156 94.9375 -1.140625 C 90.894531 2.242188 85.867188 4.921875 79.859375 6.890625 C 73.847656 8.859375 67.015625 9.84375 59.359375 9.84375 C 46.460938 9.84375 35.476562 6.832031 26.40625 0.8125 C 17.332031 -5.195312 10.5 -14.160156 5.90625 -26.078125 Z M 30.671875 -29.515625 "/></g></g></g><g fill="#000000" fill-opacity="1"><g transform="translate(328.094787, 1483.102681)"><g><path d="M 53.34375 0 C 48.863281 -7.09375 41.441406 -17.015625 31.078125 -29.765625 L 28.765625 -29.765625 L 28.765625 -9.5 C 28.765625 -7.976562 29.207031 -6.734375 30.09375 -5.765625 C 30.988281 -4.796875 33.394531 -4.054688 37.3125 -3.546875 L 37.3125 0 L 3.09375 0 L 3.09375 -3.546875 C 7.632812 -3.722656 10.34375 -4.296875 11.21875 -5.265625 C 12.101562 -6.234375 12.546875 -7.492188 12.546875 -9.046875 L 12.546875 -54.703125 C 12.546875 -56.828125 11.78125 -58.28125 10.25 -59.0625 C 8.71875 -59.851562 6.816406 -60.414062 4.546875 -60.75 L 3.09375 -60.9375 L 3.09375 -64.484375 L 38.4375 -64.484375 L 38.4375 -60.9375 C 38.019531 -60.875 37.519531 -60.8125 36.9375 -60.75 C 33.457031 -60.382812 31.222656 -59.832031 30.234375 -59.09375 C 29.253906 -58.351562 28.765625 -57.046875 28.765625 -55.171875 L 28.765625 -33.40625 L 30.625 -33.40625 C 45.6875 -47.1875 53.21875 -55.785156 53.21875 -59.203125 C 53.21875 -60.023438 51.019531 -60.601562 46.625 -60.9375 L 46.625 -64.484375 L 74.609375 -64.484375 L 74.609375 -60.9375 C 70.097656 -60.476562 66.363281 -59.4375 63.40625 -57.8125 C 60.457031 -56.195312 53.679688 -49.921875 43.078125 -38.984375 L 66.484375 -10.265625 C 69.960938 -6.023438 74.113281 -3.785156 78.9375 -3.546875 L 78.9375 0 Z M 53.34375 0 "/></g></g></g><g fill="#000000" fill-opacity="1"><g transform="translate(458.362248, 1483.102681)"><g><path d="M 63.65625 0 L 3.1875 0 L 3.1875 -3.546875 C 6.96875 -3.847656 9.472656 -4.351562 10.703125 -5.0625 C 11.929688 -5.78125 12.546875 -7.164062 12.546875 -9.21875 L 12.546875 -54.703125 C 12.546875 -56.617188 11.921875 -58 10.671875 -58.84375 C 9.429688 -59.695312 6.9375 -60.394531 3.1875 -60.9375 L 3.1875 -64.484375 L 60.296875 -64.484375 L 60.296875 -48.03125 L 56.84375 -48.03125 C 55.9375 -50.570312 54.5 -52.972656 52.53125 -55.234375 C 50.5625 -57.492188 48.796875 -58.914062 47.234375 -59.5 C 45.671875 -60.09375 42.617188 -60.390625 38.078125 -60.390625 L 28.765625 -60.390625 L 28.765625 -35.4375 L 35.359375 -35.4375 C 38.960938 -35.4375 41.609375 -36.285156 43.296875 -37.984375 C 44.992188 -39.679688 46.253906 -42.5625 47.078125 -46.625 L 50.53125 -46.625 L 50.53125 -19.71875 L 47.078125 -19.71875 C 46.078125 -24.507812 44.757812 -27.644531 43.125 -29.125 C 41.488281 -30.613281 38.898438 -31.359375 35.359375 -31.359375 L 28.765625 -31.359375 L 28.765625 -12.765625 C 28.765625 -9.429688 29.25 -7.148438 30.21875 -5.921875 C 31.1875 -4.703125 34.203125 -4.09375 39.265625 -4.09375 C 43.597656 -4.09375 46.734375 -4.28125 48.671875 -4.65625 C 50.609375 -5.03125 52.035156 -5.582031 52.953125 -6.3125 C 53.878906 -7.039062 55.378906 -9.097656 57.453125 -12.484375 C 59.535156 -15.878906 60.894531 -18.410156 61.53125 -20.078125 L 64.84375 -20.078125 Z M 63.65625 0 "/></g></g></g><g fill="#000000" fill-opacity="1"><g transform="translate(579.724305, 1483.102681)"><g><path d="M 63.65625 0 L 3.1875 0 L 3.1875 -3.546875 C 6.96875 -3.847656 9.472656 -4.351562 10.703125 -5.0625 C 11.929688 -5.78125 12.546875 -7.164062 12.546875 -9.21875 L 12.546875 -54.703125 C 12.546875 -56.617188 11.921875 -58 10.671875 -58.84375 C 9.429688 -59.695312 6.9375 -60.394531 3.1875 -60.9375 L 3.1875 -64.484375 L 60.296875 -64.484375 L 60.296875 -48.03125 L 56.84375 -48.03125 C 55.9375 -50.570312 54.5 -52.972656 52.53125 -55.234375 C 50.5625 -57.492188 48.796875 -58.914062 47.234375 -59.5 C 45.671875 -60.09375 42.617188 -60.390625 38.078125 -60.390625 L 28.765625 -60.390625 L 28.765625 -35.4375 L 35.359375 -35.4375 C 38.960938 -35.4375 41.609375 -36.285156 43.296875 -37.984375 C 44.992188 -39.679688 46.253906 -42.5625 47.078125 -46.625 L 50.53125 -46.625 L 50.53125 -19.71875 L 47.078125 -19.71875 C 46.078125 -24.507812 44.757812 -27.644531 43.125 -29.125 C 41.488281 -30.613281 38.898438 -31.359375 35.359375 -31.359375 L 28.765625 -31.359375 L 28.765625 -12.765625 C 28.765625 -9.429688 29.25 -7.148438 30.21875 -5.921875 C 31.1875 -4.703125 34.203125 -4.09375 39.265625 -4.09375 C 43.597656 -4.09375 46.734375 -4.28125 48.671875 -4.65625 C 50.609375 -5.03125 52.035156 -5.582031 52.953125 -6.3125 C 53.878906 -7.039062 55.378906 -9.097656 57.453125 -12.484375 C 59.535156 -15.878906 60.894531 -18.410156 61.53125 -20.078125 L 64.84375 -20.078125 Z M 63.65625 0 "/></g></g></g><g fill="#000000" fill-opacity="1"><g transform="translate(701.086362, 1483.102681)"><g><path d="M 28.765625 -27.71875 L 28.765625 -9.671875 C 28.765625 -7.765625 29.382812 -6.34375 30.625 -5.40625 C 31.863281 -4.46875 34.347656 -3.847656 38.078125 -3.546875 L 38.078125 0 L 3.1875 0 L 3.1875 -3.546875 C 7.175781 -3.847656 9.734375 -4.375 10.859375 -5.125 C 11.984375 -5.882812 12.546875 -7.25 12.546875 -9.21875 L 12.546875 -54.703125 C 12.546875 -56.921875 11.796875 -58.382812 10.296875 -59.09375 C 8.796875 -59.800781 6.425781 -60.414062 3.1875 -60.9375 L 3.1875 -64.484375 L 38.71875 -64.484375 C 55.289062 -64.484375 63.578125 -59.117188 63.578125 -48.390625 C 63.578125 -41.722656 61.015625 -36.609375 55.890625 -33.046875 C 50.773438 -29.492188 43.472656 -27.71875 33.984375 -27.71875 Z M 28.765625 -60.296875 L 28.765625 -32.03125 L 30.625 -32.03125 C 40.800781 -32.03125 45.890625 -36.710938 45.890625 -46.078125 C 45.890625 -51.160156 44.820312 -54.800781 42.6875 -57 C 40.550781 -59.195312 37.148438 -60.296875 32.484375 -60.296875 Z M 28.765625 -60.296875 "/></g></g></g><g fill="#000000" fill-opacity="1"><g transform="translate(820.590729, 1483.102681)"><g/></g></g><g fill="#000000" fill-opacity="1"><g transform="translate(898.470786, 1483.102681)"><g/></g></g><g fill="#000000" fill-opacity="1"><g transform="translate(976.357431, 1483.102681)"><g><path d="M 59.578125 -46.078125 C 58.273438 -49.617188 56.695312 -52.675781 54.84375 -55.25 C 53 -57.832031 51.425781 -59.332031 50.125 -59.75 C 48.820312 -60.175781 46.140625 -60.390625 42.078125 -60.390625 L 39.9375 -60.390625 L 39.9375 -9.859375 C 39.9375 -7.796875 40.554688 -6.363281 41.796875 -5.5625 C 43.046875 -4.757812 45.710938 -4.085938 49.796875 -3.546875 L 49.796875 0 L 13.859375 0 L 13.859375 -3.546875 C 17.953125 -3.847656 20.617188 -4.351562 21.859375 -5.0625 C 23.097656 -5.78125 23.71875 -7.226562 23.71875 -9.40625 L 23.71875 -60.390625 L 21.671875 -60.390625 C 17.460938 -60.390625 14.710938 -60.171875 13.421875 -59.734375 C 12.140625 -59.296875 10.570312 -57.726562 8.71875 -55.03125 C 6.875 -52.332031 5.332031 -49.347656 4.09375 -46.078125 L 0.546875 -46.078125 L 0.546875 -64.484375 L 63.109375 -64.484375 L 63.109375 -46.078125 Z M 59.578125 -46.078125 "/></g></g></g><g fill="#000000" fill-opacity="1"><g transform="translate(1094.266372, 1483.102681)"><g><path d="M 46.984375 0 L 46.984375 -3.546875 C 51.378906 -3.753906 54.015625 -4.320312 54.890625 -5.25 C 55.765625 -6.175781 56.203125 -7.441406 56.203125 -9.046875 L 56.203125 -31.171875 L 28.765625 -31.171875 L 28.765625 -9.5 C 28.765625 -7.832031 29.289062 -6.53125 30.34375 -5.59375 C 31.40625 -4.65625 33.953125 -3.972656 37.984375 -3.546875 L 37.984375 0 L 3.1875 0 L 3.1875 -3.546875 C 7.757812 -3.816406 10.460938 -4.425781 11.296875 -5.375 C 12.128906 -6.332031 12.546875 -7.585938 12.546875 -9.140625 L 12.546875 -54.703125 C 12.546875 -56.679688 11.847656 -58.078125 10.453125 -58.890625 C 9.054688 -59.710938 6.632812 -60.394531 3.1875 -60.9375 L 3.1875 -64.484375 L 37.984375 -64.484375 L 37.984375 -60.9375 L 36.53125 -60.75 C 33.082031 -60.382812 30.925781 -59.785156 30.0625 -58.953125 C 29.195312 -58.117188 28.765625 -56.859375 28.765625 -55.171875 L 28.765625 -35.9375 L 56.203125 -35.9375 L 56.203125 -54.703125 C 56.203125 -56.460938 55.597656 -57.789062 54.390625 -58.6875 C 53.179688 -59.582031 50.710938 -60.332031 46.984375 -60.9375 L 46.984375 -64.484375 L 81.796875 -64.484375 L 81.796875 -60.9375 C 81.367188 -60.875 80.867188 -60.8125 80.296875 -60.75 C 76.660156 -60.351562 74.429688 -59.722656 73.609375 -58.859375 C 72.796875 -58.003906 72.390625 -56.773438 72.390625 -55.171875 L 72.390625 -9.5 C 72.390625 -7.800781 72.925781 -6.488281 74 -5.5625 C 75.070312 -4.644531 77.671875 -3.972656 81.796875 -3.546875 L 81.796875 0 Z M 46.984375 0 "/></g></g></g><g fill="#000000" fill-opacity="1"><g transform="translate(1233.484675, 1483.102681)"><g><path d="M 2.859375 0 L 2.859375 -3.546875 C 7.617188 -3.722656 10.441406 -4.296875 11.328125 -5.265625 C 12.222656 -6.234375 12.671875 -7.492188 12.671875 -9.046875 L 12.671875 -54.703125 C 12.671875 -56.222656 12.21875 -57.46875 11.3125 -58.4375 C 10.40625 -59.40625 7.585938 -60.238281 2.859375 -60.9375 L 2.859375 -64.484375 L 38.625 -64.484375 L 38.625 -60.9375 C 38.195312 -60.875 37.679688 -60.8125 37.078125 -60.75 C 33.566406 -60.382812 31.316406 -59.847656 30.328125 -59.140625 C 29.347656 -58.429688 28.859375 -57.109375 28.859375 -55.171875 L 28.859375 -9.5 C 28.859375 -7.863281 29.367188 -6.566406 30.390625 -5.609375 C 31.421875 -4.660156 34.164062 -3.972656 38.625 -3.546875 L 38.625 0 Z M 2.859375 0 "/></g></g></g><g fill="#000000" fill-opacity="1"><g transform="translate(1329.220976, 1483.102681)"><g><path d="M 77.25 -60.9375 C 76.882812 -60.875 76.367188 -60.8125 75.703125 -60.75 C 72.367188 -60.351562 69.941406 -59.351562 68.421875 -57.75 C 66.910156 -56.144531 66.15625 -52.132812 66.15625 -45.71875 L 66.15625 0.359375 L 58.171875 0.359375 L 17.953125 -49.53125 L 17.953125 -19.265625 C 17.953125 -13.328125 18.640625 -9.425781 20.015625 -7.5625 C 21.390625 -5.695312 24.488281 -4.359375 29.3125 -3.546875 L 29.3125 0 L 1.59375 0 L 1.59375 -3.546875 C 6.3125 -4.085938 9.316406 -5.210938 10.609375 -6.921875 C 11.898438 -8.640625 12.546875 -12.570312 12.546875 -18.71875 L 12.546875 -49.21875 C 12.546875 -55.601562 8.800781 -59.476562 1.3125 -60.84375 L 1.3125 -64.484375 L 25.578125 -64.484375 L 60.84375 -20.859375 L 60.84375 -45.21875 C 60.84375 -51.125 60.144531 -55.019531 58.75 -56.90625 C 57.363281 -58.800781 54.289062 -60.144531 49.53125 -60.9375 L 49.53125 -64.484375 L 77.25 -64.484375 Z M 77.25 -60.9375 "/></g></g></g><g fill="#000000" fill-opacity="1"><g transform="translate(1461.533048, 1483.102681)"><g><path d="M 53.34375 0 C 48.863281 -7.09375 41.441406 -17.015625 31.078125 -29.765625 L 28.765625 -29.765625 L 28.765625 -9.5 C 28.765625 -7.976562 29.207031 -6.734375 30.09375 -5.765625 C 30.988281 -4.796875 33.394531 -4.054688 37.3125 -3.546875 L 37.3125 0 L 3.09375 0 L 3.09375 -3.546875 C 7.632812 -3.722656 10.34375 -4.296875 11.21875 -5.265625 C 12.101562 -6.234375 12.546875 -7.492188 12.546875 -9.046875 L 12.546875 -54.703125 C 12.546875 -56.828125 11.78125 -58.28125 10.25 -59.0625 C 8.71875 -59.851562 6.816406 -60.414062 4.546875 -60.75 L 3.09375 -60.9375 L 3.09375 -64.484375 L 38.4375 -64.484375 L 38.4375 -60.9375 C 38.019531 -60.875 37.519531 -60.8125 36.9375 -60.75 C 33.457031 -60.382812 31.222656 -59.832031 30.234375 -59.09375 C 29.253906 -58.351562 28.765625 -57.046875 28.765625 -55.171875 L 28.765625 -33.40625 L 30.625 -33.40625 C 45.6875 -47.1875 53.21875 -55.785156 53.21875 -59.203125 C 53.21875 -60.023438 51.019531 -60.601562 46.625 -60.9375 L 46.625 -64.484375 L 74.609375 -64.484375 L 74.609375 -60.9375 C 70.097656 -60.476562 66.363281 -59.4375 63.40625 -57.8125 C 60.457031 -56.195312 53.679688 -49.921875 43.078125 -38.984375 L 66.484375 -10.265625 C 69.960938 -6.023438 74.113281 -3.785156 78.9375 -3.546875 L 78.9375 0 Z M 53.34375 0 "/></g></g></g><g fill="#000000" fill-opacity="1"><g transform="translate(1591.800509, 1483.102681)"><g><path d="M 2.859375 0 L 2.859375 -3.546875 C 7.617188 -3.722656 10.441406 -4.296875 11.328125 -5.265625 C 12.222656 -6.234375 12.671875 -7.492188 12.671875 -9.046875 L 12.671875 -54.703125 C 12.671875 -56.222656 12.21875 -57.46875 11.3125 -58.4375 C 10.40625 -59.40625 7.585938 -60.238281 2.859375 -60.9375 L 2.859375 -64.484375 L 38.625 -64.484375 L 38.625 -60.9375 C 38.195312 -60.875 37.679688 -60.8125 37.078125 -60.75 C 33.566406 -60.382812 31.316406 -59.847656 30.328125 -59.140625 C 29.347656 -58.429688 28.859375 -57.109375 28.859375 -55.171875 L 28.859375 -9.5 C 28.859375 -7.863281 29.367188 -6.566406 30.390625 -5.609375 C 31.421875 -4.660156 34.164062 -3.972656 38.625 -3.546875 L 38.625 0 Z M 2.859375 0 "/></g></g></g><g fill="#000000" fill-opacity="1"><g transform="translate(1687.536811, 1483.102681)"><g><path d="M 77.25 -60.9375 C 76.882812 -60.875 76.367188 -60.8125 75.703125 -60.75 C 72.367188 -60.351562 69.941406 -59.351562 68.421875 -57.75 C 66.910156 -56.144531 66.15625 -52.132812 66.15625 -45.71875 L 66.15625 0.359375 L 58.171875 0.359375 L 17.953125 -49.53125 L 17.953125 -19.265625 C 17.953125 -13.328125 18.640625 -9.425781 20.015625 -7.5625 C 21.390625 -5.695312 24.488281 -4.359375 29.3125 -3.546875 L 29.3125 0 L 1.59375 0 L 1.59375 -3.546875 C 6.3125 -4.085938 9.316406 -5.210938 10.609375 -6.921875 C 11.898438 -8.640625 12.546875 -12.570312 12.546875 -18.71875 L 12.546875 -49.21875 C 12.546875 -55.601562 8.800781 -59.476562 1.3125 -60.84375 L 1.3125 -64.484375 L 25.578125 -64.484375 L 60.84375 -20.859375 L 60.84375 -45.21875 C 60.84375 -51.125 60.144531 -55.019531 58.75 -56.90625 C 57.363281 -58.800781 54.289062 -60.144531 49.53125 -60.9375 L 49.53125 -64.484375 L 77.25 -64.484375 Z M 77.25 -60.9375 "/></g></g></g><g fill="#000000" fill-opacity="1"><g transform="translate(1819.848883, 1483.102681)"><g><path d="M 74.9375 -26.265625 C 70.90625 -25.722656 68.507812 -24.960938 67.75 -23.984375 C 66.988281 -23.015625 66.609375 -21.820312 66.609375 -20.40625 L 66.609375 -12.859375 C 66.609375 -10.523438 66.671875 -8.160156 66.796875 -5.765625 C 63.492188 -3.796875 58.863281 -2.046875 52.90625 -0.515625 C 46.957031 1.003906 41.664062 1.765625 37.03125 1.765625 C 27.125 1.765625 19.019531 -1.253906 12.71875 -7.296875 C 6.414062 -13.335938 3.265625 -21.445312 3.265625 -31.625 C 3.265625 -41.957031 6.519531 -50.296875 13.03125 -56.640625 C 19.550781 -62.984375 28.203125 -66.15625 38.984375 -66.15625 C 45.253906 -66.15625 51.207031 -64.765625 56.84375 -61.984375 L 59.75 -64.484375 L 63.65625 -64.484375 L 64.03125 -40.9375 L 60.125 -40.9375 C 57.84375 -47.90625 55.070312 -53.125 51.8125 -56.59375 C 48.5625 -60.0625 44.5 -61.796875 39.625 -61.796875 C 33.863281 -61.796875 29.382812 -59.273438 26.1875 -54.234375 C 23 -49.191406 21.40625 -42.15625 21.40625 -33.125 C 21.40625 -23.519531 22.972656 -16.054688 26.109375 -10.734375 C 29.242188 -5.421875 33.628906 -2.765625 39.265625 -2.765625 C 44.046875 -2.765625 48.015625 -4.113281 51.171875 -6.8125 L 51.171875 -19.90625 C 51.171875 -21.539062 50.640625 -22.832031 49.578125 -23.78125 C 48.515625 -24.738281 45.785156 -25.566406 41.390625 -26.265625 L 41.390625 -29.765625 L 74.9375 -29.765625 Z M 74.9375 -26.265625 "/></g></g></g><g fill="#000000" fill-opacity="1"><g transform="translate(1949.207673, 1483.102681)"><g><path d="M 15.359375 1.3125 C 12.878906 1.3125 10.75 0.441406 8.96875 -1.296875 C 7.195312 -3.035156 6.3125 -5.117188 6.3125 -7.546875 C 6.3125 -9.941406 7.191406 -12.023438 8.953125 -13.796875 C 10.710938 -15.566406 12.847656 -16.453125 15.359375 -16.453125 C 17.785156 -16.453125 19.882812 -15.554688 21.65625 -13.765625 C 23.425781 -11.984375 24.3125 -9.910156 24.3125 -7.546875 C 24.3125 -5.148438 23.414062 -3.070312 21.625 -1.3125 C 19.84375 0.433594 17.753906 1.3125 15.359375 1.3125 Z M 15.359375 1.3125 "/></g></g></g></svg>