<svg xmlns="http://www.w3.org/2000/svg" xmlns:xlink="http://www.w3.org/1999/xlink" zoomAndPan="magnify" viewBox="329 1388 1265 90" preserveAspectRatio="xMinYMid meet" version="1.0"><metadata/><defs><g/></defs><g fill="#000000" fill-opacity="1"><g transform="translate(305.787223, 967.61834)"><g><path d="M 127.0625 -253.078125 C 150.289062 -253.078125 169.941406 -249.265625 186.015625 -241.640625 C 202.097656 -234.015625 215.125 -223.921875 225.09375 -211.359375 C 235.0625 -198.804688 242.273438 -184.492188 246.734375 -168.421875 C 251.191406 -152.347656 253.421875 -135.863281 253.421875 -118.96875 C 253.421875 -100.664062 251.015625 -83.359375 246.203125 -67.046875 C 241.398438 -50.742188 233.832031 -36.488281 223.5 -24.28125 C 213.175781 -12.082031 199.859375 -2.460938 183.546875 4.578125 C 167.242188 11.617188 147.597656 15.140625 124.609375 15.140625 L 28.15625 15.140625 L 28.15625 -253.078125 Z M 75.671875 -26.75 L 121.78125 -26.75 C 148.300781 -26.75 168.894531 -34.664062 183.5625 -50.5 C 198.226562 -66.34375 205.5625 -89.285156 205.5625 -119.328125 C 205.5625 -131.054688 204.09375 -142.4375 201.15625 -153.46875 C 198.226562 -164.5 193.421875 -174.296875 186.734375 -182.859375 C 180.046875 -191.421875 171.363281 -198.28125 160.6875 -203.4375 C 150.007812 -208.601562 136.925781 -211.1875 121.4375 -211.1875 L 75.671875 -211.1875 Z M 75.671875 -26.75 "/></g></g></g><g fill="#000000" fill-opacity="1"><g transform="translate(524.367755, 967.61834)"><g><path d="M 231.953125 -253.078125 L 231.953125 -211.1875 L 75.671875 -211.1875 L 75.671875 -142.90625 L 216.46875 -142.90625 L 216.46875 -100.671875 L 75.671875 -100.671875 L 75.671875 -26.75 L 233.359375 -26.75 L 233.359375 15.140625 L 28.15625 15.140625 L 28.15625 -253.078125 Z M 231.953125 -253.078125 "/></g></g></g><g fill="#000000" fill-opacity="1"><g transform="translate(726.053152, 967.61834)"><g><path d="M 75.671875 -253.078125 L 75.671875 -26.75 L 216.46875 -26.75 L 216.46875 15.140625 L 28.15625 15.140625 L 28.15625 -253.078125 Z M 75.671875 -253.078125 "/></g></g></g><g fill="#000000" fill-opacity="1"><g transform="translate(899.227919, 967.61834)"><g><path d="M 231.953125 -253.078125 L 231.953125 -211.1875 L 75.671875 -211.1875 L 75.671875 -142.90625 L 216.46875 -142.90625 L 216.46875 -100.671875 L 75.671875 -100.671875 L 75.671875 -26.75 L 233.359375 -26.75 L 233.359375 15.140625 L 28.15625 15.140625 L 28.15625 -253.078125 Z M 231.953125 -253.078125 "/></g></g></g><g fill="#000000" fill-opacity="1"><g transform="translate(1100.913362, 967.61834)"><g><path d="M 231.953125 -253.078125 L 231.953125 -211.1875 L 75.671875 -211.1875 L 75.671875 -142.90625 L 216.46875 -142.90625 L 216.46875 -100.671875 L 75.671875 -100.671875 L 75.671875 -26.75 L 233.359375 -26.75 L 233.359375 15.140625 L 28.15625 15.140625 L 28.15625 -253.078125 Z M 231.953125 -253.078125 "/></g></g></g><g fill="#000000" fill-opacity="1"><g transform="translate(318.082051, 1181.474957)"><g><path d="M 35.421875 -117.90625 L 35.421875 7.046875 L 13.125 7.046875 L 13.125 -117.90625 Z M 35.421875 -117.90625 "/></g></g></g><g fill="#000000" fill-opacity="1"><g transform="translate(342.843625, 1181.474957)"><g><path d="M 44.109375 -117.90625 L 83.953125 -21.96875 L 84.125 -21.96875 L 123.484375 -117.90625 L 154.46875 -117.90625 L 154.46875 7.046875 L 132.328125 7.046875 L 132.328125 -82.484375 L 132 -82.484375 L 94.953125 7.046875 L 73.296875 7.046875 L 35.578125 -82.484375 L 35.25 -82.484375 L 35.25 7.046875 L 13.125 7.046875 L 13.125 -117.90625 Z M 44.109375 -117.90625 "/></g></g></g><g fill="#000000" fill-opacity="1"><g transform="translate(486.825648, 1181.474957)"><g><path d="M 50.828125 -117.90625 L 75.4375 -117.90625 L 124.46875 7.046875 L 101.171875 7.046875 L 89.859375 -22.296875 L 35.421875 -22.296875 L 23.9375 7.046875 L 0.8125 7.046875 Z M 43.125 -41.984375 L 82.3125 -41.984375 L 63.140625 -92.65625 L 62.96875 -92.65625 Z M 43.125 -41.984375 "/></g></g></g><g fill="#000000" fill-opacity="1"><g transform="translate(588.33437, 1181.474957)"><g><path d="M 9.015625 -55.59375 C 9.015625 -64.988281 10.351562 -73.675781 13.03125 -81.65625 C 15.707031 -89.644531 19.5625 -96.535156 24.59375 -102.328125 C 29.625 -108.117188 35.742188 -112.65625 42.953125 -115.9375 C 50.171875 -119.21875 58.316406 -120.859375 67.390625 -120.859375 C 75.046875 -120.859375 81.6875 -119.925781 87.3125 -118.0625 C 92.945312 -116.207031 97.785156 -113.664062 101.828125 -110.4375 C 105.878906 -107.21875 109.296875 -103.53125 112.078125 -99.375 C 114.867188 -95.21875 117.25 -90.84375 119.21875 -86.25 L 96.265625 -82.96875 C 93.203125 -89.207031 89.289062 -93.800781 84.53125 -96.75 C 79.78125 -99.695312 74.066406 -101.171875 67.390625 -101.171875 C 62.035156 -101.171875 57.144531 -100.078125 52.71875 -97.890625 C 48.289062 -95.710938 44.488281 -92.625 41.3125 -88.625 C 38.144531 -84.632812 35.6875 -79.851562 33.9375 -74.28125 C 32.195312 -68.707031 31.328125 -62.476562 31.328125 -55.59375 C 31.328125 -48.59375 32.195312 -42.273438 33.9375 -36.640625 C 35.6875 -31.015625 38.117188 -26.207031 41.234375 -22.21875 C 44.359375 -18.226562 48.050781 -15.140625 52.3125 -12.953125 C 56.570312 -10.765625 61.269531 -9.671875 66.40625 -9.671875 C 70.78125 -9.671875 74.828125 -10.378906 78.546875 -11.796875 C 82.265625 -13.222656 85.546875 -15.109375 88.390625 -17.453125 C 91.234375 -19.804688 93.609375 -22.597656 95.515625 -25.828125 C 97.429688 -29.054688 98.769531 -32.472656 99.53125 -36.078125 L 99.53125 -43.78125 L 68.046875 -43.78125 L 68.046875 -63.296875 L 121.671875 -63.296875 L 121.671875 7.046875 L 102.15625 7.046875 L 102.15625 -11.640625 C 98.664062 -5.078125 93.640625 0.140625 87.078125 4.015625 C 80.515625 7.898438 72.644531 9.84375 63.46875 9.84375 C 56.25 9.84375 49.332031 8.363281 42.71875 5.40625 C 36.101562 2.457031 30.304688 -1.800781 25.328125 -7.375 C 20.359375 -12.957031 16.394531 -19.789062 13.4375 -27.875 C 10.488281 -35.96875 9.015625 -45.207031 9.015625 -55.59375 Z M 9.015625 -55.59375 "/></g></g></g><g fill="#000000" fill-opacity="1"><g transform="translate(698.534518, 1181.474957)"><g><path d="M 108.0625 -117.90625 L 108.0625 -98.390625 L 35.25 -98.390625 L 35.25 -66.578125 L 100.84375 -66.578125 L 100.84375 -46.90625 L 35.25 -46.90625 L 35.25 -12.46875 L 108.71875 -12.46875 L 108.71875 7.046875 L 13.125 7.046875 L 13.125 -117.90625 Z M 108.0625 -117.90625 "/></g></g></g><g fill="#000000" fill-opacity="1"><g transform="translate(329.889742, 1465.851085)"><g><path d="M 2.890625 -76.40625 L 10.890625 -76.40625 L 10.890625 0 L 2.890625 0 Z M 2.890625 -76.40625 "/></g></g></g><g fill="#000000" fill-opacity="1"><g transform="translate(397.914968, 1465.851085)"><g><path d="M 14.609375 -76.40625 C 18.765625 -76.40625 22.019531 -75.160156 24.375 -72.671875 C 26.738281 -70.191406 27.921875 -66.722656 27.921875 -62.265625 L 27.921875 -14.140625 C 27.921875 -11.222656 27.375 -8.691406 26.28125 -6.546875 C 25.195312 -4.410156 23.660156 -2.785156 21.671875 -1.671875 C 19.691406 -0.554688 17.335938 0 14.609375 0 L 2.890625 0 L 2.890625 -76.40625 Z M 19.921875 -62.71875 C 19.921875 -64.769531 19.4375 -66.335938 18.46875 -67.421875 C 17.507812 -68.503906 16.222656 -69.046875 14.609375 -69.046875 L 10.796875 -69.046875 L 10.796875 -7.359375 L 14.609375 -7.359375 C 16.222656 -7.359375 17.507812 -7.898438 18.46875 -8.984375 C 19.4375 -10.066406 19.921875 -11.632812 19.921875 -13.6875 Z M 19.921875 -62.71875 "/></g></g></g><g fill="#000000" fill-opacity="1"><g transform="translate(482.503522, 1465.851085)"><g><path d="M 21.78125 -7.359375 L 21.78125 0 L 2.890625 0 L 2.890625 -76.40625 L 21.40625 -76.40625 L 21.40625 -69.140625 L 10.890625 -69.140625 L 10.890625 -43 L 20.84375 -43 L 20.84375 -35.734375 L 10.890625 -35.734375 L 10.890625 -7.359375 Z M 21.78125 -7.359375 "/></g></g></g><g fill="#000000" fill-opacity="1"><g transform="translate(559.833992, 1465.851085)"><g><path d="M 19.734375 -21.96875 L 10.703125 -21.96875 L 8.46875 0 L 0.65625 0 L 10.796875 -76.5 L 19.734375 -76.5 L 29.875 0 L 21.96875 0 Z M 18.984375 -29.125 L 15.453125 -63.84375 L 14.984375 -63.84375 L 11.453125 -29.125 Z M 18.984375 -29.125 "/></g></g></g><g fill="#000000" fill-opacity="1"><g transform="translate(644.236433, 1465.851085)"><g><path d="M 14.515625 0.75 C 10.484375 0.75 7.347656 -0.347656 5.109375 -2.546875 C 2.878906 -4.753906 1.765625 -8 1.765625 -12.28125 L 1.765625 -25.21875 L 9.859375 -25.21875 L 9.859375 -12.375 C 9.859375 -10.394531 10.257812 -8.921875 11.0625 -7.953125 C 11.875 -6.992188 12.992188 -6.515625 14.421875 -6.515625 C 15.722656 -6.515625 16.757812 -6.976562 17.53125 -7.90625 C 18.3125 -8.84375 18.703125 -10.113281 18.703125 -11.71875 L 18.703125 -19.734375 C 18.703125 -22.023438 18.375 -24.066406 17.71875 -25.859375 C 17.070312 -27.660156 16.25 -29.195312 15.25 -30.46875 C 14.257812 -31.75 12.898438 -33.316406 11.171875 -35.171875 C 9.117188 -37.347656 7.488281 -39.269531 6.28125 -40.9375 C 5.070312 -42.613281 4.03125 -44.722656 3.15625 -47.265625 C 2.289062 -49.816406 1.859375 -52.828125 1.859375 -56.296875 L 1.859375 -64.5 C 1.859375 -66.976562 2.351562 -69.175781 3.34375 -71.09375 C 4.34375 -73.019531 5.785156 -74.507812 7.671875 -75.5625 C 9.566406 -76.625 11.785156 -77.15625 14.328125 -77.15625 C 18.171875 -77.15625 21.191406 -76.035156 23.390625 -73.796875 C 25.597656 -71.566406 26.703125 -68.46875 26.703125 -64.5 L 26.703125 -51.1875 L 18.609375 -51.1875 L 18.609375 -64.40625 C 18.609375 -66.132812 18.21875 -67.460938 17.4375 -68.390625 C 16.664062 -69.328125 15.660156 -69.796875 14.421875 -69.796875 C 13.117188 -69.796875 12.046875 -69.328125 11.203125 -68.390625 C 10.367188 -67.460938 9.953125 -66.191406 9.953125 -64.578125 L 9.953125 -56.671875 C 9.953125 -54.378906 10.273438 -52.347656 10.921875 -50.578125 C 11.578125 -48.804688 12.414062 -47.253906 13.4375 -45.921875 C 14.46875 -44.585938 15.820312 -43.050781 17.5 -41.3125 C 19.539062 -39.082031 21.164062 -37.128906 22.375 -35.453125 C 23.59375 -33.773438 24.632812 -31.664062 25.5 -29.125 C 26.363281 -26.582031 26.796875 -23.570312 26.796875 -20.09375 L 26.796875 -11.625 C 26.796875 -9.144531 26.300781 -6.972656 25.3125 -5.109375 C 24.320312 -3.253906 22.894531 -1.8125 21.03125 -0.78125 C 19.164062 0.238281 16.992188 0.75 14.515625 0.75 Z M 14.515625 0.75 "/></g></g></g><g fill="#000000" fill-opacity="1"><g transform="translate(727.056974, 1465.851085)"><g/></g></g><g fill="#000000" fill-opacity="1"><g transform="translate(792.104524, 1465.851085)"><g><path d="M 0.5625 -76.40625 L 8.46875 -76.40625 L 14.984375 -12.5625 L 15.453125 -12.5625 L 21.96875 -76.40625 L 29.78125 -76.40625 L 19.640625 0.09375 L 10.703125 0.09375 Z M 0.5625 -76.40625 "/></g></g></g><g fill="#000000" fill-opacity="1"><g transform="translate(876.786122, 1465.851085)"><g><path d="M 2.890625 -76.40625 L 10.890625 -76.40625 L 10.890625 0 L 2.890625 0 Z M 2.890625 -76.40625 "/></g></g></g><g fill="#000000" fill-opacity="1"><g transform="translate(944.811383, 1465.851085)"><g><path d="M 14.515625 0.75 C 10.484375 0.75 7.347656 -0.347656 5.109375 -2.546875 C 2.878906 -4.753906 1.765625 -8 1.765625 -12.28125 L 1.765625 -25.21875 L 9.859375 -25.21875 L 9.859375 -12.375 C 9.859375 -10.394531 10.257812 -8.921875 11.0625 -7.953125 C 11.875 -6.992188 12.992188 -6.515625 14.421875 -6.515625 C 15.722656 -6.515625 16.757812 -6.976562 17.53125 -7.90625 C 18.3125 -8.84375 18.703125 -10.113281 18.703125 -11.71875 L 18.703125 -19.734375 C 18.703125 -22.023438 18.375 -24.066406 17.71875 -25.859375 C 17.070312 -27.660156 16.25 -29.195312 15.25 -30.46875 C 14.257812 -31.75 12.898438 -33.316406 11.171875 -35.171875 C 9.117188 -37.347656 7.488281 -39.269531 6.28125 -40.9375 C 5.070312 -42.613281 4.03125 -44.722656 3.15625 -47.265625 C 2.289062 -49.816406 1.859375 -52.828125 1.859375 -56.296875 L 1.859375 -64.5 C 1.859375 -66.976562 2.351562 -69.175781 3.34375 -71.09375 C 4.34375 -73.019531 5.785156 -74.507812 7.671875 -75.5625 C 9.566406 -76.625 11.785156 -77.15625 14.328125 -77.15625 C 18.171875 -77.15625 21.191406 -76.035156 23.390625 -73.796875 C 25.597656 -71.566406 26.703125 -68.46875 26.703125 -64.5 L 26.703125 -51.1875 L 18.609375 -51.1875 L 18.609375 -64.40625 C 18.609375 -66.132812 18.21875 -67.460938 17.4375 -68.390625 C 16.664062 -69.328125 15.660156 -69.796875 14.421875 -69.796875 C 13.117188 -69.796875 12.046875 -69.328125 11.203125 -68.390625 C 10.367188 -67.460938 9.953125 -66.191406 9.953125 -64.578125 L 9.953125 -56.671875 C 9.953125 -54.378906 10.273438 -52.347656 10.921875 -50.578125 C 11.578125 -48.804688 12.414062 -47.253906 13.4375 -45.921875 C 14.46875 -44.585938 15.820312 -43.050781 17.5 -41.3125 C 19.539062 -39.082031 21.164062 -37.128906 22.375 -35.453125 C 23.59375 -33.773438 24.632812 -31.664062 25.5 -29.125 C 26.363281 -26.582031 26.796875 -23.570312 26.796875 -20.09375 L 26.796875 -11.625 C 26.796875 -9.144531 26.300781 -6.972656 25.3125 -5.109375 C 24.320312 -3.253906 22.894531 -1.8125 21.03125 -0.78125 C 19.164062 0.238281 16.992188 0.75 14.515625 0.75 Z M 14.515625 0.75 "/></g></g></g><g fill="#000000" fill-opacity="1"><g transform="translate(1027.631946, 1465.851085)"><g><path d="M 15.640625 0.75 C 11.359375 0.75 8.113281 -0.378906 5.90625 -2.640625 C 3.707031 -4.910156 2.609375 -8.3125 2.609375 -12.84375 L 2.609375 -76.40625 L 10.609375 -76.40625 L 10.609375 -12.75 C 10.609375 -10.757812 11.039062 -9.285156 11.90625 -8.328125 C 12.78125 -7.367188 14.023438 -6.890625 15.640625 -6.890625 C 17.128906 -6.890625 18.304688 -7.367188 19.171875 -8.328125 C 20.035156 -9.285156 20.46875 -10.757812 20.46875 -12.75 L 20.46875 -76.40625 L 28.5625 -76.40625 L 28.5625 -12.84375 C 28.5625 -8.3125 27.460938 -4.910156 25.265625 -2.640625 C 23.066406 -0.378906 19.859375 0.75 15.640625 0.75 Z M 15.640625 0.75 "/></g></g></g><g fill="#000000" fill-opacity="1"><g transform="translate(1112.220478, 1465.851085)"><g><path d="M 19.734375 -21.96875 L 10.703125 -21.96875 L 8.46875 0 L 0.65625 0 L 10.796875 -76.5 L 19.734375 -76.5 L 29.875 0 L 21.96875 0 Z M 18.984375 -29.125 L 15.453125 -63.84375 L 14.984375 -63.84375 L 11.453125 -29.125 Z M 18.984375 -29.125 "/></g></g></g><g fill="#000000" fill-opacity="1"><g transform="translate(1196.902076, 1465.851085)"><g><path d="M 20.46875 -7.265625 L 20.46875 0 L 2.890625 0 L 2.890625 -76.40625 L 10.796875 -76.40625 L 10.796875 -7.265625 Z M 20.46875 -7.265625 "/></g></g></g><g fill="#000000" fill-opacity="1"><g transform="translate(1272.743702, 1465.851085)"><g><path d="M 2.890625 -76.40625 L 10.890625 -76.40625 L 10.890625 0 L 2.890625 0 Z M 2.890625 -76.40625 "/></g></g></g><g fill="#000000" fill-opacity="1"><g transform="translate(1340.768916, 1465.851085)"><g><path d="M 10.328125 -7.265625 L 22.0625 -7.265625 L 22.0625 0 L 0.9375 0 L 13.125 -69.140625 L 1.296875 -69.140625 L 1.296875 -76.40625 L 22.421875 -76.40625 Z M 10.328125 -7.265625 "/></g></g></g><g fill="#000000" fill-opacity="1"><g transform="translate(1418.471623, 1465.851085)"><g><path d="M 21.78125 -7.359375 L 21.78125 0 L 2.890625 0 L 2.890625 -76.40625 L 21.40625 -76.40625 L 21.40625 -69.140625 L 10.890625 -69.140625 L 10.890625 -43 L 20.84375 -43 L 20.84375 -35.734375 L 10.890625 -35.734375 L 10.890625 -7.359375 Z M 21.78125 -7.359375 "/></g></g></g><g fill="#000000" fill-opacity="1"><g transform="translate(1495.802058, 1465.851085)"><g><path d="M 14.609375 -76.40625 C 18.765625 -76.40625 22.019531 -75.160156 24.375 -72.671875 C 26.738281 -70.191406 27.921875 -66.722656 27.921875 -62.265625 L 27.921875 -14.140625 C 27.921875 -11.222656 27.375 -8.691406 26.28125 -6.546875 C 25.195312 -4.410156 23.660156 -2.785156 21.671875 -1.671875 C 19.691406 -0.554688 17.335938 0 14.609375 0 L 2.890625 0 L 2.890625 -76.40625 Z M 19.921875 -62.71875 C 19.921875 -64.769531 19.4375 -66.335938 18.46875 -67.421875 C 17.507812 -68.503906 16.222656 -69.046875 14.609375 -69.046875 L 10.796875 -69.046875 L 10.796875 -7.359375 L 14.609375 -7.359375 C 16.222656 -7.359375 17.507812 -7.898438 18.46875 -8.984375 C 19.4375 -10.066406 19.921875 -11.632812 19.921875 -13.6875 Z M 19.921875 -62.71875 "/></g></g></g><g fill="#000000" fill-opacity="1"><g transform="translate(1579.55307, 1465.851085)"><g><path d="M 6.515625 0.75 C 5.085938 0.75 3.921875 0.269531 3.015625 -0.6875 C 2.117188 -1.65625 1.671875 -2.757812 1.671875 -4 C 1.671875 -5.300781 2.117188 -6.414062 3.015625 -7.34375 C 3.921875 -8.28125 5.085938 -8.75 6.515625 -8.75 C 7.941406 -8.75 9.101562 -8.28125 10 -7.34375 C 10.90625 -6.414062 11.359375 -5.300781 11.359375 -4 C 11.359375 -2.695312 10.890625 -1.578125 9.953125 -0.640625 C 9.023438 0.285156 7.878906 0.75 6.515625 0.75 Z M 6.515625 0.75 "/></g></g></g></svg>