<svg xmlns="http://www.w3.org/2000/svg" xmlns:xlink="http://www.w3.org/1999/xlink" zoomAndPan="magnify" viewBox="310 1674 1670 340" preserveAspectRatio="xMinYMid meet" version="1.0"><metadata/><defs><g/><clipPath id="6e22c8a683"><rect x="0" width="1033" y="0" height="459"/></clipPath><clipPath id="337e93b5c2"><rect x="0" width="629" y="0" height="459"/></clipPath></defs><g transform="matrix(1, 0, 0, 1, 600, 502)"><g clip-path="url(#6e22c8a683)"><g fill="#000000" fill-opacity="1"><g transform="translate(1.212248, 352.49219)"><g><path d="M 127.0625 -253.078125 C 150.289062 -253.078125 169.941406 -249.265625 186.015625 -241.640625 C 202.097656 -234.015625 215.125 -223.921875 225.09375 -211.359375 C 235.0625 -198.804688 242.273438 -184.492188 246.734375 -168.421875 C 251.191406 -152.347656 253.421875 -135.863281 253.421875 -118.96875 C 253.421875 -100.664062 251.015625 -83.359375 246.203125 -67.046875 C 241.398438 -50.742188 233.832031 -36.488281 223.5 -24.28125 C 213.175781 -12.082031 199.859375 -2.460938 183.546875 4.578125 C 167.242188 11.617188 147.597656 15.140625 124.609375 15.140625 L 28.15625 15.140625 L 28.15625 -253.078125 Z M 75.671875 -26.75 L 121.78125 -26.75 C 148.300781 -26.75 168.894531 -34.664062 183.5625 -50.5 C 198.226562 -66.34375 205.5625 -89.285156 205.5625 -119.328125 C 205.5625 -131.054688 204.09375 -142.4375 201.15625 -153.46875 C 198.226562 -164.5 193.421875 -174.296875 186.734375 -182.859375 C 180.046875 -191.421875 171.363281 -198.28125 160.6875 -203.4375 C 150.007812 -208.601562 136.925781 -211.1875 121.4375 -211.1875 L 75.671875 -211.1875 Z M 75.671875 -26.75 "/></g></g></g><g fill="#000000" fill-opacity="1"><g transform="translate(219.797499, 352.49219)"><g><path d="M 231.953125 -253.078125 L 231.953125 -211.1875 L 75.671875 -211.1875 L 75.671875 -142.90625 L 216.46875 -142.90625 L 216.46875 -100.671875 L 75.671875 -100.671875 L 75.671875 -26.75 L 233.359375 -26.75 L 233.359375 15.140625 L 28.15625 15.140625 L 28.15625 -253.078125 Z M 231.953125 -253.078125 "/></g></g></g><g fill="#000000" fill-opacity="1"><g transform="translate(421.487293, 352.49219)"><g><path d="M 75.671875 -253.078125 L 75.671875 -26.75 L 216.46875 -26.75 L 216.46875 15.140625 L 28.15625 15.140625 L 28.15625 -253.078125 Z M 75.671875 -253.078125 "/></g></g></g><g fill="#000000" fill-opacity="1"><g transform="translate(594.665956, 352.49219)"><g><path d="M 231.953125 -253.078125 L 231.953125 -211.1875 L 75.671875 -211.1875 L 75.671875 -142.90625 L 216.46875 -142.90625 L 216.46875 -100.671875 L 75.671875 -100.671875 L 75.671875 -26.75 L 233.359375 -26.75 L 233.359375 15.140625 L 28.15625 15.140625 L 28.15625 -253.078125 Z M 231.953125 -253.078125 "/></g></g></g><g fill="#000000" fill-opacity="1"><g transform="translate(796.355724, 352.49219)"><g><path d="M 231.953125 -253.078125 L 231.953125 -211.1875 L 75.671875 -211.1875 L 75.671875 -142.90625 L 216.46875 -142.90625 L 216.46875 -100.671875 L 75.671875 -100.671875 L 75.671875 -26.75 L 233.359375 -26.75 L 233.359375 15.140625 L 28.15625 15.140625 L 28.15625 -253.078125 Z M 231.953125 -253.078125 "/></g></g></g></g></g><g transform="matrix(1, 0, 0, 1, 804, 924)"><g clip-path="url(#337e93b5c2)"><g fill="#000000" fill-opacity="1"><g transform="translate(0.33426, 352.879056)"><g><path d="M 75.671875 -253.078125 L 75.671875 -26.75 L 216.46875 -26.75 L 216.46875 15.140625 L 28.15625 15.140625 L 28.15625 -253.078125 Z M 75.671875 -253.078125 "/></g></g></g><g fill="#000000" fill-opacity="1"><g transform="translate(173.512924, 352.879056)"><g><path d="M 109.109375 -253.078125 L 161.90625 -253.078125 L 267.15625 15.140625 L 217.171875 15.140625 L 192.890625 -47.875 L 76.03125 -47.875 L 51.390625 15.140625 L 1.765625 15.140625 Z M 92.578125 -90.109375 L 176.703125 -90.109375 L 135.515625 -198.875 L 135.15625 -198.875 Z M 92.578125 -90.109375 "/></g></g></g><g fill="#000000" fill-opacity="1"><g transform="translate(391.394207, 352.879056)"><g><path d="M 126.359375 -253.078125 C 144.898438 -253.078125 160.5625 -251.492188 173.34375 -248.328125 C 186.132812 -245.160156 196.460938 -240.523438 204.328125 -234.421875 C 212.191406 -228.316406 217.878906 -220.921875 221.390625 -212.234375 C 224.910156 -203.554688 226.671875 -193.585938 226.671875 -182.328125 C 226.671875 -167.078125 222.625 -154.347656 214.53125 -144.140625 C 206.4375 -133.929688 196.054688 -126.476562 183.390625 -121.78125 C 200.984375 -117.789062 214.0625 -110.28125 222.625 -99.25 C 231.195312 -88.226562 235.484375 -75.5625 235.484375 -61.25 C 235.484375 -34.96875 227.328125 -15.664062 211.015625 -3.34375 C 194.703125 8.976562 169.769531 15.140625 136.21875 15.140625 L 28.15625 15.140625 L 28.15625 -253.078125 Z M 76.03125 -26.75 L 126.359375 -26.75 C 147.015625 -26.75 162.382812 -29.625 172.46875 -35.375 C 182.5625 -41.125 187.609375 -50.566406 187.609375 -63.703125 C 187.609375 -70.984375 186.140625 -76.96875 183.203125 -81.65625 C 180.273438 -86.351562 176.050781 -89.988281 170.53125 -92.5625 C 165.019531 -95.144531 158.507812 -96.960938 151 -98.015625 C 143.488281 -99.078125 135.160156 -99.609375 126.015625 -99.609375 L 76.03125 -99.609375 Z M 76.03125 -141.84375 L 121.78125 -141.84375 C 138.675781 -141.84375 152.460938 -144.660156 163.140625 -150.296875 C 173.816406 -155.929688 179.15625 -164.734375 179.15625 -176.703125 C 179.15625 -189.128906 174.34375 -197.984375 164.71875 -203.265625 C 155.101562 -208.546875 140.675781 -211.1875 121.4375 -211.1875 L 76.03125 -211.1875 Z M 76.03125 -141.84375 "/></g></g></g></g></g><g fill="#000000" fill-opacity="1"><g transform="translate(635.20425, 1740.286775)"><g><path d="M 42.984375 -31.4375 C 47.253906 -30.53125 50.453125 -29.078125 52.578125 -27.078125 C 55.515625 -24.296875 56.984375 -20.890625 56.984375 -16.859375 C 56.984375 -13.796875 56.015625 -10.863281 54.078125 -8.0625 C 52.140625 -5.257812 49.476562 -3.210938 46.09375 -1.921875 C 42.71875 -0.640625 37.5625 0 30.625 0 L 1.546875 0 L 1.546875 -1.6875 L 3.859375 -1.6875 C 6.429688 -1.6875 8.28125 -2.503906 9.40625 -4.140625 C 10.101562 -5.191406 10.453125 -7.445312 10.453125 -10.90625 L 10.453125 -50.71875 C 10.453125 -54.53125 10.015625 -56.9375 9.140625 -57.9375 C 7.953125 -59.269531 6.191406 -59.9375 3.859375 -59.9375 L 1.546875 -59.9375 L 1.546875 -61.625 L 28.171875 -61.625 C 33.140625 -61.625 37.125 -61.257812 40.125 -60.53125 C 44.664062 -59.4375 48.132812 -57.503906 50.53125 -54.734375 C 52.925781 -51.960938 54.125 -48.773438 54.125 -45.171875 C 54.125 -42.078125 53.179688 -39.3125 51.296875 -36.875 C 49.421875 -34.4375 46.648438 -32.625 42.984375 -31.4375 Z M 19.171875 -33.90625 C 20.296875 -33.6875 21.578125 -33.523438 23.015625 -33.421875 C 24.453125 -33.316406 26.035156 -33.265625 27.765625 -33.265625 C 32.191406 -33.265625 35.515625 -33.738281 37.734375 -34.6875 C 39.960938 -35.644531 41.664062 -37.109375 42.84375 -39.078125 C 44.03125 -41.046875 44.625 -43.195312 44.625 -45.53125 C 44.625 -49.132812 43.15625 -52.207031 40.21875 -54.75 C 37.28125 -57.300781 32.992188 -58.578125 27.359375 -58.578125 C 24.328125 -58.578125 21.597656 -58.242188 19.171875 -57.578125 Z M 19.171875 -4.453125 C 22.691406 -3.628906 26.160156 -3.21875 29.578125 -3.21875 C 35.066406 -3.21875 39.25 -4.453125 42.125 -6.921875 C 45 -9.398438 46.4375 -12.457031 46.4375 -16.09375 C 46.4375 -18.476562 45.785156 -20.773438 44.484375 -22.984375 C 43.179688 -25.203125 41.0625 -26.945312 38.125 -28.21875 C 35.1875 -29.488281 31.550781 -30.125 27.21875 -30.125 C 25.34375 -30.125 23.738281 -30.09375 22.40625 -30.03125 C 21.070312 -29.976562 19.992188 -29.875 19.171875 -29.71875 Z M 19.171875 -4.453125 "/></g></g></g><g fill="#000000" fill-opacity="1"><g transform="translate(751.52294, 1740.286775)"><g><path d="M 34.03125 -63.03125 C 42.03125 -63.03125 48.957031 -59.988281 54.8125 -53.90625 C 60.675781 -47.832031 63.609375 -40.253906 63.609375 -31.171875 C 63.609375 -21.804688 60.65625 -14.035156 54.75 -7.859375 C 48.84375 -1.679688 41.695312 1.40625 33.3125 1.40625 C 24.820312 1.40625 17.691406 -1.601562 11.921875 -7.625 C 6.148438 -13.65625 3.265625 -21.457031 3.265625 -31.03125 C 3.265625 -40.820312 6.597656 -48.804688 13.265625 -54.984375 C 19.054688 -60.347656 25.976562 -63.03125 34.03125 -63.03125 Z M 33.171875 -59.703125 C 27.660156 -59.703125 23.238281 -57.660156 19.90625 -53.578125 C 15.75 -48.484375 13.671875 -41.03125 13.671875 -31.21875 C 13.671875 -21.15625 15.820312 -13.414062 20.125 -8 C 23.425781 -3.875 27.789062 -1.8125 33.21875 -1.8125 C 39 -1.8125 43.773438 -4.066406 47.546875 -8.578125 C 51.328125 -13.097656 53.21875 -20.222656 53.21875 -29.953125 C 53.21875 -40.492188 51.140625 -48.351562 46.984375 -53.53125 C 43.648438 -57.644531 39.046875 -59.703125 33.171875 -59.703125 Z M 33.171875 -59.703125 "/></g></g></g><g fill="#000000" fill-opacity="1"><g transform="translate(872.975868, 1740.286775)"><g><path d="M 62.890625 0 L 46.4375 0 L 25.578125 -28.8125 C 24.035156 -28.75 22.78125 -28.71875 21.8125 -28.71875 C 21.414062 -28.71875 20.988281 -28.722656 20.53125 -28.734375 C 20.082031 -28.753906 19.613281 -28.78125 19.125 -28.8125 L 19.125 -10.90625 C 19.125 -7.03125 19.550781 -4.625 20.40625 -3.6875 C 21.550781 -2.351562 23.273438 -1.6875 25.578125 -1.6875 L 27.984375 -1.6875 L 27.984375 0 L 1.59375 0 L 1.59375 -1.6875 L 3.90625 -1.6875 C 6.507812 -1.6875 8.375 -2.53125 9.5 -4.21875 C 10.132812 -5.164062 10.453125 -7.394531 10.453125 -10.90625 L 10.453125 -50.71875 C 10.453125 -54.59375 10.023438 -57 9.171875 -57.9375 C 7.992188 -59.269531 6.238281 -59.9375 3.90625 -59.9375 L 1.59375 -59.9375 L 1.59375 -61.625 L 24.03125 -61.625 C 30.582031 -61.625 35.410156 -61.144531 38.515625 -60.1875 C 41.617188 -59.226562 44.253906 -57.46875 46.421875 -54.90625 C 48.585938 -52.351562 49.671875 -49.304688 49.671875 -45.765625 C 49.671875 -41.972656 48.4375 -38.679688 45.96875 -35.890625 C 43.5 -33.109375 39.671875 -31.140625 34.484375 -29.984375 L 47.21875 -12.3125 C 50.125 -8.25 52.617188 -5.550781 54.703125 -4.21875 C 56.796875 -2.894531 59.523438 -2.050781 62.890625 -1.6875 Z M 19.125 -31.671875 C 19.707031 -31.671875 20.207031 -31.660156 20.625 -31.640625 C 21.050781 -31.628906 21.398438 -31.625 21.671875 -31.625 C 27.546875 -31.625 31.972656 -32.894531 34.953125 -35.4375 C 37.941406 -37.988281 39.4375 -41.234375 39.4375 -45.171875 C 39.4375 -49.015625 38.234375 -52.140625 35.828125 -54.546875 C 33.421875 -56.960938 30.234375 -58.171875 26.265625 -58.171875 C 24.503906 -58.171875 22.125 -57.878906 19.125 -57.296875 Z M 19.125 -31.671875 "/></g></g></g><g fill="#000000" fill-opacity="1"><g transform="translate(989.294558, 1740.286775)"><g><path d="M -1.234375 -61.625 L 15.5 -61.625 L 53.171875 -15.40625 L 53.171875 -50.9375 C 53.171875 -54.726562 52.742188 -57.09375 51.890625 -58.03125 C 50.773438 -59.300781 49.003906 -59.9375 46.578125 -59.9375 L 44.4375 -59.9375 L 44.4375 -61.625 L 65.890625 -61.625 L 65.890625 -59.9375 L 63.703125 -59.9375 C 61.097656 -59.9375 59.253906 -59.148438 58.171875 -57.578125 C 57.503906 -56.609375 57.171875 -54.394531 57.171875 -50.9375 L 57.171875 1 L 55.53125 1 L 14.90625 -48.625 L 14.90625 -10.671875 C 14.90625 -6.890625 15.3125 -4.53125 16.125 -3.59375 C 17.28125 -2.320312 19.054688 -1.6875 21.453125 -1.6875 L 23.625 -1.6875 L 23.625 0 L 2.1875 0 L 2.1875 -1.6875 L 4.3125 -1.6875 C 6.945312 -1.6875 8.8125 -2.472656 9.90625 -4.046875 C 10.570312 -5.015625 10.90625 -7.222656 10.90625 -10.671875 L 10.90625 -53.53125 C 9.113281 -55.625 7.753906 -57 6.828125 -57.65625 C 5.910156 -58.320312 4.554688 -58.945312 2.765625 -59.53125 C 1.890625 -59.800781 0.554688 -59.9375 -1.234375 -59.9375 Z M -1.234375 -61.625 "/></g></g></g><g fill="#000000" fill-opacity="1"><g transform="translate(1110.747487, 1740.286775)"><g/></g></g><g fill="#000000" fill-opacity="1"><g transform="translate(1188.264057, 1740.286775)"><g><path d="M 19.046875 -58.25 L 19.046875 -34.03125 L 30.265625 -34.03125 C 32.835938 -34.03125 34.722656 -34.597656 35.921875 -35.734375 C 37.117188 -36.867188 37.914062 -39.117188 38.3125 -42.484375 L 39.984375 -42.484375 L 39.984375 -21.625 L 38.3125 -21.625 C 38.28125 -24.019531 37.96875 -25.773438 37.375 -26.890625 C 36.78125 -28.015625 35.960938 -28.859375 34.921875 -29.421875 C 33.878906 -29.984375 32.328125 -30.265625 30.265625 -30.265625 L 19.046875 -30.265625 L 19.046875 -10.90625 C 19.046875 -7.78125 19.238281 -5.71875 19.625 -4.71875 C 19.925781 -3.96875 20.5625 -3.316406 21.53125 -2.765625 C 22.863281 -2.046875 24.257812 -1.6875 25.71875 -1.6875 L 27.953125 -1.6875 L 27.953125 0 L 1.5 0 L 1.5 -1.6875 L 3.6875 -1.6875 C 6.226562 -1.6875 8.070312 -2.425781 9.21875 -3.90625 C 9.945312 -4.875 10.3125 -7.207031 10.3125 -10.90625 L 10.3125 -50.71875 C 10.3125 -53.832031 10.113281 -55.890625 9.71875 -56.890625 C 9.414062 -57.648438 8.796875 -58.300781 7.859375 -58.84375 C 6.554688 -59.570312 5.164062 -59.9375 3.6875 -59.9375 L 1.5 -59.9375 L 1.5 -61.625 L 47.34375 -61.625 L 47.9375 -48.078125 L 46.34375 -48.078125 C 45.5625 -50.953125 44.644531 -53.0625 43.59375 -54.40625 C 42.550781 -55.757812 41.265625 -56.738281 39.734375 -57.34375 C 38.203125 -57.945312 35.832031 -58.25 32.625 -58.25 Z M 19.046875 -58.25 "/></g></g></g><g fill="#000000" fill-opacity="1"><g transform="translate(1294.268835, 1740.286775)"><g><path d="M 62.890625 0 L 46.4375 0 L 25.578125 -28.8125 C 24.035156 -28.75 22.78125 -28.71875 21.8125 -28.71875 C 21.414062 -28.71875 20.988281 -28.722656 20.53125 -28.734375 C 20.082031 -28.753906 19.613281 -28.78125 19.125 -28.8125 L 19.125 -10.90625 C 19.125 -7.03125 19.550781 -4.625 20.40625 -3.6875 C 21.550781 -2.351562 23.273438 -1.6875 25.578125 -1.6875 L 27.984375 -1.6875 L 27.984375 0 L 1.59375 0 L 1.59375 -1.6875 L 3.90625 -1.6875 C 6.507812 -1.6875 8.375 -2.53125 9.5 -4.21875 C 10.132812 -5.164062 10.453125 -7.394531 10.453125 -10.90625 L 10.453125 -50.71875 C 10.453125 -54.59375 10.023438 -57 9.171875 -57.9375 C 7.992188 -59.269531 6.238281 -59.9375 3.90625 -59.9375 L 1.59375 -59.9375 L 1.59375 -61.625 L 24.03125 -61.625 C 30.582031 -61.625 35.410156 -61.144531 38.515625 -60.1875 C 41.617188 -59.226562 44.253906 -57.46875 46.421875 -54.90625 C 48.585938 -52.351562 49.671875 -49.304688 49.671875 -45.765625 C 49.671875 -41.972656 48.4375 -38.679688 45.96875 -35.890625 C 43.5 -33.109375 39.671875 -31.140625 34.484375 -29.984375 L 47.21875 -12.3125 C 50.125 -8.25 52.617188 -5.550781 54.703125 -4.21875 C 56.796875 -2.894531 59.523438 -2.050781 62.890625 -1.6875 Z M 19.125 -31.671875 C 19.707031 -31.671875 20.207031 -31.660156 20.625 -31.640625 C 21.050781 -31.628906 21.398438 -31.625 21.671875 -31.625 C 27.546875 -31.625 31.972656 -32.894531 34.953125 -35.4375 C 37.941406 -37.988281 39.4375 -41.234375 39.4375 -45.171875 C 39.4375 -49.015625 38.234375 -52.140625 35.828125 -54.546875 C 33.421875 -56.960938 30.234375 -58.171875 26.265625 -58.171875 C 24.503906 -58.171875 22.125 -57.878906 19.125 -57.296875 Z M 19.125 -31.671875 "/></g></g></g><g fill="#000000" fill-opacity="1"><g transform="translate(1410.587571, 1740.286775)"><g><path d="M 34.03125 -63.03125 C 42.03125 -63.03125 48.957031 -59.988281 54.8125 -53.90625 C 60.675781 -47.832031 63.609375 -40.253906 63.609375 -31.171875 C 63.609375 -21.804688 60.65625 -14.035156 54.75 -7.859375 C 48.84375 -1.679688 41.695312 1.40625 33.3125 1.40625 C 24.820312 1.40625 17.691406 -1.601562 11.921875 -7.625 C 6.148438 -13.65625 3.265625 -21.457031 3.265625 -31.03125 C 3.265625 -40.820312 6.597656 -48.804688 13.265625 -54.984375 C 19.054688 -60.347656 25.976562 -63.03125 34.03125 -63.03125 Z M 33.171875 -59.703125 C 27.660156 -59.703125 23.238281 -57.660156 19.90625 -53.578125 C 15.75 -48.484375 13.671875 -41.03125 13.671875 -31.21875 C 13.671875 -21.15625 15.820312 -13.414062 20.125 -8 C 23.425781 -3.875 27.789062 -1.8125 33.21875 -1.8125 C 39 -1.8125 43.773438 -4.066406 47.546875 -8.578125 C 51.328125 -13.097656 53.21875 -20.222656 53.21875 -29.953125 C 53.21875 -40.492188 51.140625 -48.351562 46.984375 -53.53125 C 43.648438 -57.644531 39.046875 -59.703125 33.171875 -59.703125 Z M 33.171875 -59.703125 "/></g></g></g><g fill="#000000" fill-opacity="1"><g transform="translate(1532.040454, 1740.286775)"><g><path d="M 38.078125 0 L 14.265625 -51.84375 L 14.265625 -10.671875 C 14.265625 -6.890625 14.675781 -4.53125 15.5 -3.59375 C 16.613281 -2.320312 18.382812 -1.6875 20.8125 -1.6875 L 23 -1.6875 L 23 0 L 1.546875 0 L 1.546875 -1.6875 L 3.71875 -1.6875 C 6.332031 -1.6875 8.179688 -2.472656 9.265625 -4.046875 C 9.929688 -5.015625 10.265625 -7.222656 10.265625 -10.671875 L 10.265625 -50.9375 C 10.265625 -53.664062 9.960938 -55.632812 9.359375 -56.84375 C 8.929688 -57.726562 8.148438 -58.460938 7.015625 -59.046875 C 5.878906 -59.640625 4.054688 -59.9375 1.546875 -59.9375 L 1.546875 -61.625 L 19 -61.625 L 41.34375 -13.40625 L 63.34375 -61.625 L 80.796875 -61.625 L 80.796875 -59.9375 L 78.65625 -59.9375 C 76.019531 -59.9375 74.15625 -59.148438 73.0625 -57.578125 C 72.394531 -56.609375 72.0625 -54.394531 72.0625 -50.9375 L 72.0625 -10.671875 C 72.0625 -6.890625 72.488281 -4.53125 73.34375 -3.59375 C 74.457031 -2.320312 76.226562 -1.6875 78.65625 -1.6875 L 80.796875 -1.6875 L 80.796875 0 L 54.625 0 L 54.625 -1.6875 L 56.796875 -1.6875 C 59.429688 -1.6875 61.28125 -2.472656 62.34375 -4.046875 C 63.007812 -5.015625 63.34375 -7.222656 63.34375 -10.671875 L 63.34375 -51.84375 L 39.578125 0 Z M 38.078125 0 "/></g></g></g><g fill="#000000" fill-opacity="1"><g transform="translate(715.418596, 1869.979129)"><g><path d="M 28.71875 -1.6875 L 28.71875 0 L 2.3125 0 L 2.3125 -1.6875 L 4.5 -1.6875 C 7.039062 -1.6875 8.890625 -2.425781 10.046875 -3.90625 C 10.773438 -4.875 11.140625 -7.207031 11.140625 -10.90625 L 11.140625 -50.71875 C 11.140625 -53.832031 10.941406 -55.890625 10.546875 -56.890625 C 10.242188 -57.648438 9.617188 -58.300781 8.671875 -58.84375 C 7.347656 -59.570312 5.957031 -59.9375 4.5 -59.9375 L 2.3125 -59.9375 L 2.3125 -61.625 L 28.71875 -61.625 L 28.71875 -59.9375 L 26.484375 -59.9375 C 23.972656 -59.9375 22.144531 -59.191406 21 -57.703125 C 20.238281 -56.734375 19.859375 -54.40625 19.859375 -50.71875 L 19.859375 -10.90625 C 19.859375 -7.78125 20.054688 -5.71875 20.453125 -4.71875 C 20.753906 -3.96875 21.390625 -3.316406 22.359375 -2.765625 C 23.660156 -2.046875 25.035156 -1.6875 26.484375 -1.6875 Z M 28.71875 -1.6875 "/></g></g></g><g fill="#000000" fill-opacity="1"><g transform="translate(800.659242, 1869.979129)"><g><path d="M -1.234375 -61.625 L 15.5 -61.625 L 53.171875 -15.40625 L 53.171875 -50.9375 C 53.171875 -54.726562 52.742188 -57.09375 51.890625 -58.03125 C 50.773438 -59.300781 49.003906 -59.9375 46.578125 -59.9375 L 44.4375 -59.9375 L 44.4375 -61.625 L 65.890625 -61.625 L 65.890625 -59.9375 L 63.703125 -59.9375 C 61.097656 -59.9375 59.253906 -59.148438 58.171875 -57.578125 C 57.503906 -56.609375 57.171875 -54.394531 57.171875 -50.9375 L 57.171875 1 L 55.53125 1 L 14.90625 -48.625 L 14.90625 -10.671875 C 14.90625 -6.890625 15.3125 -4.53125 16.125 -3.59375 C 17.28125 -2.320312 19.054688 -1.6875 21.453125 -1.6875 L 23.625 -1.6875 L 23.625 0 L 2.1875 0 L 2.1875 -1.6875 L 4.3125 -1.6875 C 6.945312 -1.6875 8.8125 -2.472656 9.90625 -4.046875 C 10.570312 -5.015625 10.90625 -7.222656 10.90625 -10.671875 L 10.90625 -53.53125 C 9.113281 -55.625 7.753906 -57 6.828125 -57.65625 C 5.910156 -58.320312 4.554688 -58.945312 2.765625 -59.53125 C 1.890625 -59.800781 0.554688 -59.9375 -1.234375 -59.9375 Z M -1.234375 -61.625 "/></g></g></g><g fill="#000000" fill-opacity="1"><g transform="translate(922.112171, 1869.979129)"><g><path d="M 53.84375 -61.625 L 54.53125 -47.171875 L 52.796875 -47.171875 C 52.460938 -49.710938 52.007812 -51.53125 51.4375 -52.625 C 50.5 -54.375 49.25 -55.664062 47.6875 -56.5 C 46.125 -57.332031 44.070312 -57.75 41.53125 -57.75 L 32.859375 -57.75 L 32.859375 -10.671875 C 32.859375 -6.890625 33.265625 -4.53125 34.078125 -3.59375 C 35.234375 -2.320312 37.003906 -1.6875 39.390625 -1.6875 L 41.53125 -1.6875 L 41.53125 0 L 15.40625 0 L 15.40625 -1.6875 L 17.578125 -1.6875 C 20.191406 -1.6875 22.039062 -2.472656 23.125 -4.046875 C 23.789062 -5.015625 24.125 -7.222656 24.125 -10.671875 L 24.125 -57.75 L 16.71875 -57.75 C 13.84375 -57.75 11.800781 -57.539062 10.59375 -57.125 C 9.007812 -56.539062 7.65625 -55.429688 6.53125 -53.796875 C 5.414062 -52.160156 4.753906 -49.953125 4.546875 -47.171875 L 2.8125 -47.171875 L 3.546875 -61.625 Z M 53.84375 -61.625 "/></g></g></g><g fill="#000000" fill-opacity="1"><g transform="translate(1033.205751, 1869.979129)"><g><path d="M 19.453125 -58.25 L 19.453125 -33.90625 L 32.984375 -33.90625 C 36.503906 -33.90625 38.851562 -34.429688 40.03125 -35.484375 C 41.601562 -36.878906 42.484375 -39.332031 42.671875 -42.84375 L 44.34375 -42.84375 L 44.34375 -21.40625 L 42.671875 -21.40625 C 42.242188 -24.40625 41.816406 -26.328125 41.390625 -27.171875 C 40.847656 -28.234375 39.957031 -29.066406 38.71875 -29.671875 C 37.476562 -30.273438 35.566406 -30.578125 32.984375 -30.578125 L 19.453125 -30.578125 L 19.453125 -10.265625 C 19.453125 -7.546875 19.570312 -5.890625 19.8125 -5.296875 C 20.050781 -4.703125 20.472656 -4.226562 21.078125 -3.875 C 21.691406 -3.53125 22.84375 -3.359375 24.53125 -3.359375 L 34.984375 -3.359375 C 38.472656 -3.359375 41.003906 -3.597656 42.578125 -4.078125 C 44.148438 -4.566406 45.664062 -5.523438 47.125 -6.953125 C 49 -8.828125 50.921875 -11.660156 52.890625 -15.453125 L 54.703125 -15.453125 L 49.390625 0 L 1.90625 0 L 1.90625 -1.6875 L 4.09375 -1.6875 C 5.539062 -1.6875 6.914062 -2.03125 8.21875 -2.71875 C 9.1875 -3.207031 9.84375 -3.9375 10.1875 -4.90625 C 10.539062 -5.875 10.71875 -7.859375 10.71875 -10.859375 L 10.71875 -50.890625 C 10.71875 -54.796875 10.328125 -57.207031 9.546875 -58.125 C 8.453125 -59.332031 6.632812 -59.9375 4.09375 -59.9375 L 1.90625 -59.9375 L 1.90625 -61.625 L 49.390625 -61.625 L 50.078125 -48.125 L 48.296875 -48.125 C 47.660156 -51.363281 46.957031 -53.585938 46.1875 -54.796875 C 45.414062 -56.015625 44.273438 -56.941406 42.765625 -57.578125 C 41.546875 -58.023438 39.410156 -58.25 36.359375 -58.25 Z M 19.453125 -58.25 "/></g></g></g><g fill="#000000" fill-opacity="1"><g transform="translate(1144.299332, 1869.979129)"><g><path d="M 62.890625 0 L 46.4375 0 L 25.578125 -28.8125 C 24.035156 -28.75 22.78125 -28.71875 21.8125 -28.71875 C 21.414062 -28.71875 20.988281 -28.722656 20.53125 -28.734375 C 20.082031 -28.753906 19.613281 -28.78125 19.125 -28.8125 L 19.125 -10.90625 C 19.125 -7.03125 19.550781 -4.625 20.40625 -3.6875 C 21.550781 -2.351562 23.273438 -1.6875 25.578125 -1.6875 L 27.984375 -1.6875 L 27.984375 0 L 1.59375 0 L 1.59375 -1.6875 L 3.90625 -1.6875 C 6.507812 -1.6875 8.375 -2.53125 9.5 -4.21875 C 10.132812 -5.164062 10.453125 -7.394531 10.453125 -10.90625 L 10.453125 -50.71875 C 10.453125 -54.59375 10.023438 -57 9.171875 -57.9375 C 7.992188 -59.269531 6.238281 -59.9375 3.90625 -59.9375 L 1.59375 -59.9375 L 1.59375 -61.625 L 24.03125 -61.625 C 30.582031 -61.625 35.410156 -61.144531 38.515625 -60.1875 C 41.617188 -59.226562 44.253906 -57.46875 46.421875 -54.90625 C 48.585938 -52.351562 49.671875 -49.304688 49.671875 -45.765625 C 49.671875 -41.972656 48.4375 -38.679688 45.96875 -35.890625 C 43.5 -33.109375 39.671875 -31.140625 34.484375 -29.984375 L 47.21875 -12.3125 C 50.125 -8.25 52.617188 -5.550781 54.703125 -4.21875 C 56.796875 -2.894531 59.523438 -2.050781 62.890625 -1.6875 Z M 19.125 -31.671875 C 19.707031 -31.671875 20.207031 -31.660156 20.625 -31.640625 C 21.050781 -31.628906 21.398438 -31.625 21.671875 -31.625 C 27.546875 -31.625 31.972656 -32.894531 34.953125 -35.4375 C 37.941406 -37.988281 39.4375 -41.234375 39.4375 -45.171875 C 39.4375 -49.015625 38.234375 -52.140625 35.828125 -54.546875 C 33.421875 -56.960938 30.234375 -58.171875 26.265625 -58.171875 C 24.503906 -58.171875 22.125 -57.878906 19.125 -57.296875 Z M 19.125 -31.671875 "/></g></g></g><g fill="#000000" fill-opacity="1"><g transform="translate(1260.618022, 1869.979129)"><g><path d="M 19.453125 -58.25 L 19.453125 -33.90625 L 32.984375 -33.90625 C 36.503906 -33.90625 38.851562 -34.429688 40.03125 -35.484375 C 41.601562 -36.878906 42.484375 -39.332031 42.671875 -42.84375 L 44.34375 -42.84375 L 44.34375 -21.40625 L 42.671875 -21.40625 C 42.242188 -24.40625 41.816406 -26.328125 41.390625 -27.171875 C 40.847656 -28.234375 39.957031 -29.066406 38.71875 -29.671875 C 37.476562 -30.273438 35.566406 -30.578125 32.984375 -30.578125 L 19.453125 -30.578125 L 19.453125 -10.265625 C 19.453125 -7.546875 19.570312 -5.890625 19.8125 -5.296875 C 20.050781 -4.703125 20.472656 -4.226562 21.078125 -3.875 C 21.691406 -3.53125 22.84375 -3.359375 24.53125 -3.359375 L 34.984375 -3.359375 C 38.472656 -3.359375 41.003906 -3.597656 42.578125 -4.078125 C 44.148438 -4.566406 45.664062 -5.523438 47.125 -6.953125 C 49 -8.828125 50.921875 -11.660156 52.890625 -15.453125 L 54.703125 -15.453125 L 49.390625 0 L 1.90625 0 L 1.90625 -1.6875 L 4.09375 -1.6875 C 5.539062 -1.6875 6.914062 -2.03125 8.21875 -2.71875 C 9.1875 -3.207031 9.84375 -3.9375 10.1875 -4.90625 C 10.539062 -5.875 10.71875 -7.859375 10.71875 -10.859375 L 10.71875 -50.890625 C 10.71875 -54.796875 10.328125 -57.207031 9.546875 -58.125 C 8.453125 -59.332031 6.632812 -59.9375 4.09375 -59.9375 L 1.90625 -59.9375 L 1.90625 -61.625 L 49.390625 -61.625 L 50.078125 -48.125 L 48.296875 -48.125 C 47.660156 -51.363281 46.957031 -53.585938 46.1875 -54.796875 C 45.414062 -56.015625 44.273438 -56.941406 42.765625 -57.578125 C 41.546875 -58.023438 39.410156 -58.25 36.359375 -58.25 Z M 19.453125 -58.25 "/></g></g></g><g fill="#000000" fill-opacity="1"><g transform="translate(1371.711603, 1869.979129)"><g><path d="M 42.671875 -63.03125 L 42.671875 -41.71875 L 40.984375 -41.71875 C 40.441406 -45.800781 39.460938 -49.054688 38.046875 -51.484375 C 36.640625 -53.910156 34.632812 -55.832031 32.03125 -57.25 C 29.425781 -58.675781 26.734375 -59.390625 23.953125 -59.390625 C 20.796875 -59.390625 18.1875 -58.425781 16.125 -56.5 C 14.070312 -54.582031 13.046875 -52.394531 13.046875 -49.9375 C 13.046875 -48.0625 13.695312 -46.347656 15 -44.796875 C 16.875 -42.523438 21.34375 -39.5 28.40625 -35.71875 C 34.15625 -32.625 38.082031 -30.25 40.1875 -28.59375 C 42.289062 -26.945312 43.910156 -25.003906 45.046875 -22.765625 C 46.191406 -20.523438 46.765625 -18.175781 46.765625 -15.71875 C 46.765625 -11.050781 44.953125 -7.03125 41.328125 -3.65625 C 37.703125 -0.28125 33.046875 1.40625 27.359375 1.40625 C 25.566406 1.40625 23.882812 1.269531 22.3125 1 C 21.375 0.84375 19.425781 0.289062 16.46875 -0.65625 C 13.519531 -1.613281 11.648438 -2.09375 10.859375 -2.09375 C 10.097656 -2.09375 9.5 -1.863281 9.0625 -1.40625 C 8.625 -0.957031 8.300781 -0.0195312 8.09375 1.40625 L 6.40625 1.40625 L 6.40625 -19.71875 L 8.09375 -19.71875 C 8.875 -15.300781 9.929688 -11.992188 11.265625 -9.796875 C 12.597656 -7.597656 14.632812 -5.769531 17.375 -4.3125 C 20.125 -2.863281 23.132812 -2.140625 26.40625 -2.140625 C 30.1875 -2.140625 33.175781 -3.140625 35.375 -5.140625 C 37.570312 -7.140625 38.671875 -9.5 38.671875 -12.21875 C 38.671875 -13.738281 38.253906 -15.269531 37.421875 -16.8125 C 36.585938 -18.351562 35.289062 -19.789062 33.53125 -21.125 C 32.351562 -22.039062 29.128906 -23.972656 23.859375 -26.921875 C 18.585938 -29.878906 14.835938 -32.234375 12.609375 -33.984375 C 10.378906 -35.742188 8.6875 -37.679688 7.53125 -39.796875 C 6.382812 -41.921875 5.8125 -44.253906 5.8125 -46.796875 C 5.8125 -51.222656 7.507812 -55.035156 10.90625 -58.234375 C 14.300781 -61.429688 18.617188 -63.03125 23.859375 -63.03125 C 27.128906 -63.03125 30.597656 -62.226562 34.265625 -60.625 C 35.960938 -59.863281 37.160156 -59.484375 37.859375 -59.484375 C 38.640625 -59.484375 39.28125 -59.71875 39.78125 -60.1875 C 40.28125 -60.65625 40.679688 -61.601562 40.984375 -63.03125 Z M 42.671875 -63.03125 "/></g></g></g><g fill="#000000" fill-opacity="1"><g transform="translate(1477.716381, 1869.979129)"><g><path d="M 53.84375 -61.625 L 54.53125 -47.171875 L 52.796875 -47.171875 C 52.460938 -49.710938 52.007812 -51.53125 51.4375 -52.625 C 50.5 -54.375 49.25 -55.664062 47.6875 -56.5 C 46.125 -57.332031 44.070312 -57.75 41.53125 -57.75 L 32.859375 -57.75 L 32.859375 -10.671875 C 32.859375 -6.890625 33.265625 -4.53125 34.078125 -3.59375 C 35.234375 -2.320312 37.003906 -1.6875 39.390625 -1.6875 L 41.53125 -1.6875 L 41.53125 0 L 15.40625 0 L 15.40625 -1.6875 L 17.578125 -1.6875 C 20.191406 -1.6875 22.039062 -2.472656 23.125 -4.046875 C 23.789062 -5.015625 24.125 -7.222656 24.125 -10.671875 L 24.125 -57.75 L 16.71875 -57.75 C 13.84375 -57.75 11.800781 -57.539062 10.59375 -57.125 C 9.007812 -56.539062 7.65625 -55.429688 6.53125 -53.796875 C 5.414062 -52.160156 4.753906 -49.953125 4.546875 -47.171875 L 2.8125 -47.171875 L 3.546875 -61.625 Z M 53.84375 -61.625 "/></g></g></g><g fill="#000000" fill-opacity="1"><g transform="translate(310.024567, 1999.671484)"><g/></g></g><g fill="#000000" fill-opacity="1"><g transform="translate(387.544798, 1999.671484)"><g><path d="M 42.984375 -31.4375 C 47.253906 -30.53125 50.453125 -29.078125 52.578125 -27.078125 C 55.515625 -24.296875 56.984375 -20.890625 56.984375 -16.859375 C 56.984375 -13.796875 56.015625 -10.863281 54.078125 -8.0625 C 52.140625 -5.257812 49.476562 -3.210938 46.09375 -1.921875 C 42.71875 -0.640625 37.5625 0 30.625 0 L 1.546875 0 L 1.546875 -1.6875 L 3.859375 -1.6875 C 6.429688 -1.6875 8.28125 -2.503906 9.40625 -4.140625 C 10.101562 -5.191406 10.453125 -7.445312 10.453125 -10.90625 L 10.453125 -50.71875 C 10.453125 -54.53125 10.015625 -56.9375 9.140625 -57.9375 C 7.953125 -59.269531 6.191406 -59.9375 3.859375 -59.9375 L 1.546875 -59.9375 L 1.546875 -61.625 L 28.171875 -61.625 C 33.140625 -61.625 37.125 -61.257812 40.125 -60.53125 C 44.664062 -59.4375 48.132812 -57.503906 50.53125 -54.734375 C 52.925781 -51.960938 54.125 -48.773438 54.125 -45.171875 C 54.125 -42.078125 53.179688 -39.3125 51.296875 -36.875 C 49.421875 -34.4375 46.648438 -32.625 42.984375 -31.4375 Z M 19.171875 -33.90625 C 20.296875 -33.6875 21.578125 -33.523438 23.015625 -33.421875 C 24.453125 -33.316406 26.035156 -33.265625 27.765625 -33.265625 C 32.191406 -33.265625 35.515625 -33.738281 37.734375 -34.6875 C 39.960938 -35.644531 41.664062 -37.109375 42.84375 -39.078125 C 44.03125 -41.046875 44.625 -43.195312 44.625 -45.53125 C 44.625 -49.132812 43.15625 -52.207031 40.21875 -54.75 C 37.28125 -57.300781 32.992188 -58.578125 27.359375 -58.578125 C 24.328125 -58.578125 21.597656 -58.242188 19.171875 -57.578125 Z M 19.171875 -4.453125 C 22.691406 -3.628906 26.160156 -3.21875 29.578125 -3.21875 C 35.066406 -3.21875 39.25 -4.453125 42.125 -6.921875 C 45 -9.398438 46.4375 -12.457031 46.4375 -16.09375 C 46.4375 -18.476562 45.785156 -20.773438 44.484375 -22.984375 C 43.179688 -25.203125 41.0625 -26.945312 38.125 -28.21875 C 35.1875 -29.488281 31.550781 -30.125 27.21875 -30.125 C 25.34375 -30.125 23.738281 -30.09375 22.40625 -30.03125 C 21.070312 -29.976562 19.992188 -29.875 19.171875 -29.71875 Z M 19.171875 -4.453125 "/></g></g></g><g fill="#000000" fill-opacity="1"><g transform="translate(503.863489, 1999.671484)"><g><path d="M 44.390625 -59.9375 L 44.390625 -61.625 L 66.203125 -61.625 L 66.203125 -59.9375 L 63.890625 -59.9375 C 61.460938 -59.9375 59.597656 -58.921875 58.296875 -56.890625 C 57.660156 -55.953125 57.34375 -53.769531 57.34375 -50.34375 L 57.34375 -25.359375 C 57.34375 -19.179688 56.726562 -14.382812 55.5 -10.96875 C 54.28125 -7.5625 51.875 -4.640625 48.28125 -2.203125 C 44.6875 0.230469 39.800781 1.453125 33.625 1.453125 C 26.894531 1.453125 21.789062 0.285156 18.3125 -2.046875 C 14.832031 -4.378906 12.363281 -7.515625 10.90625 -11.453125 C 9.9375 -14.148438 9.453125 -19.207031 9.453125 -26.625 L 9.453125 -50.71875 C 9.453125 -54.5 8.925781 -56.976562 7.875 -58.15625 C 6.832031 -59.34375 5.144531 -59.9375 2.8125 -59.9375 L 0.5 -59.9375 L 0.5 -61.625 L 27.125 -61.625 L 27.125 -59.9375 L 24.765625 -59.9375 C 22.222656 -59.9375 20.40625 -59.132812 19.3125 -57.53125 C 18.550781 -56.4375 18.171875 -54.164062 18.171875 -50.71875 L 18.171875 -23.859375 C 18.171875 -21.460938 18.390625 -18.71875 18.828125 -15.625 C 19.273438 -12.539062 20.070312 -10.132812 21.21875 -8.40625 C 22.375 -6.675781 24.035156 -5.25 26.203125 -4.125 C 28.367188 -3.007812 31.023438 -2.453125 34.171875 -2.453125 C 38.203125 -2.453125 41.804688 -3.328125 44.984375 -5.078125 C 48.160156 -6.835938 50.332031 -9.085938 51.5 -11.828125 C 52.664062 -14.578125 53.25 -19.222656 53.25 -25.765625 L 53.25 -50.71875 C 53.25 -54.5625 52.828125 -56.96875 51.984375 -57.9375 C 50.804688 -59.269531 49.050781 -59.9375 46.71875 -59.9375 Z M 44.390625 -59.9375 "/></g></g></g><g fill="#000000" fill-opacity="1"><g transform="translate(625.316417, 1999.671484)"><g><path d="M 28.71875 -1.6875 L 28.71875 0 L 2.3125 0 L 2.3125 -1.6875 L 4.5 -1.6875 C 7.039062 -1.6875 8.890625 -2.425781 10.046875 -3.90625 C 10.773438 -4.875 11.140625 -7.207031 11.140625 -10.90625 L 11.140625 -50.71875 C 11.140625 -53.832031 10.941406 -55.890625 10.546875 -56.890625 C 10.242188 -57.648438 9.617188 -58.300781 8.671875 -58.84375 C 7.347656 -59.570312 5.957031 -59.9375 4.5 -59.9375 L 2.3125 -59.9375 L 2.3125 -61.625 L 28.71875 -61.625 L 28.71875 -59.9375 L 26.484375 -59.9375 C 23.972656 -59.9375 22.144531 -59.191406 21 -57.703125 C 20.238281 -56.734375 19.859375 -54.40625 19.859375 -50.71875 L 19.859375 -10.90625 C 19.859375 -7.78125 20.054688 -5.71875 20.453125 -4.71875 C 20.753906 -3.96875 21.390625 -3.316406 22.359375 -2.765625 C 23.660156 -2.046875 25.035156 -1.6875 26.484375 -1.6875 Z M 28.71875 -1.6875 "/></g></g></g><g fill="#000000" fill-opacity="1"><g transform="translate(710.557063, 1999.671484)"><g><path d="M 53.34375 -17.046875 L 54.84375 -16.71875 L 49.578125 0 L 1.859375 0 L 1.859375 -1.6875 L 4.1875 -1.6875 C 6.789062 -1.6875 8.648438 -2.53125 9.765625 -4.21875 C 10.398438 -5.195312 10.71875 -7.441406 10.71875 -10.953125 L 10.71875 -50.71875 C 10.71875 -54.5625 10.296875 -56.96875 9.453125 -57.9375 C 8.265625 -59.269531 6.507812 -59.9375 4.1875 -59.9375 L 1.859375 -59.9375 L 1.859375 -61.625 L 29.765625 -61.625 L 29.765625 -59.9375 C 26.492188 -59.96875 24.195312 -59.664062 22.875 -59.03125 C 21.5625 -58.394531 20.660156 -57.59375 20.171875 -56.625 C 19.691406 -55.65625 19.453125 -53.335938 19.453125 -49.671875 L 19.453125 -10.953125 C 19.453125 -8.429688 19.691406 -6.703125 20.171875 -5.765625 C 20.535156 -5.128906 21.097656 -4.660156 21.859375 -4.359375 C 22.617188 -4.054688 24.984375 -3.90625 28.953125 -3.90625 L 33.4375 -3.90625 C 38.164062 -3.90625 41.484375 -4.253906 43.390625 -4.953125 C 45.304688 -5.648438 47.050781 -6.882812 48.625 -8.65625 C 50.195312 -10.425781 51.769531 -13.222656 53.34375 -17.046875 Z M 53.34375 -17.046875 "/></g></g></g><g fill="#000000" fill-opacity="1"><g transform="translate(813.108359, 1999.671484)"><g><path d="M 53.84375 -61.625 L 54.53125 -47.171875 L 52.796875 -47.171875 C 52.460938 -49.710938 52.007812 -51.53125 51.4375 -52.625 C 50.5 -54.375 49.25 -55.664062 47.6875 -56.5 C 46.125 -57.332031 44.070312 -57.75 41.53125 -57.75 L 32.859375 -57.75 L 32.859375 -10.671875 C 32.859375 -6.890625 33.265625 -4.53125 34.078125 -3.59375 C 35.234375 -2.320312 37.003906 -1.6875 39.390625 -1.6875 L 41.53125 -1.6875 L 41.53125 0 L 15.40625 0 L 15.40625 -1.6875 L 17.578125 -1.6875 C 20.191406 -1.6875 22.039062 -2.472656 23.125 -4.046875 C 23.789062 -5.015625 24.125 -7.222656 24.125 -10.671875 L 24.125 -57.75 L 16.71875 -57.75 C 13.84375 -57.75 11.800781 -57.539062 10.59375 -57.125 C 9.007812 -56.539062 7.65625 -55.429688 6.53125 -53.796875 C 5.414062 -52.160156 4.753906 -49.953125 4.546875 -47.171875 L 2.8125 -47.171875 L 3.546875 -61.625 Z M 53.84375 -61.625 "/></g></g></g><g fill="#000000" fill-opacity="1"><g transform="translate(922.520771, 1999.671484)"><g/></g></g><g fill="#000000" fill-opacity="1"><g transform="translate(1000.037342, 1999.671484)"><g><path d="M 19.046875 -58.25 L 19.046875 -34.03125 L 30.265625 -34.03125 C 32.835938 -34.03125 34.722656 -34.597656 35.921875 -35.734375 C 37.117188 -36.867188 37.914062 -39.117188 38.3125 -42.484375 L 39.984375 -42.484375 L 39.984375 -21.625 L 38.3125 -21.625 C 38.28125 -24.019531 37.96875 -25.773438 37.375 -26.890625 C 36.78125 -28.015625 35.960938 -28.859375 34.921875 -29.421875 C 33.878906 -29.984375 32.328125 -30.265625 30.265625 -30.265625 L 19.046875 -30.265625 L 19.046875 -10.90625 C 19.046875 -7.78125 19.238281 -5.71875 19.625 -4.71875 C 19.925781 -3.96875 20.5625 -3.316406 21.53125 -2.765625 C 22.863281 -2.046875 24.257812 -1.6875 25.71875 -1.6875 L 27.953125 -1.6875 L 27.953125 0 L 1.5 0 L 1.5 -1.6875 L 3.6875 -1.6875 C 6.226562 -1.6875 8.070312 -2.425781 9.21875 -3.90625 C 9.945312 -4.875 10.3125 -7.207031 10.3125 -10.90625 L 10.3125 -50.71875 C 10.3125 -53.832031 10.113281 -55.890625 9.71875 -56.890625 C 9.414062 -57.648438 8.796875 -58.300781 7.859375 -58.84375 C 6.554688 -59.570312 5.164062 -59.9375 3.6875 -59.9375 L 1.5 -59.9375 L 1.5 -61.625 L 47.34375 -61.625 L 47.9375 -48.078125 L 46.34375 -48.078125 C 45.5625 -50.953125 44.644531 -53.0625 43.59375 -54.40625 C 42.550781 -55.757812 41.265625 -56.738281 39.734375 -57.34375 C 38.203125 -57.945312 35.832031 -58.25 32.625 -58.25 Z M 19.046875 -58.25 "/></g></g></g><g fill="#000000" fill-opacity="1"><g transform="translate(1106.04212, 1999.671484)"><g><path d="M 34.03125 -63.03125 C 42.03125 -63.03125 48.957031 -59.988281 54.8125 -53.90625 C 60.675781 -47.832031 63.609375 -40.253906 63.609375 -31.171875 C 63.609375 -21.804688 60.65625 -14.035156 54.75 -7.859375 C 48.84375 -1.679688 41.695312 1.40625 33.3125 1.40625 C 24.820312 1.40625 17.691406 -1.601562 11.921875 -7.625 C 6.148438 -13.65625 3.265625 -21.457031 3.265625 -31.03125 C 3.265625 -40.820312 6.597656 -48.804688 13.265625 -54.984375 C 19.054688 -60.347656 25.976562 -63.03125 34.03125 -63.03125 Z M 33.171875 -59.703125 C 27.660156 -59.703125 23.238281 -57.660156 19.90625 -53.578125 C 15.75 -48.484375 13.671875 -41.03125 13.671875 -31.21875 C 13.671875 -21.15625 15.820312 -13.414062 20.125 -8 C 23.425781 -3.875 27.789062 -1.8125 33.21875 -1.8125 C 39 -1.8125 43.773438 -4.066406 47.546875 -8.578125 C 51.328125 -13.097656 53.21875 -20.222656 53.21875 -29.953125 C 53.21875 -40.492188 51.140625 -48.351562 46.984375 -53.53125 C 43.648438 -57.644531 39.046875 -59.703125 33.171875 -59.703125 Z M 33.171875 -59.703125 "/></g></g></g><g fill="#000000" fill-opacity="1"><g transform="translate(1227.495003, 1999.671484)"><g><path d="M 62.890625 0 L 46.4375 0 L 25.578125 -28.8125 C 24.035156 -28.75 22.78125 -28.71875 21.8125 -28.71875 C 21.414062 -28.71875 20.988281 -28.722656 20.53125 -28.734375 C 20.082031 -28.753906 19.613281 -28.78125 19.125 -28.8125 L 19.125 -10.90625 C 19.125 -7.03125 19.550781 -4.625 20.40625 -3.6875 C 21.550781 -2.351562 23.273438 -1.6875 25.578125 -1.6875 L 27.984375 -1.6875 L 27.984375 0 L 1.59375 0 L 1.59375 -1.6875 L 3.90625 -1.6875 C 6.507812 -1.6875 8.375 -2.53125 9.5 -4.21875 C 10.132812 -5.164062 10.453125 -7.394531 10.453125 -10.90625 L 10.453125 -50.71875 C 10.453125 -54.59375 10.023438 -57 9.171875 -57.9375 C 7.992188 -59.269531 6.238281 -59.9375 3.90625 -59.9375 L 1.59375 -59.9375 L 1.59375 -61.625 L 24.03125 -61.625 C 30.582031 -61.625 35.410156 -61.144531 38.515625 -60.1875 C 41.617188 -59.226562 44.253906 -57.46875 46.421875 -54.90625 C 48.585938 -52.351562 49.671875 -49.304688 49.671875 -45.765625 C 49.671875 -41.972656 48.4375 -38.679688 45.96875 -35.890625 C 43.5 -33.109375 39.671875 -31.140625 34.484375 -29.984375 L 47.21875 -12.3125 C 50.125 -8.25 52.617188 -5.550781 54.703125 -4.21875 C 56.796875 -2.894531 59.523438 -2.050781 62.890625 -1.6875 Z M 19.125 -31.671875 C 19.707031 -31.671875 20.207031 -31.660156 20.625 -31.640625 C 21.050781 -31.628906 21.398438 -31.625 21.671875 -31.625 C 27.546875 -31.625 31.972656 -32.894531 34.953125 -35.4375 C 37.941406 -37.988281 39.4375 -41.234375 39.4375 -45.171875 C 39.4375 -49.015625 38.234375 -52.140625 35.828125 -54.546875 C 33.421875 -56.960938 30.234375 -58.171875 26.265625 -58.171875 C 24.503906 -58.171875 22.125 -57.878906 19.125 -57.296875 Z M 19.125 -31.671875 "/></g></g></g><g fill="#000000" fill-opacity="1"><g transform="translate(1343.813785, 1999.671484)"><g/></g></g><g fill="#000000" fill-opacity="1"><g transform="translate(1419.649096, 1999.671484)"><g><path d="M 66.078125 -61.625 L 66.078125 -59.9375 C 63.890625 -59.539062 62.238281 -58.84375 61.125 -57.84375 C 59.507812 -56.363281 58.082031 -54.09375 56.84375 -51.03125 L 35.359375 1.40625 L 33.671875 1.40625 L 10.59375 -51.71875 C 9.40625 -54.4375 8.570312 -56.097656 8.09375 -56.703125 C 7.332031 -57.648438 6.398438 -58.382812 5.296875 -58.90625 C 4.191406 -59.4375 2.695312 -59.78125 0.8125 -59.9375 L 0.8125 -61.625 L 25.984375 -61.625 L 25.984375 -59.9375 C 23.140625 -59.664062 21.289062 -59.179688 20.4375 -58.484375 C 19.59375 -57.785156 19.171875 -56.890625 19.171875 -55.796875 C 19.171875 -54.285156 19.867188 -51.925781 21.265625 -48.71875 L 36.9375 -12.59375 L 51.484375 -48.265625 C 52.910156 -51.773438 53.625 -54.210938 53.625 -55.578125 C 53.625 -56.453125 53.179688 -57.289062 52.296875 -58.09375 C 51.421875 -58.894531 49.9375 -59.460938 47.84375 -59.796875 C 47.695312 -59.828125 47.441406 -59.875 47.078125 -59.9375 L 47.078125 -61.625 Z M 66.078125 -61.625 "/></g></g></g><g fill="#000000" fill-opacity="1"><g transform="translate(1529.106487, 1999.671484)"><g><path d="M 42.578125 -20.625 L 18.71875 -20.625 L 14.546875 -10.90625 C 13.515625 -8.507812 13 -6.722656 13 -5.546875 C 13 -4.609375 13.441406 -3.78125 14.328125 -3.0625 C 15.222656 -2.351562 17.15625 -1.894531 20.125 -1.6875 L 20.125 0 L 0.734375 0 L 0.734375 -1.6875 C 3.304688 -2.132812 4.96875 -2.722656 5.71875 -3.453125 C 7.269531 -4.910156 8.984375 -7.863281 10.859375 -12.3125 L 32.53125 -63.03125 L 34.125 -63.03125 L 55.578125 -11.765625 C 57.304688 -7.648438 58.875 -4.976562 60.28125 -3.75 C 61.6875 -2.519531 63.644531 -1.832031 66.15625 -1.6875 L 66.15625 0 L 41.84375 0 L 41.84375 -1.6875 C 44.300781 -1.800781 45.960938 -2.207031 46.828125 -2.90625 C 47.691406 -3.601562 48.125 -4.453125 48.125 -5.453125 C 48.125 -6.785156 47.515625 -8.890625 46.296875 -11.765625 Z M 41.3125 -24 L 30.859375 -48.890625 L 20.125 -24 Z M 41.3125 -24 "/></g></g></g><g fill="#000000" fill-opacity="1"><g transform="translate(1650.559461, 1999.671484)"><g><path d="M 53.34375 -17.046875 L 54.84375 -16.71875 L 49.578125 0 L 1.859375 0 L 1.859375 -1.6875 L 4.1875 -1.6875 C 6.789062 -1.6875 8.648438 -2.53125 9.765625 -4.21875 C 10.398438 -5.195312 10.71875 -7.441406 10.71875 -10.953125 L 10.71875 -50.71875 C 10.71875 -54.5625 10.296875 -56.96875 9.453125 -57.9375 C 8.265625 -59.269531 6.507812 -59.9375 4.1875 -59.9375 L 1.859375 -59.9375 L 1.859375 -61.625 L 29.765625 -61.625 L 29.765625 -59.9375 C 26.492188 -59.96875 24.195312 -59.664062 22.875 -59.03125 C 21.5625 -58.394531 20.660156 -57.59375 20.171875 -56.625 C 19.691406 -55.65625 19.453125 -53.335938 19.453125 -49.671875 L 19.453125 -10.953125 C 19.453125 -8.429688 19.691406 -6.703125 20.171875 -5.765625 C 20.535156 -5.128906 21.097656 -4.660156 21.859375 -4.359375 C 22.617188 -4.054688 24.984375 -3.90625 28.953125 -3.90625 L 33.4375 -3.90625 C 38.164062 -3.90625 41.484375 -4.253906 43.390625 -4.953125 C 45.304688 -5.648438 47.050781 -6.882812 48.625 -8.65625 C 50.195312 -10.425781 51.769531 -13.222656 53.34375 -17.046875 Z M 53.34375 -17.046875 "/></g></g></g><g fill="#000000" fill-opacity="1"><g transform="translate(1761.653087, 1999.671484)"><g><path d="M 44.390625 -59.9375 L 44.390625 -61.625 L 66.203125 -61.625 L 66.203125 -59.9375 L 63.890625 -59.9375 C 61.460938 -59.9375 59.597656 -58.921875 58.296875 -56.890625 C 57.660156 -55.953125 57.34375 -53.769531 57.34375 -50.34375 L 57.34375 -25.359375 C 57.34375 -19.179688 56.726562 -14.382812 55.5 -10.96875 C 54.28125 -7.5625 51.875 -4.640625 48.28125 -2.203125 C 44.6875 0.230469 39.800781 1.453125 33.625 1.453125 C 26.894531 1.453125 21.789062 0.285156 18.3125 -2.046875 C 14.832031 -4.378906 12.363281 -7.515625 10.90625 -11.453125 C 9.9375 -14.148438 9.453125 -19.207031 9.453125 -26.625 L 9.453125 -50.71875 C 9.453125 -54.5 8.925781 -56.976562 7.875 -58.15625 C 6.832031 -59.34375 5.144531 -59.9375 2.8125 -59.9375 L 0.5 -59.9375 L 0.5 -61.625 L 27.125 -61.625 L 27.125 -59.9375 L 24.765625 -59.9375 C 22.222656 -59.9375 20.40625 -59.132812 19.3125 -57.53125 C 18.550781 -56.4375 18.171875 -54.164062 18.171875 -50.71875 L 18.171875 -23.859375 C 18.171875 -21.460938 18.390625 -18.71875 18.828125 -15.625 C 19.273438 -12.539062 20.070312 -10.132812 21.21875 -8.40625 C 22.375 -6.675781 24.035156 -5.25 26.203125 -4.125 C 28.367188 -3.007812 31.023438 -2.453125 34.171875 -2.453125 C 38.203125 -2.453125 41.804688 -3.328125 44.984375 -5.078125 C 48.160156 -6.835938 50.332031 -9.085938 51.5 -11.828125 C 52.664062 -14.578125 53.25 -19.222656 53.25 -25.765625 L 53.25 -50.71875 C 53.25 -54.5625 52.828125 -56.96875 51.984375 -57.9375 C 50.804688 -59.269531 49.050781 -59.9375 46.71875 -59.9375 Z M 44.390625 -59.9375 "/></g></g></g><g fill="#000000" fill-opacity="1"><g transform="translate(1883.10597, 1999.671484)"><g><path d="M 19.453125 -58.25 L 19.453125 -33.90625 L 32.984375 -33.90625 C 36.503906 -33.90625 38.851562 -34.429688 40.03125 -35.484375 C 41.601562 -36.878906 42.484375 -39.332031 42.671875 -42.84375 L 44.34375 -42.84375 L 44.34375 -21.40625 L 42.671875 -21.40625 C 42.242188 -24.40625 41.816406 -26.328125 41.390625 -27.171875 C 40.847656 -28.234375 39.957031 -29.066406 38.71875 -29.671875 C 37.476562 -30.273438 35.566406 -30.578125 32.984375 -30.578125 L 19.453125 -30.578125 L 19.453125 -10.265625 C 19.453125 -7.546875 19.570312 -5.890625 19.8125 -5.296875 C 20.050781 -4.703125 20.472656 -4.226562 21.078125 -3.875 C 21.691406 -3.53125 22.84375 -3.359375 24.53125 -3.359375 L 34.984375 -3.359375 C 38.472656 -3.359375 41.003906 -3.597656 42.578125 -4.078125 C 44.148438 -4.566406 45.664062 -5.523438 47.125 -6.953125 C 49 -8.828125 50.921875 -11.660156 52.890625 -15.453125 L 54.703125 -15.453125 L 49.390625 0 L 1.90625 0 L 1.90625 -1.6875 L 4.09375 -1.6875 C 5.539062 -1.6875 6.914062 -2.03125 8.21875 -2.71875 C 9.1875 -3.207031 9.84375 -3.9375 10.1875 -4.90625 C 10.539062 -5.875 10.71875 -7.859375 10.71875 -10.859375 L 10.71875 -50.890625 C 10.71875 -54.796875 10.328125 -57.207031 9.546875 -58.125 C 8.453125 -59.332031 6.632812 -59.9375 4.09375 -59.9375 L 1.90625 -59.9375 L 1.90625 -61.625 L 49.390625 -61.625 L 50.078125 -48.125 L 48.296875 -48.125 C 47.660156 -51.363281 46.957031 -53.585938 46.1875 -54.796875 C 45.414062 -56.015625 44.273438 -56.941406 42.765625 -57.578125 C 41.546875 -58.023438 39.410156 -58.25 36.359375 -58.25 Z M 19.453125 -58.25 "/></g></g></g></svg>